<?xml version="1.0" standalone="no"?>
<!DOCTYPE svg PUBLIC "-//W3C//DTD SVG 1.1//EN" "http://www.w3.org/Graphics/SVG/1.1/DTD/svg11.dtd" >
<svg>
<metadata>
Created by FontForge 20090914 at Mon Mar  9 10:31:19 2015
 By www-data
The digitally encoded machine readable software for producing the Typefaces licensed to you is copyrighted (c) 2005 Typotheque (Peter Bilak, Graphic and Type design). All rights reserved.
</metadata>
<defs>
<font id="FedraSansPro-Light" horiz-adv-x="600" >
  <font-face 
    font-family="Fedra Sans Pro Light"
    font-weight="300"
    font-stretch="normal"
    units-per-em="1000"
    panose-1="2 11 3 4 4 0 0 2 0 4"
    ascent="780"
    descent="-220"
    x-height="546"
    cap-height="707"
    bbox="-316 -284 1300 951"
    underline-thickness="30"
    underline-position="-120"
    stemh="20"
    stemv="59"
    unicode-range="U+0020-U+FB04"
  />
<missing-glyph horiz-adv-x="1000" 
 />
    <glyph glyph-name="f_k" unicode="fk" horiz-adv-x="876" 
d="M100 -220v715h-80v51h80v28c0 159 74 201 171 201c37 0 102 -10 159 -10c16 0 54 4 65 4v-769h-56v719c-57 -3 -116 6 -168 6c-93 0 -116 -64 -116 -153v-26h117v-51h-117v-715h-55zM848 34l-11 -44c-23 3 -77 13 -146 100l-161 199l243 257h70l-242 -256l121 -151
c53 -66 110 -100 126 -105z" />
    <glyph glyph-name="f_h" unicode="fh" horiz-adv-x="963" 
d="M100 -220v715h-80v51h80v28c0 159 74 201 171 201c37 0 102 -10 159 -10c16 0 54 4 65 4v-283c44 29 89 74 192 74c159 0 169 -120 169 -205v-355h-56v339c0 88 -12 171 -123 171c-68 0 -158 -66 -182 -82v-428h-56v719c-57 -3 -116 6 -168 6c-93 0 -116 -64 -116 -153
v-26h117v-51h-117v-715h-55z" />
    <glyph glyph-name="f_j" unicode="fj" horiz-adv-x="601" 
d="M321 -220c-35 0 -53 6 -60 9l10 46c2 -1 5 -1 9 -2c7 -1 20 -2 43 -2c93 0 114 63 114 149v258v257h-282v-705h-55v705h-80v51h80v28c0 159 74 201 171 201c37 0 102 -6 159 -6c19 0 29 1 44 2l7 -43c-23 -8 -49 -10 -86 -10c-48 1 -97 7 -124 7
c-93 0 -116 -64 -116 -153v-26h339v-567c0 -152 -76 -199 -173 -199z" />
    <glyph glyph-name="f_f_j" unicode="ffj" horiz-adv-x="922" 
d="M660 -220c-27 0 -44 5 -55 8l9 47c11 -3 35 -6 48 -6c92 0 115 65 115 151v515h-282v-711h-55v711h-283v-711h-57v711h-80v51h80v55c0 141 105 175 204 175c72 0 160 -28 187 -39c23 19 56 38 120 38c37 0 102 -6 158 -6c19 0 31 1 44 2l8 -43c-23 -8 -50 -10 -85 -10
c-48 1 -99 7 -126 7c-93 0 -115 -64 -115 -153v-26h339v-567c0 -152 -75 -199 -174 -199zM157 546h282v28c0 59 6 90 22 123c-31 10 -120 28 -160 28c-93 0 -144 -33 -144 -125v-54z" />
    <glyph glyph-name="aogonek_j" unicode="&#x105;j" horiz-adv-x="812" 
d="M491 -230c-88 0 -156 33 -156 113c0 51 42 95 93 124c-21 11 -36 32 -39 59c-22 -14 -78 -74 -199 -74c-92 0 -146 53 -146 152c0 133 119 161 203 164l139 3v83c0 96 -47 115 -151 115c-48 0 -112 -20 -128 -25l-12 46c13 8 83 29 162 29c108 0 183 -37 183 -140v-320
c0 -39 20 -57 52 -60l-4 -39c-55 -32 -97 -71 -97 -114c0 -56 54 -67 100 -67c107 0 163 44 163 184v543h57v-544c0 -152 -87 -232 -220 -232zM207 39c77 0 172 64 179 71v157l-144 -6c-96 -4 -144 -50 -144 -110c0 -84 41 -112 109 -112zM683 661l-53 55l53 54l55 -54z" />
    <glyph glyph-name="f_f" unicode="ff" horiz-adv-x="652" 
d="M100 -220v715h-80v51h80v55c0 150 123 175 222 175c68 0 138 -26 170 -39c34 34 89 39 135 39c32 0 118 -15 125 -20l-10 -45c-13 2 -25 4 -38 7c-23 4 -48 7 -71 7c-95 0 -139 -37 -139 -125v-54h118v-51h-118v-715h-54v715h-284v-715h-56zM156 546h284v53
c0 39 4 70 20 97c-32 13 -105 29 -159 29c-93 0 -145 -33 -145 -125v-54z" />
    <glyph glyph-name="fi" unicode="fi" horiz-adv-x="601" 
d="M100 -220v715h-80v51h80v38c0 159 75 191 173 191c37 0 102 -6 158 -6c19 0 29 1 44 2l8 -43c-23 -8 -50 -10 -86 -10c-49 1 -98 7 -125 7c-93 0 -117 -55 -117 -143v-36h342v-546h-57v495h-285v-715h-55z" />
    <glyph glyph-name="fl" unicode="fl" horiz-adv-x="601" 
d="M100 -220v715h-80v51h80v35c0 145 75 192 173 192c37 0 102 -8 158 -8c16 0 54 4 66 4v-769h-57v718c-57 -4 -115 7 -168 7c-93 0 -117 -61 -117 -138v-41h119v-51h-119v-715h-55z" />
    <glyph glyph-name="f_f_i" unicode="ffi" horiz-adv-x="940" 
d="M100 -220v715h-80v51h80v55c0 141 105 175 204 175c72 0 160 -28 187 -39c23 19 56 38 120 38c37 0 102 -6 158 -6c19 0 31 1 44 2l8 -43c-23 -8 -50 -10 -85 -10c-48 1 -99 7 -126 7c-93 0 -115 -64 -115 -153v-26h339v-546h-56v495h-283v-715h-55v715h-283v-715h-57z
M157 546h282v28c0 59 6 90 22 123c-31 10 -120 28 -160 28c-93 0 -144 -33 -144 -125v-54z" />
    <glyph glyph-name="f_f_l" unicode="ffl" horiz-adv-x="928" 
d="M100 -220v715h-80v51h80v55c0 150 123 175 222 175c56 0 129 -23 168 -39c31 28 72 38 119 38c37 0 102 -10 158 -10c16 0 42 4 53 4v-769h-56v719c-53 -3 -107 6 -155 6c-93 0 -116 -62 -116 -150v-29h117v-51h-117v-715h-55v715h-281v-715h-57zM157 546h281v28
c0 51 7 91 21 122c-35 14 -110 29 -158 29c-93 0 -144 -33 -144 -125v-54z" />
    <glyph glyph-name=".notdef" horiz-adv-x="1000" 
 />
    <glyph glyph-name="space" unicode=" " horiz-adv-x="200" 
 />
    <glyph glyph-name="exclam" unicode="!" horiz-adv-x="271" 
d="M102 159l-3 126v422h55v-422l-2 -126h-50zM92 0v71h69v-71h-69z" />
    <glyph glyph-name="quotedbl" unicode="&#x22;" horiz-adv-x="309" 
d="M53 515l-3 238h51l-5 -238h-43zM211 515l-3 238h51l-5 -238h-43z" />
    <glyph glyph-name="numbersign" unicode="#" horiz-adv-x="577" 
d="M131 0l9 164h-90v50h92l8 141h-100v50h103l8 162h53l-8 -162h183l8 162h53l-8 -162h85v-50h-88l-8 -141h96v-50h-98l-9 -164h-53l9 164h-183l-9 -164h-53zM195 214h183l8 141h-183z" />
    <glyph glyph-name="dollar" unicode="$" horiz-adv-x="523" 
d="M222 -99l1 95c-81 3 -140 26 -167 39l21 50c52 -21 106 -37 167 -37c69 0 146 14 146 97c0 52 -61 79 -102 95c-83 35 -205 69 -205 180c0 77 57 118 140 129l-1 91h59l-2 -89c72 -1 113 -14 149 -29l-18 -46c-49 15 -87 25 -140 25c-69 0 -130 -16 -130 -80
c0 -54 59 -82 102 -101c76 -34 205 -70 205 -170c0 -108 -76 -145 -168 -153l3 -96h-60z" />
    <glyph glyph-name="percent" unicode="%" horiz-adv-x="752" 
d="M187 396c-79 0 -142 44 -142 153c0 108 69 165 145 165c81 0 144 -37 144 -157c0 -101 -66 -161 -147 -161zM187 440c60 0 98 45 98 117c0 68 -28 116 -95 116c-53 0 -94 -40 -94 -124c0 -69 27 -109 91 -109zM560 -8c-79 0 -142 44 -142 153c0 108 69 165 145 165
c81 0 144 -37 144 -157c0 -101 -66 -161 -147 -161zM560 36c60 0 98 45 98 117c0 68 -28 116 -95 116c-53 0 -94 -40 -94 -124c0 -69 27 -109 91 -109zM120 64l-31 34l521 532l31 -33z" />
    <glyph glyph-name="ampersand" unicode="&#x26;" horiz-adv-x="673" 
d="M250 -7c-83 0 -180 34 -180 165c0 110 51 157 129 221c-19 51 -33 115 -33 175c0 84 45 153 149 153c93 0 128 -60 128 -128c0 -106 -114 -156 -188 -211c77 -188 260 -319 438 -324l-4 -47c-85 0 -167 25 -243 72c-56 -43 -93 -76 -196 -76zM262 41c59 0 100 24 143 55
c-84 63 -146 138 -190 235c-57 -49 -93 -93 -93 -168c0 -102 77 -122 140 -122zM239 413c51 38 154 92 154 163c0 53 -34 86 -82 86c-65 0 -95 -43 -95 -99c0 -49 8 -99 23 -150z" />
    <glyph glyph-name="quotesingle" unicode="'" horiz-adv-x="151" 
d="M53 515l-3 238h51l-5 -238h-43z" />
    <glyph glyph-name="parenleft" unicode="(" horiz-adv-x="331" 
d="M301 -182l-33 -39c-39 33 -73 74 -104 123c-51 84 -104 210 -104 383c0 174 53 294 104 372c31 46 65 83 104 112l33 -39c-35 -28 -65 -63 -92 -105c-46 -72 -92 -182 -92 -339c0 -155 47 -274 92 -351c27 -46 57 -85 92 -117z" />
    <glyph glyph-name="parenright" unicode=")" horiz-adv-x="331" 
d="M63 -221l-33 39c35 32 66 71 93 117c45 77 92 196 92 351c0 157 -46 267 -92 339c-27 42 -57 77 -92 105l33 39c39 -29 73 -66 104 -112c53 -77 103 -199 103 -372c0 -172 -51 -301 -104 -383c-31 -49 -65 -90 -104 -123z" />
    <glyph glyph-name="asterisk" unicode="*" horiz-adv-x="421" 
d="M72 471l-29 51l101 46l18 -32zM144 601l-101 46l30 51l90 -64zM180 409l12 111h37l10 -111h-59zM193 650l-12 112h59l-10 -112h-37zM347 472l-90 63l20 33l100 -44zM276 603l-19 31l91 65l30 -50z" />
    <glyph glyph-name="plus" unicode="+" 
d="M266 56v221h-219v50h219v228h53v-228h233v-50h-233v-221h-53z" />
    <glyph glyph-name="comma" unicode="," horiz-adv-x="300" 
d="M148 -122h-47c7 25 24 57 24 100v84h58v-26c0 -80 -19 -123 -35 -158z" />
    <glyph glyph-name="hyphen" unicode="-" horiz-adv-x="358" 
d="M30 261v51h298v-51h-298z" />
    <glyph glyph-name="hyphen" unicode="&#xad;" horiz-adv-x="358" 
d="M30 261v51h298v-51h-298z" />
    <glyph glyph-name="period" unicode="." horiz-adv-x="300" 
d="M118 0v71h69v-71h-69z" />
    <glyph glyph-name="slash" unicode="/" horiz-adv-x="366" 
d="M40 -62l233 831h53l-232 -831h-54z" />
    <glyph glyph-name="zero" unicode="0" horiz-adv-x="698" 
d="M349 -12c-157 0 -286 89 -286 285c0 195 127 287 286 287s286 -99 286 -287c0 -195 -127 -285 -286 -285zM349 39c127 0 228 83 228 234c0 145 -100 237 -228 237c-127 0 -227 -73 -227 -237c0 -147 100 -234 227 -234z" />
    <glyph glyph-name="one" unicode="1" horiz-adv-x="339" 
d="M161 0v511h-141v43l199 6v-560h-58z" />
    <glyph glyph-name="two" unicode="2" horiz-adv-x="476" 
d="M38 0v46c85 77 303 240 303 340c0 93 -44 122 -119 122c-58 0 -115 -26 -133 -39l-25 42c21 19 85 49 162 49c129 0 173 -77 173 -169c0 -123 -185 -263 -282 -341h308v-50h-387z" />
    <glyph glyph-name="three" unicode="3" horiz-adv-x="486" 
d="M210 -166c-97 0 -150 17 -179 29l17 47c31 -12 80 -27 152 -27c80 0 172 13 172 134c0 86 -74 144 -162 163c-12 3 -24 3 -36 4v47c11 1 22 2 33 5c69 21 134 85 134 155c0 91 -67 119 -134 119c-35 0 -63 -4 -84 -11c-12 -3 -23 -7 -33 -12l-19 42c24 11 72 30 140 30
c113 0 182 -61 182 -165c0 -95 -81 -166 -141 -179c63 -16 174 -77 174 -190c0 -133 -91 -191 -216 -191z" />
    <glyph glyph-name="four" unicode="4" horiz-adv-x="543" 
d="M338 -161v189h-315v55l277 463h95v-465h129v-53h-129v-189h-57zM82 81h256v430z" />
    <glyph glyph-name="five" unicode="5" horiz-adv-x="513" 
d="M233 -169c-75 0 -145 16 -163 21l14 54c32 -8 93 -20 149 -20c96 0 167 54 167 150c0 124 -76 166 -166 166c-49 0 -96 -5 -139 -10v354h339v-51h-286v-246c35 4 66 6 101 6c125 0 208 -80 208 -207c0 -141 -92 -217 -224 -217z" />
    <glyph glyph-name="six" unicode="6" horiz-adv-x="552" 
d="M287 -12c-141 0 -223 67 -223 314c0 275 123 413 294 413c49 0 72 -6 87 -11l-11 -49c-15 4 -33 8 -76 8c-203 0 -239 -211 -239 -367c0 -158 31 -258 175 -258c96 0 148 81 148 174c0 113 -65 164 -153 164c-23 0 -29 -2 -68 -7l-7 50c23 5 44 9 83 9
c141 0 200 -95 200 -206c0 -154 -84 -234 -210 -234z" />
    <glyph glyph-name="seven" unicode="7" horiz-adv-x="419" 
d="M108 -168l-51 22l302 640h-359v52h415v-57z" />
    <glyph glyph-name="eight" unicode="8" horiz-adv-x="553" 
d="M274 -12c-134 0 -218 70 -218 171c0 105 84 163 171 211c-76 46 -142 101 -142 186c0 96 72 161 200 161s185 -82 185 -156c0 -91 -69 -142 -147 -190c88 -51 174 -103 174 -202c0 -111 -82 -181 -223 -181zM280 37c93 0 158 38 158 136c0 76 -80 124 -165 172
c-82 -47 -159 -98 -159 -181c0 -84 70 -127 166 -127zM277 395c75 40 138 88 138 158c0 60 -34 117 -130 117c-93 0 -145 -44 -145 -116c0 -70 63 -117 137 -159z" />
    <glyph glyph-name="nine" unicode="9" horiz-adv-x="559" 
d="M186 -165c-39 0 -62 6 -79 11l12 50c7 -2 15 -4 22 -5c13 -3 29 -4 45 -4c241 0 251 185 251 371c0 112 -47 249 -171 249c-96 0 -148 -74 -148 -166c0 -141 65 -181 152 -181c25 0 47 3 72 8l10 -49c-17 -4 -53 -11 -97 -11c-127 0 -195 84 -195 225
c0 148 89 227 213 227c131 0 223 -111 223 -315c0 -311 -105 -410 -310 -410z" />
    <glyph glyph-name="colon" unicode=":" horiz-adv-x="300" 
d="M115 0v71h70v-71h-70zM115 475v71h70v-71h-70z" />
    <glyph glyph-name="semicolon" unicode=";" horiz-adv-x="300" 
d="M148 -122h-47c7 25 24 76 24 128v56h58v-26c0 -80 -19 -123 -35 -158zM115 475v71h70v-71h-70z" />
    <glyph glyph-name="less" unicode="&#x3c;" 
d="M481 69l-398 189v91l398 189v-57l-370 -178l370 -177v-57z" />
    <glyph glyph-name="equal" unicode="=" 
d="M47 180v50h505v-50h-505zM47 379v50h505v-50h-505z" />
    <glyph glyph-name="greater" unicode="&#x3e;" 
d="M83 69v57l370 177l-370 178v57l398 -189v-91z" />
    <glyph glyph-name="question" unicode="?" horiz-adv-x="383" 
d="M178 167l-50 -9c-5 20 -10 43 -10 67c0 137 159 184 159 280c0 100 -107 146 -187 154l12 50c108 -8 231 -69 231 -198c0 -122 -161 -182 -161 -285c0 -19 5 -48 6 -59zM122 0v71h69v-71h-69z" />
    <glyph glyph-name="at" unicode="@" horiz-adv-x="776" 
d="M357 -70c-199 0 -297 133 -297 333c0 324 183 454 398 454c152 0 258 -82 258 -282c0 -208 -120 -283 -213 -283c-47 0 -72 24 -68 69c-26 -31 -88 -62 -121 -62c-53 0 -89 29 -89 122c0 138 75 223 191 223c33 0 76 -10 96 -21l-28 -238c-3 -31 1 -48 18 -48
c67 0 159 38 159 236c0 181 -89 234 -206 234c-172 0 -337 -94 -337 -393c0 -214 93 -290 249 -290c51 0 110 9 146 18l12 -47c-51 -21 -100 -25 -168 -25zM321 208c46 0 96 44 115 66l21 178c-13 3 -24 6 -43 6c-98 0 -138 -76 -138 -173c0 -66 16 -77 45 -77z" />
    <glyph glyph-name="A" unicode="A" horiz-adv-x="650" 
d="M14 0l284 707h82l260 -707h-64l-101 279h-290l-112 -279h-59zM205 330h252l-120 331z" />
    <glyph glyph-name="B" unicode="B" horiz-adv-x="640" 
d="M120 0v707h180c156 0 219 -74 219 -169c0 -139 -112 -168 -103 -162v-3c-9 4 154 -11 154 -176c0 -114 -66 -197 -240 -197h-210zM180 51h133c101 0 196 20 196 143c0 128 -91 144 -232 144h-97v-287zM180 390h118c119 0 160 46 160 135c0 104 -65 135 -179 135h-99v-270
z" />
    <glyph glyph-name="C" unicode="C" horiz-adv-x="639" 
d="M419 -12c-228 0 -359 156 -359 361c0 217 131 368 355 368c134 0 194 -31 200 -34l-17 -51c-19 5 -77 31 -181 31c-153 0 -295 -83 -295 -304c0 -228 147 -319 315 -319c65 0 131 16 166 27l16 -49c-16 -8 -74 -30 -200 -30z" />
    <glyph glyph-name="D" unicode="D" horiz-adv-x="740" 
d="M120 0v707h173c224 0 387 -124 387 -351c0 -249 -150 -356 -381 -356h-179zM178 51h132c189 0 312 98 312 294c0 213 -137 311 -332 311h-112v-605z" />
    <glyph glyph-name="E" unicode="E" horiz-adv-x="571" 
d="M120 0v707h378v-49h-319v-277h297v-52h-297v-278h342v-51h-401z" />
    <glyph glyph-name="F" unicode="F" horiz-adv-x="545" 
d="M120 0v707h395v-49h-336v-297h314v-53h-314v-308h-59z" />
    <glyph glyph-name="G" unicode="G" horiz-adv-x="698" 
d="M419 -12c-232 0 -359 161 -359 361c0 213 128 368 353 368c132 0 180 -26 202 -34l-18 -52c-28 11 -74 32 -181 32c-153 0 -294 -84 -294 -304c0 -225 145 -319 315 -319c63 0 103 10 132 17v290h59v-330c-56 -16 -110 -29 -209 -29z" />
    <glyph glyph-name="H" unicode="H" horiz-adv-x="769" 
d="M120 0v707h59v-326h411v326h59v-707h-59v329h-411v-329h-59z" />
    <glyph glyph-name="I" unicode="I" horiz-adv-x="299" 
d="M120 0v707h59v-707h-59z" />
    <glyph glyph-name="J" unicode="J" horiz-adv-x="299" 
d="M3 -184l-28 44c121 67 145 158 145 291v556h59v-554c0 -153 -28 -265 -176 -337z" />
    <glyph glyph-name="K" unicode="K" horiz-adv-x="598" 
d="M518 0l-301 367v19l285 321h74l-295 -326l316 -381h-79zM120 0v707h59v-707h-59z" />
    <glyph glyph-name="L" unicode="L" horiz-adv-x="486" 
d="M120 0v707h59v-653h307v-54h-366z" />
    <glyph glyph-name="M" unicode="M" horiz-adv-x="944" 
d="M120 0v707h97l243 -685l269 685h95v-707h-59v571l3 94l-260 -665h-100l-234 662l5 -94v-568h-59z" />
    <glyph glyph-name="N" unicode="N" horiz-adv-x="778" 
d="M120 0v707h97l383 -678l-3 91v587h61v-707h-109l-374 669l4 -67v-602h-59z" />
    <glyph glyph-name="O" unicode="O" horiz-adv-x="815" 
d="M399 -12c-212 0 -339 154 -339 367c0 221 147 362 358 362c220 0 337 -159 337 -364c0 -213 -136 -365 -356 -365zM402 39c197 0 294 139 294 315s-105 312 -287 312c-189 0 -291 -135 -291 -310c0 -168 97 -317 284 -317z" />
    <glyph glyph-name="P" unicode="P" horiz-adv-x="576" 
d="M120 0v707h219c137 0 217 -73 217 -213c0 -124 -80 -224 -269 -224h-23v52h29c112 0 200 43 200 167c0 119 -59 169 -176 169h-137v-658h-60z" />
    <glyph glyph-name="Q" unicode="Q" horiz-adv-x="844" 
d="M784 -97v-54c-59 0 -141 -7 -237 30c-57 21 -99 38 -154 38v50c68 0 110 -17 145 -30c104 -40 148 -34 246 -34zM399 -12c-212 0 -339 154 -339 367c0 221 147 362 358 362c220 0 337 -159 337 -364c0 -213 -136 -365 -356 -365zM402 39c197 0 294 139 294 315
s-105 312 -287 312c-189 0 -291 -135 -291 -310c0 -168 97 -317 284 -317z" />
    <glyph glyph-name="R" unicode="R" horiz-adv-x="689" 
d="M672 37l-13 -47c-13 0 -95 8 -154 93l-144 214c-19 -4 -51 -6 -74 -6h-107v-291h-60v707h219c128 0 217 -62 217 -201c0 -84 -38 -159 -138 -194l121 -178c51 -72 106 -89 133 -97zM180 346h113c112 0 200 31 200 154c0 118 -63 158 -176 158h-137v-312z" />
    <glyph glyph-name="S" unicode="S" horiz-adv-x="543" 
d="M246 -12c-101 0 -149 22 -186 41l22 51c49 -23 98 -38 162 -38c77 0 182 27 182 131c0 193 -348 149 -348 378c0 109 88 165 197 165c72 0 120 -14 159 -31l-16 -46c-40 15 -78 27 -142 27c-78 0 -144 -31 -144 -111c0 -177 351 -149 351 -376
c0 -131 -103 -191 -237 -191z" />
    <glyph glyph-name="T" unicode="T" horiz-adv-x="553" 
d="M247 0v654h-247v53h553v-53h-247v-654h-59z" />
    <glyph glyph-name="U" unicode="U" horiz-adv-x="762" 
d="M383 -12c-132 0 -273 48 -273 247v472h61v-465c0 -167 112 -201 212 -201c109 0 213 45 213 225v441h56v-445c0 -221 -152 -274 -269 -274z" />
    <glyph glyph-name="V" unicode="V" horiz-adv-x="626" 
d="M259 0l-259 707h66l238 -659l263 659h59l-281 -707h-86z" />
    <glyph glyph-name="W" unicode="W" horiz-adv-x="998" 
d="M218 0l-208 707h63l195 -672l200 498l-59 174h61l230 -673l230 673h58l-242 -707h-94l-157 457l-184 -457h-93z" />
    <glyph glyph-name="X" unicode="X" horiz-adv-x="583" 
d="M6 0l248 377l-202 330h67l170 -280l181 280h63l-213 -328l233 -379h-69l-199 329l-211 -329h-68z" />
    <glyph glyph-name="Y" unicode="Y" horiz-adv-x="531" 
d="M229 0v279l-223 428h65l190 -374l203 374h61l-237 -430v-277h-59z" />
    <glyph glyph-name="Z" unicode="Z" horiz-adv-x="529" 
d="M30 0v60l386 595h-360v52h422v-53l-389 -602h410v-52h-469z" />
    <glyph glyph-name="bracketleft" unicode="[" horiz-adv-x="346" 
d="M120 -220v974h156v-48h-100v-878h100v-48h-156z" />
    <glyph glyph-name="backslash" unicode="\" horiz-adv-x="366" 
d="M272 -62l-232 831h53l233 -831h-54z" />
    <glyph glyph-name="bracketright" unicode="]" horiz-adv-x="346" 
d="M70 -220v48h100v878h-100v48h156v-974h-156z" />
    <glyph glyph-name="asciicircum" unicode="^" horiz-adv-x="511" 
d="M60 294l159 413h86l146 -413h-66l-124 376l-140 -376h-61z" />
    <glyph glyph-name="underscore" unicode="_" horiz-adv-x="500" 
d="M0 -156v52h500v-52h-500z" />
    <glyph glyph-name="grave" unicode="`" horiz-adv-x="564" 
d="M359 623l-180 125l31 45l176 -132z" />
    <glyph glyph-name="a" unicode="a" horiz-adv-x="555" 
d="M190 -8c-92 0 -146 53 -146 152c0 133 119 161 203 164l139 3v83c0 96 -47 115 -151 115c-48 0 -112 -20 -128 -25l-12 46c13 8 83 29 162 29c108 0 183 -37 183 -140v-320c0 -47 30 -57 52 -60l-5 -45h-8c-40 0 -85 21 -90 72c-22 -14 -78 -74 -199 -74zM207 39
c77 0 172 64 179 71v157l-144 -6c-96 -4 -144 -50 -144 -110c0 -84 41 -112 109 -112z" />
    <glyph glyph-name="b" unicode="b" horiz-adv-x="589" 
d="M278 -9c-121 0 -162 22 -178 25v738h55v-700c27 -7 59 -14 126 -14c128 0 191 107 191 235c0 115 -24 232 -165 232c-20 0 -43 -3 -59 -7l-9 44c12 7 41 11 78 11c136 0 212 -100 212 -260c0 -227 -120 -304 -251 -304z" />
    <glyph glyph-name="c" unicode="c" horiz-adv-x="487" 
d="M327 -9c-184 0 -267 84 -267 281c0 179 96 288 244 288c73 0 118 -16 142 -29l-19 -47c-25 11 -64 28 -127 28c-113 0 -183 -91 -183 -236c0 -160 54 -234 218 -234c43 0 87 11 102 14l10 -47c-11 -3 -65 -18 -120 -18z" />
    <glyph glyph-name="d" unicode="d" horiz-adv-x="582" 
d="M284 -10c-96 0 -224 35 -224 278c0 192 114 292 249 292c56 0 74 -2 118 -16v210h55v-754h-55v56c-33 -32 -86 -66 -143 -66zM283 38c60 0 123 53 144 72v383c-28 11 -59 20 -119 20c-140 0 -191 -128 -191 -248c0 -156 66 -227 166 -227z" />
    <glyph glyph-name="e" unicode="e" horiz-adv-x="529" 
d="M308 -12c-153 0 -248 68 -248 275c0 220 104 297 234 297c125 0 185 -85 185 -272v-20h-362c5 -197 93 -229 215 -229c41 0 112 17 129 23l11 -48c-9 -3 -68 -26 -164 -26zM117 314h303c0 123 -43 203 -138 203c-89 0 -154 -67 -165 -203z" />
    <glyph glyph-name="f" unicode="f" horiz-adv-x="326" 
d="M100 -220v715h-80v51h80v53c0 124 74 176 166 176c39 0 61 -3 80 -10l-10 -48c-15 3 -27 8 -70 8c-76 0 -111 -33 -111 -125v-54h117v-51h-117v-715h-55z" />
    <glyph glyph-name="g" unicode="g" horiz-adv-x="585" 
d="M271 -230c-80 0 -150 14 -164 17l11 52c12 -2 93 -18 137 -18c96 0 172 19 172 154v69c-35 -32 -74 -52 -134 -52c-110 0 -231 36 -231 279c0 197 112 289 248 289c68 0 123 -10 171 -19v-583c0 -127 -77 -188 -210 -188zM297 41c64 0 107 40 129 59v400
c-29 5 -58 12 -117 12c-142 0 -192 -112 -192 -244c0 -161 59 -227 180 -227z" />
    <glyph glyph-name="h" unicode="h" horiz-adv-x="606" 
d="M100 0v754h55v-272c39 28 107 77 194 77c157 0 164 -119 164 -204v-355h-51v339c0 100 -12 170 -124 170c-67 0 -160 -62 -183 -77v-432h-55z" />
    <glyph glyph-name="i" unicode="i" horiz-adv-x="257" 
d="M99 0v546h57v-546h-57zM126 661l-53 55l53 54l55 -54z" />
    <glyph glyph-name="j" unicode="j" horiz-adv-x="257" 
d="M-18 -224c-27 0 -44 5 -55 8l9 47c11 -3 35 -6 48 -6c92 0 115 65 115 151v570h57v-571c0 -152 -75 -199 -174 -199zM127 661l-53 55l53 54l55 -54z" />
    <glyph glyph-name="k" unicode="k" horiz-adv-x="539" 
d="M514 34l-16 -41c-23 3 -77 13 -146 100l-157 196l239 257h68l-241 -256l121 -151c53 -67 108 -98 132 -105zM100 0v754h55v-754h-55z" />
    <glyph glyph-name="l" unicode="l" horiz-adv-x="257" 
d="M100 0v754h55v-754h-55z" />
    <glyph glyph-name="m" unicode="m" horiz-adv-x="939" 
d="M100 0v546h55v-67c44 37 109 79 176 79c89 0 130 -36 150 -80c45 31 109 80 198 80c156 0 169 -109 169 -203v-355h-55v339c0 91 -11 169 -123 169c-67 0 -125 -38 -176 -75c4 -25 7 -53 7 -78v-355h-54v339c0 88 -8 171 -121 171c-56 0 -123 -45 -171 -82v-428h-55z" />
    <glyph glyph-name="n" unicode="n" horiz-adv-x="607" 
d="M100 0v546h55v-64c56 37 111 78 194 78c158 0 166 -120 166 -205v-355h-53v339c0 100 -12 171 -124 171c-67 0 -135 -49 -183 -78v-432h-55z" />
    <glyph glyph-name="o" unicode="o" horiz-adv-x="593" 
d="M295 -12c-144 0 -235 98 -235 279c0 191 103 293 241 293c155 0 232 -102 232 -287c0 -193 -102 -285 -238 -285zM300 35c142 0 177 126 177 238c0 104 -33 240 -179 240c-144 0 -181 -134 -181 -241c0 -119 43 -237 183 -237z" />
    <glyph glyph-name="p" unicode="p" horiz-adv-x="589" 
d="M100 -220v766h55v-46c40 27 96 58 157 58c139 0 217 -107 217 -271c0 -228 -120 -298 -251 -298c-53 0 -94 5 -123 10v-219h-55zM281 38c128 0 191 98 191 225c0 120 -24 246 -168 246c-59 0 -134 -50 -149 -62v-396c27 -3 52 -13 126 -13z" />
    <glyph glyph-name="q" unicode="q" horiz-adv-x="585" 
d="M427 -220v242c-40 -21 -86 -33 -142 -33c-104 0 -225 46 -225 286c0 183 114 285 249 285c72 0 133 -15 173 -28v-752h-55zM288 37c64 0 112 21 139 38v420c-27 7 -61 17 -120 17c-142 0 -192 -120 -192 -240c0 -164 66 -235 173 -235z" />
    <glyph glyph-name="r" unicode="r" horiz-adv-x="376" 
d="M100 0v546h55v-73c25 44 79 85 160 85c33 0 54 -6 61 -9l-11 -48c-13 3 -30 7 -62 7c-71 0 -121 -53 -148 -98v-410h-55z" />
    <glyph glyph-name="s" unicode="s" horiz-adv-x="453" 
d="M206 -11c-72 0 -124 15 -149 23l12 49c27 -8 80 -25 133 -25c85 0 148 36 148 97c0 143 -275 99 -275 283c0 93 72 144 175 144c59 0 108 -18 119 -21l-11 -47c-17 5 -58 20 -119 20c-72 0 -111 -41 -111 -92c0 -143 273 -103 273 -279c0 -120 -106 -152 -195 -152z" />
    <glyph glyph-name="t" unicode="t" horiz-adv-x="403" 
d="M293 -11c-100 0 -173 5 -173 158v347h-80v52h80v112h53v-112h172v-52h-171v-346c0 -91 24 -108 116 -108c29 0 62 11 77 16l14 -49c-13 -5 -55 -18 -88 -18z" />
    <glyph glyph-name="u" unicode="u" horiz-adv-x="603" 
d="M254 -12c-149 0 -159 122 -159 207v351h55v-334c0 -89 2 -171 114 -171c74 0 166 63 189 78v427h52v-546h-52v66c-45 -27 -108 -78 -199 -78z" />
    <glyph glyph-name="v" unicode="v" horiz-adv-x="495" 
d="M193 0l-173 546h62l120 -396l37 -118l41 121l137 393h56l-191 -546h-89z" />
    <glyph glyph-name="w" unicode="w" horiz-adv-x="870" 
d="M197 0l-177 546h58l160 -510l161 510h76l142 -510l178 510h55l-195 -546h-80l-122 426l-17 71l-19 -70l-140 -427h-80z" />
    <glyph glyph-name="x" unicode="x" horiz-adv-x="479" 
d="M21 0l187 279l-177 267h65l144 -223l143 223h62l-174 -264l187 -282h-68l-151 236l-153 -236h-65z" />
    <glyph glyph-name="y" unicode="y" horiz-adv-x="491" 
d="M149 -220l75 220h-31l-173 546h61l125 -408l32 -100l34 98l141 410h58l-267 -766h-55z" />
    <glyph glyph-name="z" unicode="z" horiz-adv-x="487" 
d="M40 0v57l340 437h-311v52h374v-53l-346 -441h350v-52h-407z" />
    <glyph glyph-name="braceleft" unicode="{" horiz-adv-x="338" 
d="M308 -219h-12c-96 0 -194 18 -178 159l22 201c5 45 -35 104 -84 104v57c48 0 89 53 84 104l-22 210c-13 127 79 158 178 158h12v-48h-18c-87 0 -127 -28 -118 -113l20 -184c11 -89 -27 -140 -90 -153v-2c59 -19 101 -65 90 -152l-20 -186c-8 -79 37 -108 118 -108h18v-47
z" />
    <glyph glyph-name="bar" unicode="|" horiz-adv-x="256" 
d="M100 -220v974h55v-974h-55z" />
    <glyph glyph-name="braceright" unicode="}" horiz-adv-x="338" 
d="M35 -219v47h18c81 0 127 29 118 108l-20 186c-9 88 31 132 90 152v2c-63 13 -99 64 -90 153l20 184c9 85 -31 112 -118 112h-18v49h12c100 0 191 -31 178 -158l-22 -210c-5 -51 36 -104 84 -104v-57c-49 0 -89 -59 -84 -104l22 -201c16 -141 -82 -159 -178 -159h-12z" />
    <glyph glyph-name="asciitilde" unicode="~" horiz-adv-x="505" 
d="M366 295c-104 0 -144 60 -226 60c-47 0 -74 -18 -93 -29l-27 43c27 19 71 43 126 43c104 0 128 -62 220 -62c37 0 62 14 87 33l32 -38c-35 -32 -68 -50 -119 -50z" />
    <glyph glyph-name="uni00A0" unicode="&#xa0;" horiz-adv-x="250" 
 />
    <glyph glyph-name="exclamdown" unicode="&#xa1;" horiz-adv-x="271" 
d="M99 -162v422l2 126h50l2 -126v-422h-54zM92 474v71h69v-71h-69z" />
    <glyph glyph-name="cent" unicode="&#xa2;" horiz-adv-x="486" 
d="M265 -41l3 75c-160 16 -205 109 -205 244c0 121 69 220 205 231l-3 81h64l-2 -80c37 -3 87 -18 104 -32l-18 -38c-27 12 -71 24 -122 24c-101 0 -171 -57 -171 -189c0 -135 48 -194 203 -194c35 0 72 6 105 13l8 -45c-36 -11 -72 -14 -109 -17l3 -73h-65z" />
    <glyph glyph-name="sterling" unicode="&#xa3;" horiz-adv-x="453" 
d="M63 0v54c59 24 85 99 85 149h-100v51h101c1 36 -1 70 -1 97c0 164 103 189 237 194l5 -49c-102 -8 -194 -22 -186 -149c3 -35 1 -51 1 -93h185v-51h-187c0 -65 -33 -122 -74 -153h296v-50h-362z" />
    <glyph glyph-name="currency" unicode="&#xa4;" horiz-adv-x="496" 
d="M73 144l-33 34l72 70c-19 24 -33 64 -33 104s12 80 32 104l-71 71l33 32l70 -70c28 19 68 34 105 34s74 -9 105 -32l69 70l34 -35l-70 -70c23 -24 32 -64 32 -104s-11 -82 -34 -106l70 -70l-31 -34l-70 70c-29 -17 -68 -30 -105 -30s-75 11 -103 32zM248 229
c84 0 123 54 123 123c1 69 -40 124 -123 124c-81 0 -124 -55 -124 -124s44 -123 124 -123z" />
    <glyph glyph-name="yen" unicode="&#xa5;" horiz-adv-x="565" 
d="M523 546l-129 -235h131v-50h-159l-60 -110h219v-50h-219v-101h-58v101h-208v50h208v1l-56 109h-152v50h125l-123 235h64l173 -339l183 339h61z" />
    <glyph glyph-name="brokenbar" unicode="&#xa6;" horiz-adv-x="256" 
d="M100 -220v362h56v-362h-56zM100 392v361h56v-361h-56z" />
    <glyph glyph-name="section" unicode="&#xa7;" horiz-adv-x="468" 
d="M126 -216c-43 0 -75 12 -111 39l25 52c10 -7 20 -13 31 -19c19 -11 39 -19 58 -19c45 0 57 53 57 87c0 40 -7 81 -15 124l-64 368c-7 32 -10 67 -10 100c0 164 79 245 220 245c60 0 101 -15 137 -38l-23 -55c-21 13 -76 39 -124 39c-41 0 -50 -42 -50 -75
c0 -24 1 -48 6 -72l73 -389c8 -44 16 -100 16 -145c0 -135 -85 -242 -226 -242zM216 -148c56 40 81 96 81 161c0 35 -4 69 -11 104l-73 401c-7 33 -10 66 -10 101c0 24 2 53 14 77c-52 -31 -66 -97 -66 -154c0 -31 4 -61 9 -92l71 -399c5 -31 11 -79 11 -110
c0 -45 -12 -64 -26 -89z" />
    <glyph glyph-name="dieresis" unicode="&#xa8;" horiz-adv-x="402" 
d="M98 669l-46 47l46 46l46 -46zM302 669l-46 47l46 46l47 -46z" />
    <glyph glyph-name="copyright" unicode="&#xa9;" horiz-adv-x="827" 
d="M441 73c-141 0 -213 88 -213 207c0 128 70 212 211 212c52 0 86 -8 117 -27l-18 -39c-31 16 -53 22 -98 22c-86 0 -162 -48 -162 -163s80 -167 175 -167c31 0 60 6 93 17l15 -38c-41 -17 -77 -24 -120 -24zM405 -94c-219 0 -345 153 -345 369c0 224 148 365 364 365
c228 0 343 -159 343 -367c0 -219 -136 -367 -362 -367zM408 -44c205 0 303 139 303 318c0 180 -106 316 -296 316c-198 0 -298 -137 -298 -314c0 -169 95 -320 291 -320z" />
    <glyph glyph-name="ordfeminine" unicode="&#xaa;" horiz-adv-x="414" 
d="M163 385c-56 0 -88 31 -88 91c0 77 67 95 118 95l76 2v42c0 51 -24 59 -80 59c-27 0 -51 -10 -78 -15l-10 37c15 7 54 19 101 19c63 0 110 -19 110 -86v-175c0 -24 16 -29 31 -29l-3 -38c-28 -3 -66 7 -71 40c-20 -17 -63 -42 -106 -42zM173 425c32 0 89 38 96 42v69
l-74 -4c-56 -3 -77 -23 -77 -52c0 -41 23 -55 55 -55zM60 304v45h295v-45h-295z" />
    <glyph glyph-name="guillemotleft" unicode="&#xab;" horiz-adv-x="418" 
d="M151 54l-101 218l101 218l47 -17l-86 -201l85 -199zM317 54l-101 218l102 218l46 -17l-86 -201l85 -199z" />
    <glyph glyph-name="logicalnot" unicode="&#xac;" 
d="M459 119v158h-412v51h466v-209h-54z" />
    <glyph glyph-name="registered" unicode="&#xae;" horiz-adv-x="827" 
d="M609 296l-11 -42c-20 3 -58 9 -101 63c-5 3 -89 111 -83 105c-11 -1 -21 -2 -33 -2h-55v-159h-49v418h134c83 0 131 -44 131 -128c0 -49 -22 -95 -78 -119c37 -42 87 -120 145 -136zM405 86c-219 0 -345 152 -345 369c0 224 148 365 364 365c228 0 343 -159 343 -367
c0 -219 -136 -367 -362 -367zM408 136c205 0 303 139 303 318c0 180 -106 316 -296 316c-198 0 -298 -137 -298 -314c0 -169 95 -320 291 -320zM326 465h59c64 0 106 19 106 82c0 64 -27 90 -92 90h-73v-172z" />
    <glyph glyph-name="macron" unicode="&#xaf;" horiz-adv-x="536" 
d="M120 675v48h291v-48h-291z" />
    <glyph glyph-name="macron" unicode="&#x2c9;" horiz-adv-x="536" 
d="M120 675v48h291v-48h-291z" />
    <glyph glyph-name="degree" unicode="&#xb0;" horiz-adv-x="320" 
d="M156 404c-99 0 -152 54 -152 158c0 91 64 155 156 155c97 0 156 -55 156 -155c0 -99 -64 -158 -160 -158zM159 446c68 0 104 43 104 116c0 69 -37 114 -104 114c-65 0 -103 -43 -103 -114c0 -79 43 -116 103 -116z" />
    <glyph glyph-name="plusminus" unicode="&#xb1;" 
d="M271 123v189h-189v52h189v190h57v-190h189v-52h-189v-189h-57zM82 0v52h435v-52h-435z" />
    <glyph glyph-name="twosuperior" unicode="&#xb2;" horiz-adv-x="307" 
d="M18 415v45c109 80 202 136 202 215c0 45 -32 66 -69 66c-35 0 -72 -14 -93 -37l-26 31c28 31 78 51 121 51c60 0 118 -34 118 -107c0 -106 -108 -165 -186 -219h192v-45h-259z" />
    <glyph glyph-name="threesuperior" unicode="&#xb3;" horiz-adv-x="300" 
d="M135 410c-53 0 -87 9 -104 16l12 41c23 -7 56 -14 87 -14c49 0 93 15 93 60c0 56 -44 70 -116 75v36c57 5 99 23 99 70c0 35 -32 50 -69 50c-29 0 -52 -9 -69 -17l-15 33c27 15 65 26 94 26c60 0 109 -34 109 -85c0 -39 -23 -73 -66 -90c57 -11 86 -51 86 -94
c0 -79 -73 -107 -141 -107z" />
    <glyph glyph-name="acute" unicode="&#xb4;" horiz-adv-x="564" 
d="M211 623l-26 39l175 130l32 -44z" />
    <glyph glyph-name="mu" unicode="&#xb5;" horiz-adv-x="624" 
d="M100 -220v766h55v-334c0 -89 2 -170 114 -170c74 0 166 62 189 77v427h52v-447c0 -47 30 -57 52 -60l-5 -45c-5 0 -9 0 -16 1c-34 5 -74 26 -82 71c-44 -33 -110 -77 -200 -77c-49 0 -80 13 -104 33v-242h-55z" />
    <glyph glyph-name="paragraph" unicode="&#xb6;" horiz-adv-x="582" 
d="M310 -220c-35 0 -51 6 -58 9l11 51c12 -3 27 -5 48 -5c92 0 115 59 115 144v728h56v-729c0 -156 -75 -198 -172 -198zM320 280h-61c-140 0 -229 63 -229 217c0 133 69 210 209 210h81v-427z" />
    <glyph glyph-name="periodcentered" unicode="&#xb7;" horiz-adv-x="188" 
d="M93 293l-53 55l53 54l55 -54z" />
    <glyph glyph-name="cedilla" unicode="&#xb8;" horiz-adv-x="449" 
d="M198 -229l-18 31c47 29 54 55 54 79c0 21 -11 43 -26 68h62c12 -19 20 -40 20 -63c0 -36 -10 -80 -92 -115z" />
    <glyph glyph-name="onesuperior" unicode="&#xb9;" horiz-adv-x="256" 
d="M123 415v323h-93v42l146 4v-369h-53z" />
    <glyph glyph-name="ordmasculine" unicode="&#xba;" horiz-adv-x="414" 
d="M204 384c-89 0 -139 59 -139 163c0 109 58 170 143 170c96 0 142 -59 142 -167c0 -109 -62 -166 -146 -166zM208 426c75 0 92 62 92 124c0 58 -17 125 -93 125c-75 0 -93 -65 -93 -126c0 -64 20 -123 94 -123zM60 304v45h295v-45h-295z" />
    <glyph glyph-name="guillemotright" unicode="&#xbb;" horiz-adv-x="418" 
d="M96 54l-46 19l85 199l-86 201l47 17l101 -218zM262 54l-46 19l85 199l-86 201l47 17l101 -218z" />
    <glyph glyph-name="onequarter" unicode="&#xbc;" horiz-adv-x="714" 
d="M123 415v323h-93v42l146 4v-369h-53zM76 80l-34 34l522 533l32 -33zM566 0v91h-171v49l140 225h84v-231h65v-43h-65v-91h-53zM440 134h126v201z" />
    <glyph glyph-name="onehalf" unicode="&#xbd;" horiz-adv-x="698" 
d="M123 415v323h-93v42l146 4v-369h-53zM66 80l-34 34l522 533l32 -33zM409 0v45c109 80 202 136 202 215c0 45 -32 66 -69 66c-35 0 -72 -14 -93 -37l-26 31c28 31 78 51 121 51c60 0 118 -34 118 -107c0 -106 -108 -165 -186 -219h192v-45h-259z" />
    <glyph glyph-name="threequarters" unicode="&#xbe;" horiz-adv-x="714" 
d="M135 410c-53 0 -87 9 -104 16l12 41c23 -7 56 -14 87 -14c49 0 93 15 93 60c0 56 -44 70 -116 75v36c57 5 99 23 99 70c0 35 -32 50 -69 50c-29 0 -52 -9 -69 -17l-15 33c27 15 65 26 94 26c60 0 109 -34 109 -85c0 -39 -23 -73 -66 -90c57 -11 86 -51 86 -94
c0 -79 -73 -107 -141 -107zM86 80l-34 34l522 533l32 -33zM566 0v91h-171v49l140 225h84v-231h65v-43h-65v-91h-53zM440 134h126v201z" />
    <glyph glyph-name="questiondown" unicode="&#xbf;" horiz-adv-x="383" 
d="M313 -114l-12 -50c-108 8 -231 69 -231 198c0 122 161 182 161 285c0 19 -5 48 -6 59l50 9c5 -20 10 -43 10 -67c0 -137 -159 -184 -159 -280c0 -100 107 -146 187 -154zM212 474v71h69v-71h-69z" />
    <glyph glyph-name="Agrave" unicode="&#xc0;" horiz-adv-x="650" 
d="M14 0l284 707h82l260 -707h-64l-101 279h-290l-112 -279h-59zM205 330h252l-120 331zM382 748l-211 69l21 55l208 -83z" />
    <glyph glyph-name="Aacute" unicode="&#xc1;" horiz-adv-x="650" 
d="M14 0l284 707h82l260 -707h-64l-101 279h-290l-112 -279h-59zM205 330h252l-120 331zM282 748l-17 41l207 83l22 -55z" />
    <glyph glyph-name="Acircumflex" unicode="&#xc2;" horiz-adv-x="650" 
d="M14 0l284 707h82l260 -707h-64l-101 279h-290l-112 -279h-59zM205 330h252l-120 331zM185 743l-20 42l178 73l166 -73l-19 -42l-148 61z" />
    <glyph glyph-name="Atilde" unicode="&#xc3;" horiz-adv-x="650" 
d="M14 0l284 707h82l260 -707h-64l-101 279h-290l-112 -279h-59zM205 330h252l-120 331zM397 754c-45 0 -78 37 -123 37c-35 0 -48 -9 -69 -24l-22 38c7 5 35 35 95 35c50 0 82 -36 123 -36c35 0 59 21 66 28l24 -36c-5 -8 -41 -42 -94 -42z" />
    <glyph glyph-name="Adieresis" unicode="&#xc4;" horiz-adv-x="650" 
d="M14 0l284 707h82l260 -707h-64l-101 279h-290l-112 -279h-59zM205 330h252l-120 331zM234 750l-46 47l46 46l46 -46zM438 750l-46 47l46 46l47 -46z" />
    <glyph glyph-name="Aring" unicode="&#xc5;" horiz-adv-x="650" 
d="M14 0l274 682c-35 15 -60 43 -60 91c0 67 53 104 110 104c50 0 111 -27 111 -102c0 -47 -24 -79 -60 -94l251 -681h-64l-101 279h-290l-112 -279h-59zM339 709c40 0 67 25 67 65s-33 66 -68 66c-39 0 -67 -24 -67 -64s29 -67 68 -67zM205 330h252l-68 186l-52 145
l-59 -148z" />
    <glyph glyph-name="AE" unicode="&#xc6;" horiz-adv-x="897" 
d="M0 0l387 707h436v-49h-319v-277h297v-52h-297v-278h343v-51h-402v329h-202l-177 -329h-66zM271 381h174v277h-25z" />
    <glyph glyph-name="Ccedilla" unicode="&#xc7;" horiz-adv-x="639" 
d="M419 -12c-228 0 -359 156 -359 361c0 217 131 368 355 368c134 0 194 -31 200 -34l-17 -51c-19 5 -77 31 -181 31c-153 0 -295 -83 -295 -304c0 -228 147 -319 315 -319c65 0 131 16 166 27l16 -49c-16 -8 -74 -30 -200 -30zM369 -229l-18 31c47 29 54 55 54 79
c0 21 -11 43 -26 68h62c12 -19 20 -40 20 -63c0 -36 -10 -80 -92 -115z" />
    <glyph glyph-name="Egrave" unicode="&#xc8;" horiz-adv-x="571" 
d="M120 0v707h378v-49h-319v-277h297v-52h-297v-278h342v-51h-401zM387 748l-211 69l21 55l208 -83z" />
    <glyph glyph-name="Eacute" unicode="&#xc9;" horiz-adv-x="571" 
d="M120 0v707h378v-49h-319v-277h297v-52h-297v-278h342v-51h-401zM252 748l-17 41l207 83l22 -55z" />
    <glyph glyph-name="Ecircumflex" unicode="&#xca;" horiz-adv-x="571" 
d="M120 0v707h378v-49h-319v-277h297v-52h-297v-278h342v-51h-401zM155 743l-20 42l178 73l166 -73l-19 -42l-148 61z" />
    <glyph glyph-name="Edieresis" unicode="&#xcb;" horiz-adv-x="571" 
d="M120 0v707h378v-49h-319v-277h297v-52h-297v-278h342v-51h-401zM211 750l-46 47l46 46l46 -46zM415 750l-46 47l46 46l47 -46z" />
    <glyph glyph-name="Igrave" unicode="&#xcc;" horiz-adv-x="299" 
d="M120 0v707h59v-707h-59zM184 748l-211 69l21 55l208 -83z" />
    <glyph glyph-name="Iacute" unicode="&#xcd;" horiz-adv-x="299" 
d="M120 0v707h59v-707h-59zM114 748l-17 41l207 83l22 -55z" />
    <glyph glyph-name="Icircumflex" unicode="&#xce;" horiz-adv-x="299" 
d="M120 0v707h59v-707h-59zM-3 743l-20 42l178 73l166 -73l-19 -42l-148 61z" />
    <glyph glyph-name="Idieresis" unicode="&#xcf;" horiz-adv-x="299" 
d="M120 0v707h59v-707h-59zM47 750l-46 47l46 46l46 -46zM251 750l-46 47l46 46l47 -46z" />
    <glyph glyph-name="Eth" unicode="&#xd0;" horiz-adv-x="749" 
d="M680 356c0 -249 -150 -356 -381 -356h-179v326h-82v53h82v328h173c224 0 387 -124 387 -351zM622 345c0 213 -137 311 -332 311h-112v-277h177v-53h-177v-275h132c189 0 312 98 312 294z" />
    <glyph glyph-name="Ntilde" unicode="&#xd1;" horiz-adv-x="778" 
d="M120 0v707h97l383 -678l-3 91v587h61v-707h-109l-374 669l4 -67v-602h-59zM449 754c-45 0 -78 37 -123 37c-35 0 -48 -9 -69 -24l-22 38c7 5 35 35 95 35c50 0 82 -36 123 -36c35 0 59 21 66 28l24 -36c-5 -8 -41 -42 -94 -42z" />
    <glyph glyph-name="Ograve" unicode="&#xd2;" horiz-adv-x="815" 
d="M399 -12c-212 0 -339 154 -339 367c0 221 147 362 358 362c220 0 337 -159 337 -364c0 -213 -136 -365 -356 -365zM402 39c197 0 294 139 294 315s-105 312 -287 312c-189 0 -291 -135 -291 -310c0 -168 97 -317 284 -317zM482 748l-211 69l21 55l208 -83z" />
    <glyph glyph-name="Oacute" unicode="&#xd3;" horiz-adv-x="815" 
d="M399 -12c-212 0 -339 154 -339 367c0 221 147 362 358 362c220 0 337 -159 337 -364c0 -213 -136 -365 -356 -365zM402 39c197 0 294 139 294 315s-105 312 -287 312c-189 0 -291 -135 -291 -310c0 -168 97 -317 284 -317zM320 748l-17 41l207 83l22 -55z" />
    <glyph glyph-name="Ocircumflex" unicode="&#xd4;" horiz-adv-x="815" 
d="M399 -12c-212 0 -339 154 -339 367c0 221 147 362 358 362c220 0 337 -159 337 -364c0 -213 -136 -365 -356 -365zM402 39c197 0 294 139 294 315s-105 312 -287 312c-189 0 -291 -135 -291 -310c0 -168 97 -317 284 -317zM255 743l-20 42l178 73l166 -73l-19 -42
l-148 61z" />
    <glyph glyph-name="Otilde" unicode="&#xd5;" horiz-adv-x="815" 
d="M399 -12c-212 0 -339 154 -339 367c0 221 147 362 358 362c220 0 337 -159 337 -364c0 -213 -136 -365 -356 -365zM402 39c197 0 294 139 294 315s-105 312 -287 312c-189 0 -291 -135 -291 -310c0 -168 97 -317 284 -317zM467 754c-45 0 -78 37 -123 37
c-35 0 -48 -9 -69 -24l-22 38c7 5 35 35 95 35c50 0 82 -36 123 -36c35 0 59 21 66 28l24 -36c-5 -8 -41 -42 -94 -42z" />
    <glyph glyph-name="Odieresis" unicode="&#xd6;" horiz-adv-x="815" 
d="M399 -12c-212 0 -339 154 -339 367c0 221 147 362 358 362c220 0 337 -159 337 -364c0 -213 -136 -365 -356 -365zM402 39c197 0 294 139 294 315s-105 312 -287 312c-189 0 -291 -135 -291 -310c0 -168 97 -317 284 -317zM301 750l-46 47l46 46l46 -46zM505 750l-46 47
l46 46l47 -46z" />
    <glyph glyph-name="multiply" unicode="&#xd7;" 
d="M483 86l-186 186l-178 -177l-37 37l177 178l-176 176l36 35l176 -176l182 182l38 -37l-183 -183l186 -186z" />
    <glyph glyph-name="Oslash" unicode="&#xd8;" horiz-adv-x="815" 
d="M66 -26l-30 31l100 103c-51 64 -76 148 -76 247c0 221 147 362 358 362c96 0 172 -31 228 -82l97 100l32 -29c1 -1 -38 -41 -98 -104c52 -65 78 -152 78 -249c0 -213 -136 -365 -356 -365c-97 0 -175 31 -234 87l-71 -72c-11 -11 -20 -20 -28 -29zM402 39
c197 0 294 139 294 315c0 80 -21 149 -61 204l-430 -441c47 -48 113 -78 197 -78zM177 151l428 442c-48 47 -115 73 -196 73c-189 0 -291 -135 -291 -310c0 -77 20 -149 59 -205z" />
    <glyph glyph-name="Ugrave" unicode="&#xd9;" horiz-adv-x="762" 
d="M383 -12c-132 0 -273 48 -273 247v472h61v-465c0 -167 112 -201 212 -201c109 0 213 45 213 225v441h56v-445c0 -221 -152 -274 -269 -274zM438 748l-211 69l21 55l208 -83z" />
    <glyph glyph-name="Uacute" unicode="&#xda;" horiz-adv-x="762" 
d="M383 -12c-132 0 -273 48 -273 247v472h61v-465c0 -167 112 -201 212 -201c109 0 213 45 213 225v441h56v-445c0 -221 -152 -274 -269 -274zM324 748l-17 41l207 83l22 -55z" />
    <glyph glyph-name="Ucircumflex" unicode="&#xdb;" horiz-adv-x="762" 
d="M383 -12c-132 0 -273 48 -273 247v472h61v-465c0 -167 112 -201 212 -201c109 0 213 45 213 225v441h56v-445c0 -221 -152 -274 -269 -274zM234 743l-20 42l178 73l166 -73l-19 -42l-148 61z" />
    <glyph glyph-name="Udieresis" unicode="&#xdc;" horiz-adv-x="762" 
d="M383 -12c-132 0 -273 48 -273 247v472h61v-465c0 -167 112 -201 212 -201c109 0 213 45 213 225v441h56v-445c0 -221 -152 -274 -269 -274zM282 750l-46 47l46 46l46 -46zM486 750l-46 47l46 46l47 -46z" />
    <glyph glyph-name="Yacute" unicode="&#xdd;" horiz-adv-x="531" 
d="M229 0v279l-223 428h65l190 -374l203 374h61l-237 -430v-277h-59zM202 748l-17 41l207 83l22 -55z" />
    <glyph glyph-name="Thorn" unicode="&#xde;" horiz-adv-x="548" 
d="M105 0v707h59v-138h161c135 0 217 -60 217 -207c0 -124 -80 -214 -269 -214h-9v52h15c108 0 199 33 199 157c0 117 -58 162 -175 162h-138v-519h-60z" />
    <glyph glyph-name="germandbls" unicode="&#xdf;" horiz-adv-x="601" 
d="M100 -220v798c0 144 68 194 181 194c65 0 152 -24 152 -142c0 -101 -117 -159 -117 -223c0 -129 230 -128 230 -278c0 -105 -83 -137 -159 -137c-79 0 -132 17 -143 22l13 48c22 -5 74 -20 120 -20c71 0 117 20 117 79c0 127 -230 115 -230 283c0 93 111 130 111 229
c0 65 -38 90 -94 90c-106 0 -126 -60 -126 -146v-797h-55z" />
    <glyph glyph-name="agrave" unicode="&#xe0;" horiz-adv-x="555" 
d="M190 -8c-92 0 -146 53 -146 152c0 133 119 161 203 164l139 3v83c0 96 -47 115 -151 115c-48 0 -112 -20 -128 -25l-12 46c13 8 83 29 162 29c108 0 183 -37 183 -140v-320c0 -47 30 -57 52 -60l-5 -45h-8c-40 0 -85 21 -90 72c-22 -14 -78 -74 -199 -74zM207 39
c77 0 172 64 179 71v157l-144 -6c-96 -4 -144 -50 -144 -110c0 -84 41 -112 109 -112zM324 623l-180 125l31 45l176 -132z" />
    <glyph glyph-name="aacute" unicode="&#xe1;" horiz-adv-x="555" 
d="M190 -8c-92 0 -146 53 -146 152c0 133 119 161 203 164l139 3v83c0 96 -47 115 -151 115c-48 0 -112 -20 -128 -25l-12 46c13 8 83 29 162 29c108 0 183 -37 183 -140v-320c0 -47 30 -57 52 -60l-5 -45h-8c-40 0 -85 21 -90 72c-22 -14 -78 -74 -199 -74zM207 39
c77 0 172 64 179 71v157l-144 -6c-96 -4 -144 -50 -144 -110c0 -84 41 -112 109 -112zM210 623l-26 39l175 130l32 -44z" />
    <glyph glyph-name="acircumflex" unicode="&#xe2;" horiz-adv-x="555" 
d="M190 -8c-92 0 -146 53 -146 152c0 133 119 161 203 164l139 3v83c0 96 -47 115 -151 115c-48 0 -112 -20 -128 -25l-12 46c13 8 83 29 162 29c108 0 183 -37 183 -140v-320c0 -47 30 -57 52 -60l-5 -45h-8c-40 0 -85 21 -90 72c-22 -14 -78 -74 -199 -74zM207 39
c77 0 172 64 179 71v157l-144 -6c-96 -4 -144 -50 -144 -110c0 -84 41 -112 109 -112zM413 632l-153 84l-153 -82l-23 37l176 105l174 -107z" />
    <glyph glyph-name="atilde" unicode="&#xe3;" horiz-adv-x="555" 
d="M190 -8c-92 0 -146 53 -146 152c0 133 119 161 203 164l139 3v83c0 96 -47 115 -151 115c-48 0 -112 -20 -128 -25l-12 46c13 8 83 29 162 29c108 0 183 -37 183 -140v-320c0 -47 30 -57 52 -60l-5 -45h-8c-40 0 -85 21 -90 72c-22 -14 -78 -74 -199 -74zM207 39
c77 0 172 64 179 71v157l-144 -6c-96 -4 -144 -50 -144 -110c0 -84 41 -112 109 -112zM327 648c-45 0 -78 37 -123 37c-35 0 -47 -8 -68 -24l-23 38c7 5 35 35 95 35c50 0 82 -36 123 -36c35 0 59 21 66 28l24 -36c-5 -7 -40 -42 -94 -42z" />
    <glyph glyph-name="adieresis" unicode="&#xe4;" horiz-adv-x="555" 
d="M190 -8c-92 0 -146 53 -146 152c0 133 119 161 203 164l139 3v83c0 96 -47 115 -151 115c-48 0 -112 -20 -128 -25l-12 46c13 8 83 29 162 29c108 0 183 -37 183 -140v-320c0 -47 30 -57 52 -60l-5 -45h-8c-40 0 -85 21 -90 72c-22 -14 -78 -74 -199 -74zM207 39
c77 0 172 64 179 71v157l-144 -6c-96 -4 -144 -50 -144 -110c0 -84 41 -112 109 -112zM159 669l-46 47l46 46l46 -46zM363 669l-46 47l46 46l47 -46z" />
    <glyph glyph-name="aring" unicode="&#xe5;" horiz-adv-x="555" 
d="M190 -8c-92 0 -146 53 -146 152c0 133 119 161 203 164l139 3v83c0 96 -47 115 -151 115c-48 0 -112 -20 -128 -25l-12 46c13 8 83 29 162 29c108 0 183 -37 183 -140v-320c0 -47 30 -57 52 -60l-5 -45h-8c-40 0 -85 21 -90 72c-22 -14 -78 -74 -199 -74zM207 39
c77 0 172 64 179 71v157l-144 -6c-96 -4 -144 -50 -144 -110c0 -84 41 -112 109 -112zM279 611c-60 0 -112 32 -112 101c0 67 53 104 110 104c50 0 111 -27 111 -102c0 -64 -46 -103 -109 -103zM278 648c40 0 67 25 67 65s-33 66 -68 66c-39 0 -67 -24 -67 -64
s29 -67 68 -67z" />
    <glyph glyph-name="ae" unicode="&#xe6;" horiz-adv-x="849" 
d="M631 -9c-100 0 -171 30 -214 98c-27 -19 -122 -97 -226 -97c-92 0 -146 53 -146 152c0 132 119 161 203 164l138 3v83c0 101 -45 117 -150 117c-49 0 -113 -21 -128 -24l-12 43c13 8 83 29 162 29s148 -17 174 -88c43 63 108 88 185 88c117 0 182 -82 182 -257v-23
l-361 -15c5 -193 92 -222 217 -222c40 0 114 17 128 20l11 -48c-23 -11 -79 -23 -163 -23zM208 40c52 0 159 61 193 87c-11 35 -17 86 -18 137l-137 -4c-101 -3 -149 -50 -149 -109c0 -91 48 -111 111 -111zM440 312l301 15c0 112 -45 189 -136 189
c-80 0 -157 -56 -165 -204z" />
    <glyph glyph-name="ccedilla" unicode="&#xe7;" horiz-adv-x="487" 
d="M327 -9c-184 0 -267 84 -267 281c0 179 96 288 244 288c73 0 118 -16 142 -29l-19 -47c-25 11 -64 28 -127 28c-113 0 -183 -91 -183 -236c0 -160 54 -234 218 -234c43 0 87 11 102 14l10 -47c-11 -3 -65 -18 -120 -18zM257 -229l-18 31c47 29 54 55 54 79
c0 21 -11 43 -26 68h62c12 -19 20 -40 20 -63c0 -36 -10 -80 -92 -115z" />
    <glyph glyph-name="egrave" unicode="&#xe8;" horiz-adv-x="529" 
d="M308 -12c-153 0 -248 68 -248 275c0 220 104 297 234 297c125 0 185 -85 185 -272v-20h-362c5 -197 93 -229 215 -229c41 0 112 17 129 23l11 -48c-9 -3 -68 -26 -164 -26zM117 314h303c0 123 -43 203 -138 203c-89 0 -154 -67 -165 -203zM341 623l-180 125l31 45
l176 -132z" />
    <glyph glyph-name="eacute" unicode="&#xe9;" horiz-adv-x="529" 
d="M308 -12c-153 0 -248 68 -248 275c0 220 104 297 234 297c125 0 185 -85 185 -272v-20h-362c5 -197 93 -229 215 -229c41 0 112 17 129 23l11 -48c-9 -3 -68 -26 -164 -26zM117 314h303c0 123 -43 203 -138 203c-89 0 -154 -67 -165 -203zM227 623l-26 39l175 130l32 -44
z" />
    <glyph glyph-name="ecircumflex" unicode="&#xea;" horiz-adv-x="529" 
d="M308 -12c-153 0 -248 68 -248 275c0 220 104 297 234 297c125 0 185 -85 185 -272v-20h-362c5 -197 93 -229 215 -229c41 0 112 17 129 23l11 -48c-9 -3 -68 -26 -164 -26zM117 314h303c0 123 -43 203 -138 203c-89 0 -154 -67 -165 -203zM431 632l-153 84l-153 -82
l-23 37l176 105l174 -107z" />
    <glyph glyph-name="edieresis" unicode="&#xeb;" horiz-adv-x="529" 
d="M308 -12c-153 0 -248 68 -248 275c0 220 104 297 234 297c125 0 185 -85 185 -272v-20h-362c5 -197 93 -229 215 -229c41 0 112 17 129 23l11 -48c-9 -3 -68 -26 -164 -26zM117 314h303c0 123 -43 203 -138 203c-89 0 -154 -67 -165 -203zM173 669l-46 47l46 46l46 -46z
M377 669l-46 47l46 46l47 -46z" />
    <glyph glyph-name="igrave" unicode="&#xec;" horiz-adv-x="257" 
d="M99 0v546h57v-546h-57zM162 623l-180 125l31 45l176 -132z" />
    <glyph glyph-name="iacute" unicode="&#xed;" horiz-adv-x="257" 
d="M99 0v546h57v-546h-57zM78 623l-26 39l175 130l32 -44z" />
    <glyph glyph-name="icircumflex" unicode="&#xee;" horiz-adv-x="257" 
d="M99 0v546h57v-546h-57zM285 632l-153 84l-153 -82l-23 37l176 105l174 -107z" />
    <glyph glyph-name="idieresis" unicode="&#xef;" horiz-adv-x="257" 
d="M99 0v546h57v-546h-57zM25 669l-46 47l46 46l46 -46zM229 669l-46 47l46 46l47 -46z" />
    <glyph glyph-name="eth" unicode="&#xf0;" horiz-adv-x="593" 
d="M295 -8c-144 0 -235 94 -235 275c0 191 103 281 241 281c52 0 95 -16 130 -41c-28 61 -65 106 -104 141l-103 -68l-27 36l93 62c-35 25 -64 41 -87 52l33 39c23 -12 61 -29 102 -60l105 70l26 -36l-94 -63c79 -69 158 -188 158 -395c0 -172 -73 -293 -238 -293zM300 39
c140 0 177 119 177 231c0 115 -37 231 -179 231c-144 0 -181 -121 -181 -229c0 -120 43 -233 183 -233z" />
    <glyph glyph-name="ntilde" unicode="&#xf1;" horiz-adv-x="607" 
d="M100 0v546h55v-64c56 37 111 78 194 78c158 0 166 -120 166 -205v-355h-53v339c0 100 -12 171 -124 171c-67 0 -135 -49 -183 -78v-432h-55zM373 648c-45 0 -78 37 -123 37c-35 0 -47 -8 -68 -24l-23 38c7 5 35 35 95 35c50 0 82 -36 123 -36c35 0 59 21 66 28l24 -36
c-5 -7 -40 -42 -94 -42z" />
    <glyph glyph-name="ograve" unicode="&#xf2;" horiz-adv-x="593" 
d="M295 -12c-144 0 -235 98 -235 279c0 191 103 293 241 293c155 0 232 -102 232 -287c0 -193 -102 -285 -238 -285zM300 35c142 0 177 126 177 238c0 104 -33 240 -179 240c-144 0 -181 -134 -181 -241c0 -119 43 -237 183 -237zM363 623l-180 125l31 45l176 -132z" />
    <glyph glyph-name="oacute" unicode="&#xf3;" horiz-adv-x="593" 
d="M295 -12c-144 0 -235 98 -235 279c0 191 103 293 241 293c155 0 232 -102 232 -287c0 -193 -102 -285 -238 -285zM300 35c142 0 177 126 177 238c0 104 -33 240 -179 240c-144 0 -181 -134 -181 -241c0 -119 43 -237 183 -237zM235 623l-26 39l175 130l32 -44z" />
    <glyph glyph-name="ocircumflex" unicode="&#xf4;" horiz-adv-x="593" 
d="M295 -12c-144 0 -235 98 -235 279c0 191 103 293 241 293c155 0 232 -102 232 -287c0 -193 -102 -285 -238 -285zM300 35c142 0 177 126 177 238c0 104 -33 240 -179 240c-144 0 -181 -134 -181 -241c0 -119 43 -237 183 -237zM452 632l-153 84l-153 -82l-23 37l176 105
l174 -107z" />
    <glyph glyph-name="otilde" unicode="&#xf5;" horiz-adv-x="593" 
d="M295 -12c-144 0 -235 98 -235 279c0 191 103 293 241 293c155 0 232 -102 232 -287c0 -193 -102 -285 -238 -285zM300 35c142 0 177 126 177 238c0 104 -33 240 -179 240c-144 0 -181 -134 -181 -241c0 -119 43 -237 183 -237zM356 648c-45 0 -78 37 -123 37
c-35 0 -47 -8 -68 -24l-23 38c7 5 35 35 95 35c50 0 82 -36 123 -36c35 0 59 21 66 28l24 -36c-5 -7 -40 -42 -94 -42z" />
    <glyph glyph-name="odieresis" unicode="&#xf6;" horiz-adv-x="593" 
d="M295 -12c-144 0 -235 98 -235 279c0 191 103 293 241 293c155 0 232 -102 232 -287c0 -193 -102 -285 -238 -285zM300 35c142 0 177 126 177 238c0 104 -33 240 -179 240c-144 0 -181 -134 -181 -241c0 -119 43 -237 183 -237zM193 669l-46 47l46 46l46 -46zM397 669
l-46 47l46 46l47 -46z" />
    <glyph glyph-name="divide" unicode="&#xf7;" 
d="M261 74v65h64v-65h-64zM47 277v50h505v-50h-505zM261 469v66h64v-66h-64z" />
    <glyph glyph-name="oslash" unicode="&#xf8;" horiz-adv-x="593" 
d="M68 -33l-31 30l71 85c-31 45 -48 106 -48 185c0 191 103 291 241 291c66 0 119 -19 158 -57l60 72l32 -29l-64 -77c31 -48 46 -113 46 -194c0 -192 -102 -281 -238 -281c-65 0 -118 19 -159 56zM300 39c142 0 177 121 177 234c0 48 -7 103 -30 147l-276 -330
c29 -31 69 -51 129 -51zM146 128l277 330c-28 32 -68 53 -125 53c-144 0 -181 -132 -181 -239c0 -52 8 -103 29 -144z" />
    <glyph glyph-name="ugrave" unicode="&#xf9;" horiz-adv-x="603" 
d="M254 -12c-149 0 -159 122 -159 207v351h55v-334c0 -89 2 -171 114 -171c74 0 166 63 189 78v427h52v-546h-52v66c-45 -27 -108 -78 -199 -78zM348 623l-180 125l31 45l176 -132z" />
    <glyph glyph-name="uacute" unicode="&#xfa;" horiz-adv-x="603" 
d="M254 -12c-149 0 -159 122 -159 207v351h55v-334c0 -89 2 -171 114 -171c74 0 166 63 189 78v427h52v-546h-52v66c-45 -27 -108 -78 -199 -78zM260 623l-26 39l175 130l32 -44z" />
    <glyph glyph-name="ucircumflex" unicode="&#xfb;" horiz-adv-x="603" 
d="M254 -12c-149 0 -159 122 -159 207v351h55v-334c0 -89 2 -171 114 -171c74 0 166 63 189 78v427h52v-546h-52v66c-45 -27 -108 -78 -199 -78zM460 632l-153 84l-153 -82l-23 37l176 105l174 -107z" />
    <glyph glyph-name="udieresis" unicode="&#xfc;" horiz-adv-x="603" 
d="M254 -12c-149 0 -159 122 -159 207v351h55v-334c0 -89 2 -171 114 -171c74 0 166 63 189 78v427h52v-546h-52v66c-45 -27 -108 -78 -199 -78zM198 669l-46 47l46 46l46 -46zM402 669l-46 47l46 46l47 -46z" />
    <glyph glyph-name="yacute" unicode="&#xfd;" horiz-adv-x="491" 
d="M149 -220l75 220h-31l-173 546h61l125 -408l32 -100l34 98l141 410h58l-267 -766h-55zM198 623l-26 39l175 130l32 -44z" />
    <glyph glyph-name="thorn" unicode="&#xfe;" horiz-adv-x="589" 
d="M100 -220v974h53v-254c40 27 98 54 159 54c139 0 217 -103 217 -267c0 -228 -120 -297 -251 -297c-53 0 -96 4 -125 9v-219h-53zM281 39c128 0 189 96 189 224c0 119 -23 242 -166 242c-60 0 -135 -45 -151 -58v-396c27 -3 54 -12 128 -12z" />
    <glyph glyph-name="ydieresis" unicode="&#xff;" horiz-adv-x="491" 
d="M149 -220l75 220h-31l-173 546h61l125 -408l32 -100l34 98l141 410h58l-267 -766h-55zM136 669l-46 47l46 46l46 -46zM340 669l-46 47l46 46l47 -46z" />
    <glyph glyph-name="Amacron" unicode="&#x100;" horiz-adv-x="650" 
d="M14 0l284 707h82l260 -707h-64l-101 279h-290l-112 -279h-59zM205 330h252l-120 331zM192 791v48h291v-48h-291z" />
    <glyph glyph-name="amacron" unicode="&#x101;" horiz-adv-x="555" 
d="M190 -8c-92 0 -146 53 -146 152c0 133 119 161 203 164l139 3v83c0 96 -47 115 -151 115c-48 0 -112 -20 -128 -25l-12 46c13 8 83 29 162 29c108 0 183 -37 183 -140v-320c0 -47 30 -57 52 -60l-5 -45h-8c-40 0 -85 21 -90 72c-22 -14 -78 -74 -199 -74zM207 39
c77 0 172 64 179 71v157l-144 -6c-96 -4 -144 -50 -144 -110c0 -84 41 -112 109 -112zM129 675v48h291v-48h-291z" />
    <glyph glyph-name="Abreve" unicode="&#x102;" horiz-adv-x="650" 
d="M14 0l284 707h82l260 -707h-64l-101 279h-290l-112 -279h-59zM205 330h252l-120 331zM334 753c-106 0 -147 66 -156 78l32 29c6 -9 49 -59 127 -59c77 0 117 46 126 58l31 -26c-5 -8 -44 -80 -160 -80z" />
    <glyph glyph-name="abreve" unicode="&#x103;" horiz-adv-x="555" 
d="M190 -8c-92 0 -146 53 -146 152c0 133 119 161 203 164l139 3v83c0 96 -47 115 -151 115c-48 0 -112 -20 -128 -25l-12 46c13 8 83 29 162 29c108 0 183 -37 183 -140v-320c0 -47 30 -57 52 -60l-5 -45h-8c-40 0 -85 21 -90 72c-22 -14 -78 -74 -199 -74zM207 39
c77 0 172 64 179 71v157l-144 -6c-96 -4 -144 -50 -144 -110c0 -84 41 -112 109 -112zM271 652c-106 0 -147 66 -156 78l32 29c6 -9 49 -59 127 -59c77 0 117 46 126 58l31 -26c-5 -8 -44 -80 -160 -80z" />
    <glyph glyph-name="Aogonek" unicode="&#x104;" horiz-adv-x="650" 
d="M644 -160l15 -44c-9 -6 -19 -13 -71 -13c-88 0 -108 49 -108 100s49 94 93 124l-98 272h-290l-112 -279h-59l284 707h82l260 -707c-34 -21 -104 -71 -104 -114c0 -44 27 -54 70 -54c21 0 35 5 38 8zM457 330l-70 193l-50 138l-56 -141l-76 -190h252z" />
    <glyph glyph-name="aogonek" unicode="&#x105;" horiz-adv-x="555" 
d="M499 -160l15 -44c-9 -6 -19 -13 -71 -13c-88 0 -108 49 -108 100s49 94 93 124c-21 11 -36 32 -39 59c-22 -14 -78 -74 -199 -74c-92 0 -146 53 -146 152c0 133 119 161 203 164l139 3v83c0 96 -47 115 -151 115c-48 0 -112 -20 -128 -25l-12 46c13 8 83 29 162 29
c108 0 183 -37 183 -140v-320c0 -39 20 -57 52 -60l-4 -39c-31 -23 -97 -72 -97 -114c0 -44 27 -54 70 -54c21 0 35 5 38 8zM386 110v157l-144 -6c-96 -4 -144 -50 -144 -110c0 -84 41 -112 109 -112c77 0 172 64 179 71z" />
    <glyph glyph-name="Cacute" unicode="&#x106;" horiz-adv-x="639" 
d="M419 -12c-228 0 -359 156 -359 361c0 217 131 368 355 368c134 0 194 -31 200 -34l-17 -51c-19 5 -77 31 -181 31c-153 0 -295 -83 -295 -304c0 -228 147 -319 315 -319c65 0 131 16 166 27l16 -49c-16 -8 -74 -30 -200 -30zM334 748l-17 41l207 83l22 -55z" />
    <glyph glyph-name="cacute" unicode="&#x107;" horiz-adv-x="487" 
d="M327 -9c-184 0 -267 84 -267 281c0 179 96 288 244 288c73 0 118 -16 142 -29l-19 -47c-25 11 -64 28 -127 28c-113 0 -183 -91 -183 -236c0 -160 54 -234 218 -234c43 0 87 11 102 14l10 -47c-11 -3 -65 -18 -120 -18zM237 623l-26 39l175 130l32 -44z" />
    <glyph glyph-name="Ccircumflex" unicode="&#x108;" horiz-adv-x="639" 
d="M419 -12c-228 0 -359 156 -359 361c0 217 131 368 355 368c134 0 194 -31 200 -34l-17 -51c-19 5 -77 31 -181 31c-153 0 -295 -83 -295 -304c0 -228 147 -319 315 -319c65 0 131 16 166 27l16 -49c-16 -8 -74 -30 -200 -30zM265 743l-20 42l178 73l166 -73l-19 -42
l-148 61z" />
    <glyph glyph-name="ccircumflex" unicode="&#x109;" horiz-adv-x="487" 
d="M327 -9c-184 0 -267 84 -267 281c0 179 96 288 244 288c73 0 118 -16 142 -29l-19 -47c-25 11 -64 28 -127 28c-113 0 -183 -91 -183 -236c0 -160 54 -234 218 -234c43 0 87 11 102 14l10 -47c-11 -3 -65 -18 -120 -18zM453 632l-153 84l-153 -82l-23 37l176 105
l174 -107z" />
    <glyph glyph-name="Cdotaccent" unicode="&#x10a;" horiz-adv-x="639" 
d="M419 -12c-228 0 -359 156 -359 361c0 217 131 368 355 368c134 0 194 -31 200 -34l-17 -51c-19 5 -77 31 -181 31c-153 0 -295 -83 -295 -304c0 -228 147 -319 315 -319c65 0 131 16 166 27l16 -49c-16 -8 -74 -30 -200 -30zM471 817l-55 -55l-53 55l53 54z" />
    <glyph glyph-name="cdotaccent" unicode="&#x10b;" horiz-adv-x="487" 
d="M327 -9c-184 0 -267 84 -267 281c0 179 96 288 244 288c73 0 118 -16 142 -29l-19 -47c-25 11 -64 28 -127 28c-113 0 -183 -91 -183 -236c0 -160 54 -234 218 -234c43 0 87 11 102 14l10 -47c-11 -3 -65 -18 -120 -18zM304 661l-53 55l53 54l55 -54z" />
    <glyph glyph-name="Ccaron" unicode="&#x10c;" horiz-adv-x="639" 
d="M419 -12c-228 0 -359 156 -359 361c0 217 131 368 355 368c134 0 194 -31 200 -34l-17 -51c-19 5 -77 31 -181 31c-153 0 -295 -83 -295 -304c0 -228 147 -319 315 -319c65 0 131 16 166 27l16 -49c-16 -8 -74 -30 -200 -30zM594 820l-175 -72l-168 74l19 42l150 -62
l154 60z" />
    <glyph glyph-name="ccaron" unicode="&#x10d;" horiz-adv-x="487" 
d="M327 -9c-184 0 -267 84 -267 281c0 179 96 288 244 288c73 0 118 -16 142 -29l-19 -47c-25 11 -64 28 -127 28c-113 0 -183 -91 -183 -236c0 -160 54 -234 218 -234c43 0 87 11 102 14l10 -47c-11 -3 -65 -18 -120 -18zM294 630l-172 106l22 35l149 -81l154 82l22 -35z
" />
    <glyph glyph-name="Dcaron" unicode="&#x10e;" horiz-adv-x="740" 
d="M120 0v707h173c224 0 387 -124 387 -351c0 -249 -150 -356 -381 -356h-179zM178 51h132c189 0 312 98 312 294c0 213 -137 311 -332 311h-112v-605zM494 820l-175 -72l-168 74l19 42l150 -62l154 60z" />
    <glyph glyph-name="dcaron" unicode="&#x10f;" horiz-adv-x="620" 
d="M284 -10c-96 0 -224 35 -224 278c0 192 114 292 249 292c56 0 74 -2 118 -16v210h55v-754h-55v56c-33 -32 -86 -66 -143 -66zM283 38c60 0 123 53 144 72v383c-28 11 -59 20 -119 20c-140 0 -191 -128 -191 -248c0 -156 66 -227 166 -227zM624 754l-38 -198h-43l21 198
h60z" />
    <glyph glyph-name="Dcroat" unicode="&#x110;" horiz-adv-x="749" 
d="M680 356c0 -249 -150 -356 -381 -356h-179v326h-82v53h82v328h173c224 0 387 -124 387 -351zM622 345c0 213 -137 311 -332 311h-112v-277h177v-53h-177v-275h132c189 0 312 98 312 294z" />
    <glyph glyph-name="dcroat" unicode="&#x111;" horiz-adv-x="582" 
d="M482 0h-55v56c-33 -32 -86 -64 -143 -64c-96 0 -224 33 -224 276c0 192 114 290 249 290c56 0 74 -2 118 -16v83h-157v43h157v86h55v-86h79v-43h-79v-625zM427 110v381c-28 11 -59 20 -119 20c-140 0 -191 -126 -191 -246c0 -155 66 -225 166 -225c60 0 123 51 144 70z
" />
    <glyph glyph-name="Emacron" unicode="&#x112;" horiz-adv-x="571" 
d="M120 0v707h378v-49h-319v-277h297v-52h-297v-278h342v-51h-401zM161 791v48h291v-48h-291z" />
    <glyph glyph-name="emacron" unicode="&#x113;" horiz-adv-x="529" 
d="M308 -12c-153 0 -248 68 -248 275c0 220 104 297 234 297c125 0 185 -85 185 -272v-20h-362c5 -197 93 -229 215 -229c41 0 112 17 129 23l11 -48c-9 -3 -68 -26 -164 -26zM117 314h303c0 123 -43 203 -138 203c-89 0 -154 -67 -165 -203zM134 675v48h291v-48h-291z" />
    <glyph glyph-name="Ebreve" unicode="&#x114;" horiz-adv-x="571" 
d="M120 0v707h378v-49h-319v-277h297v-52h-297v-278h342v-51h-401zM307 753c-106 0 -147 66 -156 78l32 29c6 -9 49 -59 127 -59c77 0 117 46 126 58l31 -26c-5 -8 -44 -80 -160 -80z" />
    <glyph glyph-name="ebreve" unicode="&#x115;" horiz-adv-x="529" 
d="M308 -12c-153 0 -248 68 -248 275c0 220 104 297 234 297c125 0 185 -85 185 -272v-20h-362c5 -197 93 -229 215 -229c41 0 112 17 129 23l11 -48c-9 -3 -68 -26 -164 -26zM117 314h303c0 123 -43 203 -138 203c-89 0 -154 -67 -165 -203zM282 652
c-106 0 -147 66 -156 78l32 29c6 -9 49 -59 127 -59c77 0 117 46 126 58l31 -26c-5 -8 -44 -80 -160 -80z" />
    <glyph glyph-name="Edotaccent" unicode="&#x116;" horiz-adv-x="571" 
d="M120 0v707h378v-49h-319v-277h297v-52h-297v-278h342v-51h-401zM374 817l-55 -55l-53 55l53 54z" />
    <glyph glyph-name="edotaccent" unicode="&#x117;" horiz-adv-x="529" 
d="M308 -12c-153 0 -248 68 -248 275c0 220 104 297 234 297c125 0 185 -85 185 -272v-20h-362c5 -197 93 -229 215 -229c41 0 112 17 129 23l11 -48c-9 -3 -68 -26 -164 -26zM117 314h303c0 123 -43 203 -138 203c-89 0 -154 -67 -165 -203zM288 661l-53 55l53 54l55 -54z
" />
    <glyph glyph-name="Eogonek" unicode="&#x118;" horiz-adv-x="571" 
d="M526 -160l15 -44c-9 -6 -19 -13 -71 -13c-88 0 -108 49 -108 100c0 47 42 88 82 117h-324v707h378v-49h-319v-277h297v-52h-297v-278h342v-51c-36 -22 -103 -72 -103 -114c0 -44 27 -54 70 -54c21 0 35 5 38 8z" />
    <glyph glyph-name="eogonek" unicode="&#x119;" horiz-adv-x="529" 
d="M399 -217c-88 0 -108 49 -108 100c0 44 34 82 73 111c-17 -2 -35 -3 -56 -3c-153 0 -248 65 -248 272c0 220 104 296 234 296c125 0 185 -84 185 -271v-20h-362c5 -197 93 -226 215 -226c41 0 112 14 129 20l11 -48c-17 -11 -125 -72 -125 -128c0 -44 27 -54 70 -54
c21 0 35 5 38 8l15 -44c-9 -6 -19 -13 -71 -13zM117 314h303c0 123 -43 202 -138 202c-89 0 -154 -66 -165 -202z" />
    <glyph glyph-name="Ecaron" unicode="&#x11a;" horiz-adv-x="571" 
d="M120 0v707h378v-49h-319v-277h297v-52h-297v-278h342v-51h-401zM475 820l-175 -72l-168 74l19 42l150 -62l154 60z" />
    <glyph glyph-name="ecaron" unicode="&#x11b;" horiz-adv-x="529" 
d="M308 -12c-153 0 -248 68 -248 275c0 220 104 297 234 297c125 0 185 -85 185 -272v-20h-362c5 -197 93 -229 215 -229c41 0 112 17 129 23l11 -48c-9 -3 -68 -26 -164 -26zM117 314h303c0 123 -43 203 -138 203c-89 0 -154 -67 -165 -203zM284 630l-172 106l22 35
l149 -81l154 82l22 -35z" />
    <glyph glyph-name="Gcircumflex" unicode="&#x11c;" horiz-adv-x="698" 
d="M419 -12c-232 0 -359 161 -359 361c0 213 128 368 353 368c132 0 180 -26 202 -34l-18 -52c-28 11 -74 32 -181 32c-153 0 -294 -84 -294 -304c0 -225 145 -319 315 -319c63 0 103 10 132 17v290h59v-330c-56 -16 -110 -29 -209 -29zM274 743l-20 42l178 73l166 -73
l-19 -42l-148 61z" />
    <glyph glyph-name="gcircumflex" unicode="&#x11d;" horiz-adv-x="585" 
d="M271 -230c-80 0 -150 14 -164 17l11 52c12 -2 93 -18 137 -18c96 0 172 19 172 154v69c-35 -32 -74 -52 -134 -52c-110 0 -231 36 -231 279c0 197 112 289 248 289c68 0 123 -10 171 -19v-583c0 -127 -77 -188 -210 -188zM297 41c64 0 107 40 129 59v400
c-29 5 -58 12 -117 12c-142 0 -192 -112 -192 -244c0 -161 59 -227 180 -227zM469 632l-153 84l-153 -82l-23 37l176 105l174 -107z" />
    <glyph glyph-name="Gbreve" unicode="&#x11e;" horiz-adv-x="698" 
d="M419 -12c-232 0 -359 161 -359 361c0 213 128 368 353 368c132 0 180 -26 202 -34l-18 -52c-28 11 -74 32 -181 32c-153 0 -294 -84 -294 -304c0 -225 145 -319 315 -319c63 0 103 10 132 17v290h59v-330c-56 -16 -110 -29 -209 -29zM408 753c-106 0 -147 66 -156 78
l32 29c6 -9 49 -59 127 -59c77 0 117 46 126 58l31 -26c-5 -8 -44 -80 -160 -80z" />
    <glyph glyph-name="gbreve" unicode="&#x11f;" horiz-adv-x="585" 
d="M271 -230c-80 0 -150 14 -164 17l11 52c12 -2 93 -18 137 -18c96 0 172 19 172 154v69c-35 -32 -74 -52 -134 -52c-110 0 -231 36 -231 279c0 197 112 289 248 289c68 0 123 -10 171 -19v-583c0 -127 -77 -188 -210 -188zM297 41c64 0 107 40 129 59v400
c-29 5 -58 12 -117 12c-142 0 -192 -112 -192 -244c0 -161 59 -227 180 -227zM310 652c-106 0 -147 66 -156 78l32 29c6 -9 49 -59 127 -59c77 0 117 46 126 58l31 -26c-5 -8 -44 -80 -160 -80z" />
    <glyph glyph-name="Gdotaccent" unicode="&#x120;" horiz-adv-x="698" 
d="M419 -12c-232 0 -359 161 -359 361c0 213 128 368 353 368c132 0 180 -26 202 -34l-18 -52c-28 11 -74 32 -181 32c-153 0 -294 -84 -294 -304c0 -225 145 -319 315 -319c63 0 103 10 132 17v290h59v-330c-56 -16 -110 -29 -209 -29zM472 817l-55 -55l-53 55l53 54z" />
    <glyph glyph-name="gdotaccent" unicode="&#x121;" horiz-adv-x="585" 
d="M271 -230c-80 0 -150 14 -164 17l11 52c12 -2 93 -18 137 -18c96 0 172 19 172 154v69c-35 -32 -74 -52 -134 -52c-110 0 -231 36 -231 279c0 197 112 289 248 289c68 0 123 -10 171 -19v-583c0 -127 -77 -188 -210 -188zM297 41c64 0 107 40 129 59v400
c-29 5 -58 12 -117 12c-142 0 -192 -112 -192 -244c0 -161 59 -227 180 -227zM320 661l-53 55l53 54l55 -54z" />
    <glyph glyph-name="Gcommaaccent" unicode="&#x122;" horiz-adv-x="698" 
d="M419 -12c-232 0 -359 161 -359 361c0 213 128 368 353 368c132 0 180 -26 202 -34l-18 -52c-28 11 -74 32 -181 32c-153 0 -294 -84 -294 -304c0 -225 145 -319 315 -319c63 0 103 10 132 17v290h59v-330c-56 -16 -110 -29 -209 -29zM447 -58l-38 -198h-43l21 198h60z
" />
    <glyph glyph-name="gcommaaccent" unicode="&#x123;" horiz-adv-x="585" 
d="M276 608l38 198h43l-21 -198h-60zM271 -230c-80 0 -150 14 -164 17l11 52c12 -2 93 -18 137 -18c96 0 172 19 172 154v69c-35 -32 -74 -52 -134 -52c-110 0 -231 36 -231 279c0 197 112 289 248 289c68 0 123 -10 171 -19v-583c0 -127 -77 -188 -210 -188zM297 41
c64 0 107 40 129 59v400c-29 5 -58 12 -117 12c-142 0 -192 -112 -192 -244c0 -161 59 -227 180 -227z" />
    <glyph glyph-name="Hcircumflex" unicode="&#x124;" horiz-adv-x="769" 
d="M120 0v707h59v-326h411v326h59v-707h-59v329h-411v-329h-59zM224 743l-20 42l178 73l166 -73l-19 -42l-148 61z" />
    <glyph glyph-name="hcircumflex" unicode="&#x125;" horiz-adv-x="606" 
d="M100 0v754h55v-272c39 28 107 77 194 77c157 0 164 -119 164 -204v-355h-51v339c0 100 -12 170 -124 170c-67 0 -160 -62 -183 -77v-432h-55zM-25 743l-20 42l178 73l166 -73l-19 -42l-148 61z" />
    <glyph glyph-name="Hbar" unicode="&#x126;" horiz-adv-x="769" 
d="M120 0v511h-84v48h84v148h59v-148h411v148h59v-148h82v-48h-82v-511h-59v329h-411v-329h-59zM179 381h411v130h-411v-130z" />
    <glyph glyph-name="hbar" unicode="&#x127;" horiz-adv-x="606" 
d="M100 0v625h-71v43h71v86h55v-86h165v-43h-165v-143c39 29 99 76 194 76c157 0 164 -117 164 -203v-355h-51v339c0 100 -12 169 -124 169c-67 0 -160 -61 -183 -76v-432h-55z" />
    <glyph glyph-name="Itilde" unicode="&#x128;" horiz-adv-x="299" 
d="M120 0v707h59v-707h-59zM209 754c-45 0 -78 37 -123 37c-35 0 -48 -9 -69 -24l-22 38c7 5 35 35 95 35c50 0 82 -36 123 -36c35 0 59 21 66 28l24 -36c-5 -8 -41 -42 -94 -42z" />
    <glyph glyph-name="itilde" unicode="&#x129;" horiz-adv-x="257" 
d="M99 0v546h57v-546h-57zM188 648c-45 0 -78 37 -123 37c-35 0 -47 -8 -68 -24l-23 38c7 5 35 35 95 35c50 0 82 -36 123 -36c35 0 59 21 66 28l24 -36c-5 -7 -40 -42 -94 -42z" />
    <glyph glyph-name="Imacron" unicode="&#x12a;" horiz-adv-x="299" 
d="M120 0v707h59v-707h-59zM1 791v48h291v-48h-291z" />
    <glyph glyph-name="imacron" unicode="&#x12b;" horiz-adv-x="257" 
d="M99 0v546h57v-546h-57zM-18 675v48h291v-48h-291z" />
    <glyph glyph-name="Ibreve" unicode="&#x12c;" horiz-adv-x="299" 
d="M120 0v707h59v-707h-59zM146 753c-106 0 -147 66 -156 78l32 29c6 -9 49 -59 127 -59c77 0 117 46 126 58l31 -26c-5 -8 -44 -80 -160 -80z" />
    <glyph glyph-name="ibreve" unicode="&#x12d;" horiz-adv-x="257" 
d="M99 0v546h57v-546h-57zM126 652c-106 0 -147 66 -156 78l32 29c6 -9 49 -59 127 -59c77 0 117 46 126 58l31 -26c-5 -8 -44 -80 -160 -80z" />
    <glyph glyph-name="Iogonek" unicode="&#x12e;" horiz-adv-x="299" 
d="M183 -160l15 -44c-9 -6 -19 -13 -71 -13c-88 0 -108 49 -108 100c0 53 56 100 101 129v695h59v-707c-35 -21 -104 -70 -104 -114s27 -54 70 -54c21 0 35 5 38 8z" />
    <glyph glyph-name="iogonek" unicode="&#x12f;" horiz-adv-x="257" 
d="M104 -217c-88 0 -108 49 -108 100c0 56 57 103 103 130v533h57v-546c-35 -21 -104 -70 -104 -114s27 -54 70 -54c21 0 35 5 38 8l15 -44c-9 -6 -19 -13 -71 -13zM125 661l-53 55l53 54l55 -54z" />
    <glyph glyph-name="Idotaccent" unicode="&#x130;" horiz-adv-x="299" 
d="M120 0v707h59v-707h-59zM204 817l-55 -55l-53 55l53 54z" />
    <glyph glyph-name="dotlessi" unicode="&#x131;" horiz-adv-x="257" 
d="M99 0v546h57v-546h-57z" />
    <glyph glyph-name="IJ" unicode="&#x132;" horiz-adv-x="583" 
d="M120 0v707h59v-707h-59zM287 -184l-28 44c121 67 145 158 145 291v556h59v-554c0 -153 -28 -265 -176 -337z" />
    <glyph glyph-name="ij" unicode="&#x133;" horiz-adv-x="525" 
d="M250 -221c-27 0 -44 5 -55 8l9 47c11 -3 35 -6 48 -6c92 0 115 65 115 151v566h57v-567c0 -152 -75 -199 -174 -199zM99 0v546h57v-546h-57zM126 661l-53 55l53 54l55 -54zM393 661l-53 55l53 54l55 -54z" />
    <glyph glyph-name="Jcircumflex" unicode="&#x134;" horiz-adv-x="299" 
d="M3 -184l-28 44c121 67 145 158 145 291v556h59v-554c0 -153 -28 -265 -176 -337zM-3 743l-20 42l178 73l166 -73l-19 -42l-148 61z" />
    <glyph glyph-name="jcircumflex" unicode="&#x135;" horiz-adv-x="257" 
d="M-18 -220c-27 0 -44 5 -55 8l9 47c11 -3 35 -6 48 -6c92 0 115 65 115 151v566h57v-567c0 -152 -75 -199 -174 -199zM280 632l-153 84l-153 -82l-23 37l176 105l174 -107z" />
    <glyph glyph-name="Kcommaaccent" unicode="&#x136;" horiz-adv-x="598" 
d="M518 0l-301 367v19l285 321h74l-295 -326l316 -381h-79zM120 0v707h59v-707h-59zM359 -58l-38 -198h-43l21 198h60z" />
    <glyph glyph-name="kcommaaccent" unicode="&#x137;" horiz-adv-x="539" 
d="M514 34l-16 -41c-23 3 -77 13 -146 100l-157 196l239 257h68l-241 -256l121 -151c53 -67 108 -98 132 -105zM100 0v754h55v-754h-55zM318 -58l-38 -198h-43l21 198h60z" />
    <glyph glyph-name="Lacute" unicode="&#x139;" horiz-adv-x="486" 
d="M120 0v707h59v-653h307v-54h-366zM119 748l-17 41l207 83l22 -55z" />
    <glyph glyph-name="lacute" unicode="&#x13a;" horiz-adv-x="257" 
d="M100 0v754h55v-754h-55zM100 782l-17 41l207 83l22 -55z" />
    <glyph glyph-name="Lcommaaccent" unicode="&#x13b;" horiz-adv-x="486" 
d="M120 0v707h59v-653h307v-54h-366zM344 -58l-38 -198h-43l21 198h60z" />
    <glyph glyph-name="lcommaaccent" unicode="&#x13c;" horiz-adv-x="257" 
d="M100 0v754h55v-754h-55zM161 -58l-38 -198h-43l21 198h60z" />
    <glyph glyph-name="Lcaron" unicode="&#x13d;" horiz-adv-x="486" 
d="M120 0v707h59v-653h307v-54h-366zM367 755l-38 -198h-43l21 198h60z" />
    <glyph glyph-name="lcaron" unicode="&#x13e;" horiz-adv-x="257" 
d="M100 0v754h55v-754h-55zM298 753l-38 -198h-43l21 198h60z" />
    <glyph glyph-name="Ldot" unicode="&#x13f;" horiz-adv-x="486" 
d="M120 0v707h59v-653h307v-54h-366zM383 313l-53 55l53 54l55 -54z" />
    <glyph glyph-name="ldot" unicode="&#x140;" horiz-adv-x="274" 
d="M100 0v754h55v-754h-55zM259 293l-53 55l53 54l55 -54z" />
    <glyph glyph-name="Lslash" unicode="&#x141;" horiz-adv-x="486" 
d="M486 0h-366v324l-76 -44l-2 51l78 45v331h59v-297l135 77v-52l-135 -77v-304h307v-54z" />
    <glyph glyph-name="lslash" unicode="&#x142;" horiz-adv-x="253" 
d="M242 421l-89 -51v-370h-53v340l-79 -45v51l79 45v363h53v-332l89 51v-52z" />
    <glyph glyph-name="Nacute" unicode="&#x143;" horiz-adv-x="778" 
d="M120 0v707h97l383 -678l-3 91v587h61v-707h-109l-374 669l4 -67v-602h-59zM333 748l-17 41l207 83l22 -55z" />
    <glyph glyph-name="nacute" unicode="&#x144;" horiz-adv-x="607" 
d="M100 0v546h55v-64c56 37 111 78 194 78c158 0 166 -120 166 -205v-355h-53v339c0 100 -12 171 -124 171c-67 0 -135 -49 -183 -78v-432h-55zM262 623l-26 39l175 130l32 -44z" />
    <glyph glyph-name="Ncommaaccent" unicode="&#x145;" horiz-adv-x="778" 
d="M120 0v707h97l383 -678l-3 91v587h61v-707h-109l-374 669l4 -67v-602h-59zM426 -58l-38 -198h-43l21 198h60z" />
    <glyph glyph-name="ncommaaccent" unicode="&#x146;" horiz-adv-x="607" 
d="M100 0v546h55v-64c56 37 111 78 194 78c158 0 166 -120 166 -205v-355h-53v339c0 100 -12 171 -124 171c-67 0 -135 -49 -183 -78v-432h-55zM352 -58l-38 -198h-43l21 198h60z" />
    <glyph glyph-name="Ncaron" unicode="&#x147;" horiz-adv-x="778" 
d="M120 0v707h97l383 -678l-3 91v587h61v-707h-109l-374 669l4 -67v-602h-59zM559 820l-175 -72l-168 74l19 42l150 -62l154 60z" />
    <glyph glyph-name="ncaron" unicode="&#x148;" horiz-adv-x="607" 
d="M100 0v546h55v-64c56 37 111 78 194 78c158 0 166 -120 166 -205v-355h-53v339c0 100 -12 171 -124 171c-67 0 -135 -49 -183 -78v-432h-55zM302 630l-172 106l22 35l149 -81l154 82l22 -35z" />
    <glyph glyph-name="napostrophe" unicode="&#x149;" horiz-adv-x="647" 
d="M140 0v546h55v-64c56 37 111 78 194 78c158 0 166 -120 166 -205v-355h-53v339c0 100 -12 171 -124 171c-67 0 -135 -49 -183 -78v-432h-55zM76 572h-48c9 24 26 76 26 120v63h56v-24c0 -81 -15 -123 -34 -159z" />
    <glyph glyph-name="Eng" unicode="&#x14a;" horiz-adv-x="778" 
d="M485 -220c-27 0 -44 5 -55 8l9 47c11 -3 35 -6 48 -6c92 0 116 65 116 151v20h-54l-374 669l4 -67v-602h-59v707h97l383 -678l-3 91v587h61v-728c0 -152 -74 -199 -173 -199z" />
    <glyph glyph-name="eng" unicode="&#x14b;" horiz-adv-x="607" 
d="M515 355v-376c0 -152 -74 -199 -173 -199c-27 0 -44 5 -55 8l9 47c11 -3 35 -6 48 -6c92 0 118 65 118 151v358c0 100 -12 170 -124 170c-67 0 -160 -61 -183 -76v-432h-55v546h55v-64c39 29 106 76 194 76c158 0 166 -117 166 -203z" />
    <glyph glyph-name="Omacron" unicode="&#x14c;" horiz-adv-x="815" 
d="M399 -12c-212 0 -339 154 -339 367c0 221 147 362 358 362c220 0 337 -159 337 -364c0 -213 -136 -365 -356 -365zM402 39c197 0 294 139 294 315s-105 312 -287 312c-189 0 -291 -135 -291 -310c0 -168 97 -317 284 -317zM259 791v48h291v-48h-291z" />
    <glyph glyph-name="omacron" unicode="&#x14d;" horiz-adv-x="593" 
d="M295 -12c-144 0 -235 98 -235 279c0 191 103 293 241 293c155 0 232 -102 232 -287c0 -193 -102 -285 -238 -285zM300 35c142 0 177 126 177 238c0 104 -33 240 -179 240c-144 0 -181 -134 -181 -241c0 -119 43 -237 183 -237zM150 675v48h291v-48h-291z" />
    <glyph glyph-name="Obreve" unicode="&#x14e;" horiz-adv-x="815" 
d="M399 -12c-212 0 -339 154 -339 367c0 221 147 362 358 362c220 0 337 -159 337 -364c0 -213 -136 -365 -356 -365zM402 39c197 0 294 139 294 315s-105 312 -287 312c-189 0 -291 -135 -291 -310c0 -168 97 -317 284 -317zM407 753c-106 0 -147 66 -156 78l32 29
c6 -9 49 -59 127 -59c77 0 117 46 126 58l31 -26c-5 -8 -44 -80 -160 -80z" />
    <glyph glyph-name="obreve" unicode="&#x14f;" horiz-adv-x="593" 
d="M295 -12c-144 0 -235 98 -235 279c0 191 103 293 241 293c155 0 232 -102 232 -287c0 -193 -102 -285 -238 -285zM300 35c142 0 177 126 177 238c0 104 -33 240 -179 240c-144 0 -181 -134 -181 -241c0 -119 43 -237 183 -237zM294 652c-106 0 -147 66 -156 78l32 29
c6 -9 49 -59 127 -59c77 0 117 46 126 58l31 -26c-5 -8 -44 -80 -160 -80z" />
    <glyph glyph-name="Ohungarumlaut" unicode="&#x150;" horiz-adv-x="815" 
d="M399 -12c-212 0 -339 154 -339 367c0 221 147 362 358 362c220 0 337 -159 337 -364c0 -213 -136 -365 -356 -365zM402 39c197 0 294 139 294 315s-105 312 -287 312c-189 0 -291 -135 -291 -310c0 -168 97 -317 284 -317zM443 853l-173 -113l-27 36l164 124zM663 806
l-199 -63l-17 41l194 77z" />
    <glyph glyph-name="ohungarumlaut" unicode="&#x151;" horiz-adv-x="593" 
d="M295 -12c-144 0 -235 98 -235 279c0 191 103 293 241 293c155 0 232 -102 232 -287c0 -193 -102 -285 -238 -285zM300 35c142 0 177 126 177 238c0 104 -33 240 -179 240c-144 0 -181 -134 -181 -241c0 -119 43 -237 183 -237zM155 619l-24 39l181 131l33 -51zM381 624
l-28 36l179 136l37 -47z" />
    <glyph glyph-name="OE" unicode="&#x152;" horiz-adv-x="1079" 
d="M399 -12c-212 0 -339 154 -339 367c0 221 146 363 358 363c84 0 152 -26 208 -65v54h378v-49h-317v-277h295v-52h-295v-278h342v-51h-403v62c-59 -43 -113 -74 -227 -74zM402 42c103 0 177 37 224 98v425c-47 61 -121 98 -217 98c-188 0 -288 -134 -288 -307
c0 -167 96 -314 281 -314z" />
    <glyph glyph-name="oe" unicode="&#x153;" horiz-adv-x="944" 
d="M295 -12c-144 0 -235 98 -235 279c0 191 103 293 241 293c103 0 169 -46 204 -131c39 95 116 131 205 131c125 0 185 -85 185 -272v-20h-362c5 -197 93 -229 215 -229c41 0 112 17 129 23l11 -48c-9 -3 -68 -26 -164 -26c-108 0 -187 34 -223 127
c-40 -87 -114 -127 -206 -127zM300 35c142 0 177 126 177 238c0 104 -33 240 -179 240c-144 0 -181 -134 -181 -241c0 -119 43 -237 183 -237zM533 314h303c0 123 -43 203 -138 203c-89 0 -154 -67 -165 -203z" />
    <glyph glyph-name="Racute" unicode="&#x154;" horiz-adv-x="689" 
d="M672 37l-13 -47c-13 0 -95 8 -154 93l-144 214c-19 -4 -51 -6 -74 -6h-107v-291h-60v707h219c128 0 217 -62 217 -201c0 -84 -38 -159 -138 -194l121 -178c51 -72 106 -89 133 -97zM180 346h113c112 0 200 31 200 154c0 118 -63 158 -176 158h-137v-312zM243 748l-17 41
l207 83l22 -55z" />
    <glyph glyph-name="racute" unicode="&#x155;" horiz-adv-x="376" 
d="M100 0v546h55v-73c25 44 79 85 160 85c33 0 54 -6 61 -9l-11 -48c-13 3 -30 7 -62 7c-71 0 -121 -53 -148 -98v-410h-55zM183 623l-26 39l175 130l32 -44z" />
    <glyph glyph-name="Rcommaaccent" unicode="&#x156;" horiz-adv-x="689" 
d="M672 37l-13 -47c-13 0 -95 8 -154 93l-144 214c-19 -4 -51 -6 -74 -6h-107v-291h-60v707h219c128 0 217 -62 217 -201c0 -84 -38 -159 -138 -194l121 -178c51 -72 106 -89 133 -97zM180 346h113c112 0 200 31 200 154c0 118 -63 158 -176 158h-137v-312zM393 -58
l-38 -198h-43l21 198h60z" />
    <glyph glyph-name="rcommaaccent" unicode="&#x157;" horiz-adv-x="376" 
d="M100 0v546h55v-73c25 44 79 85 160 85c33 0 54 -6 61 -9l-11 -48c-13 3 -30 7 -62 7c-71 0 -121 -53 -148 -98v-410h-55zM162 -58l-38 -198h-43l21 198h60z" />
    <glyph glyph-name="Rcaron" unicode="&#x158;" horiz-adv-x="689" 
d="M672 37l-13 -47c-13 0 -95 8 -154 93l-144 214c-19 -4 -51 -6 -74 -6h-107v-291h-60v707h219c128 0 217 -62 217 -201c0 -84 -38 -159 -138 -194l121 -178c51 -72 106 -89 133 -97zM180 346h113c112 0 200 31 200 154c0 118 -63 158 -176 158h-137v-312zM469 820
l-175 -72l-168 74l19 42l150 -62l154 60z" />
    <glyph glyph-name="rcaron" unicode="&#x159;" horiz-adv-x="376" 
d="M100 0v546h55v-73c25 44 79 85 160 85c33 0 54 -6 61 -9l-11 -48c-13 3 -30 7 -62 7c-71 0 -121 -53 -148 -98v-410h-55zM228 630l-172 106l22 35l149 -81l154 82l22 -35z" />
    <glyph glyph-name="Sacute" unicode="&#x15a;" horiz-adv-x="543" 
d="M246 -12c-101 0 -149 22 -186 41l22 51c49 -23 98 -38 162 -38c77 0 182 27 182 131c0 193 -348 149 -348 378c0 109 88 165 197 165c72 0 120 -14 159 -31l-16 -46c-40 15 -78 27 -142 27c-78 0 -144 -31 -144 -111c0 -177 351 -149 351 -376
c0 -131 -103 -191 -237 -191zM206 748l-17 41l207 83l22 -55z" />
    <glyph glyph-name="sacute" unicode="&#x15b;" horiz-adv-x="453" 
d="M206 -11c-72 0 -124 15 -149 23l12 49c27 -8 80 -25 133 -25c85 0 148 36 148 97c0 143 -275 99 -275 283c0 93 72 144 175 144c59 0 108 -18 119 -21l-11 -47c-17 5 -58 20 -119 20c-72 0 -111 -41 -111 -92c0 -143 273 -103 273 -279c0 -120 -106 -152 -195 -152z
M175 623l-26 39l175 130l32 -44z" />
    <glyph glyph-name="Scircumflex" unicode="&#x15c;" horiz-adv-x="543" 
d="M246 -12c-101 0 -149 22 -186 41l22 51c49 -23 98 -38 162 -38c77 0 182 27 182 131c0 193 -348 149 -348 378c0 109 88 165 197 165c72 0 120 -14 159 -31l-16 -46c-40 15 -78 27 -142 27c-78 0 -144 -31 -144 -111c0 -177 351 -149 351 -376
c0 -131 -103 -191 -237 -191zM124 743l-20 42l178 73l166 -73l-19 -42l-148 61z" />
    <glyph glyph-name="scircumflex" unicode="&#x15d;" horiz-adv-x="453" 
d="M206 -11c-72 0 -124 15 -149 23l12 49c27 -8 80 -25 133 -25c85 0 148 36 148 97c0 143 -275 99 -275 283c0 93 72 144 175 144c59 0 108 -18 119 -21l-11 -47c-17 5 -58 20 -119 20c-72 0 -111 -41 -111 -92c0 -143 273 -103 273 -279c0 -120 -106 -152 -195 -152z
M379 632l-153 84l-153 -82l-23 37l176 105l174 -107z" />
    <glyph glyph-name="Scedilla" unicode="&#x15e;" horiz-adv-x="543" 
d="M246 -12c-101 0 -149 22 -186 41l22 51c49 -23 98 -38 162 -38c77 0 182 27 182 131c0 193 -348 149 -348 378c0 109 88 165 197 165c72 0 120 -14 159 -31l-16 -46c-40 15 -78 27 -142 27c-78 0 -144 -31 -144 -111c0 -177 351 -149 351 -376
c0 -131 -103 -191 -237 -191zM214 -229l-18 31c47 29 54 55 54 79c0 21 -11 43 -26 68h62c12 -19 20 -40 20 -63c0 -36 -10 -80 -92 -115z" />
    <glyph glyph-name="scedilla" unicode="&#x15f;" horiz-adv-x="453" 
d="M206 -11c-72 0 -124 15 -149 23l12 49c27 -8 80 -25 133 -25c85 0 148 36 148 97c0 143 -275 99 -275 283c0 93 72 144 175 144c59 0 108 -18 119 -21l-11 -47c-17 5 -58 20 -119 20c-72 0 -111 -41 -111 -92c0 -143 273 -103 273 -279c0 -120 -106 -152 -195 -152z
M184 -229l-18 31c47 29 54 55 54 79c0 21 -11 43 -26 68h62c12 -19 20 -40 20 -63c0 -36 -10 -80 -92 -115z" />
    <glyph glyph-name="Scaron" unicode="&#x160;" horiz-adv-x="543" 
d="M246 -12c-101 0 -149 22 -186 41l22 51c49 -23 98 -38 162 -38c77 0 182 27 182 131c0 193 -348 149 -348 378c0 109 88 165 197 165c72 0 120 -14 159 -31l-16 -46c-40 15 -78 27 -142 27c-78 0 -144 -31 -144 -111c0 -177 351 -149 351 -376
c0 -131 -103 -191 -237 -191zM445 820l-175 -72l-168 74l19 42l150 -62l154 60z" />
    <glyph glyph-name="scaron" unicode="&#x161;" horiz-adv-x="453" 
d="M206 -11c-72 0 -124 15 -149 23l12 49c27 -8 80 -25 133 -25c85 0 148 36 148 97c0 143 -275 99 -275 283c0 93 72 144 175 144c59 0 108 -18 119 -21l-11 -47c-17 5 -58 20 -119 20c-72 0 -111 -41 -111 -92c0 -143 273 -103 273 -279c0 -120 -106 -152 -195 -152z
M226 630l-172 106l22 35l149 -81l154 82l22 -35z" />
    <glyph glyph-name="Tcommaaccent" unicode="&#x162;" horiz-adv-x="553" 
d="M247 0v654h-247v53h553v-53h-247v-654h-59zM315 -58l-38 -198h-43l21 198h60z" />
    <glyph glyph-name="tcommaaccent" unicode="&#x163;" horiz-adv-x="403" 
d="M293 -11c-100 0 -173 5 -173 158v347h-80v52h80v112h53v-112h172v-52h-171v-346c0 -91 24 -108 116 -108c29 0 62 11 77 16l14 -49c-13 -5 -55 -18 -88 -18zM292 -58l-38 -198h-43l21 198h60z" />
    <glyph glyph-name="Tcaron" unicode="&#x164;" horiz-adv-x="553" 
d="M247 0v654h-247v53h553v-53h-247v-654h-59zM446 820l-175 -72l-168 74l19 42l150 -62l154 60z" />
    <glyph glyph-name="tcaron" unicode="&#x165;" horiz-adv-x="403" 
d="M293 -11c-100 0 -173 5 -173 158v347h-80v52h80v112h53v-112h172v-52h-171v-346c0 -91 24 -108 116 -108c29 0 62 11 77 16l14 -49c-13 -5 -55 -18 -88 -18zM321 818l-38 -198h-43l21 198h60z" />
    <glyph glyph-name="Tbar" unicode="&#x166;" horiz-adv-x="553" 
d="M247 0v353h-147v47h147v254h-247v53h553v-53h-247v-254h148v-47h-148v-353h-59z" />
    <glyph glyph-name="tbar" unicode="&#x167;" horiz-adv-x="403" 
d="M293 -8c-100 0 -173 2 -173 155v157h-74v43h74v147h-80v52h80v112h53v-112h172v-52h-171v-147h143v-43h-143v-156c0 -91 24 -105 116 -105c29 0 62 8 77 13l14 -49c-13 -5 -55 -15 -88 -15z" />
    <glyph glyph-name="Utilde" unicode="&#x168;" horiz-adv-x="762" 
d="M383 -12c-132 0 -273 48 -273 247v472h61v-465c0 -167 112 -201 212 -201c109 0 213 45 213 225v441h56v-445c0 -221 -152 -274 -269 -274zM437 754c-45 0 -78 37 -123 37c-35 0 -48 -9 -69 -24l-22 38c7 5 35 35 95 35c50 0 82 -36 123 -36c35 0 59 21 66 28l24 -36
c-5 -8 -41 -42 -94 -42z" />
    <glyph glyph-name="utilde" unicode="&#x169;" horiz-adv-x="603" 
d="M254 -12c-149 0 -159 122 -159 207v351h55v-334c0 -89 2 -171 114 -171c74 0 166 63 189 78v427h52v-546h-52v66c-45 -27 -108 -78 -199 -78zM361 648c-45 0 -78 37 -123 37c-35 0 -47 -8 -68 -24l-23 38c7 5 35 35 95 35c50 0 82 -36 123 -36c35 0 59 21 66 28l24 -36
c-5 -7 -40 -42 -94 -42z" />
    <glyph glyph-name="Umacron" unicode="&#x16a;" horiz-adv-x="762" 
d="M383 -12c-132 0 -273 48 -273 247v472h61v-465c0 -167 112 -201 212 -201c109 0 213 45 213 225v441h56v-445c0 -221 -152 -274 -269 -274zM233 791v48h291v-48h-291z" />
    <glyph glyph-name="umacron" unicode="&#x16b;" horiz-adv-x="603" 
d="M254 -12c-149 0 -159 122 -159 207v351h55v-334c0 -89 2 -171 114 -171c74 0 166 63 189 78v427h52v-546h-52v66c-45 -27 -108 -78 -199 -78zM155 675v48h291v-48h-291z" />
    <glyph glyph-name="Ubreve" unicode="&#x16c;" horiz-adv-x="762" 
d="M383 -12c-132 0 -273 48 -273 247v472h61v-465c0 -167 112 -201 212 -201c109 0 213 45 213 225v441h56v-445c0 -221 -152 -274 -269 -274zM386 753c-106 0 -147 66 -156 78l32 29c6 -9 49 -59 127 -59c77 0 117 46 126 58l31 -26c-5 -8 -44 -80 -160 -80z" />
    <glyph glyph-name="ubreve" unicode="&#x16d;" horiz-adv-x="603" 
d="M254 -12c-149 0 -159 122 -159 207v351h55v-334c0 -89 2 -171 114 -171c74 0 166 63 189 78v427h52v-546h-52v66c-45 -27 -108 -78 -199 -78zM301 652c-106 0 -147 66 -156 78l32 29c6 -9 49 -59 127 -59c77 0 117 46 126 58l31 -26c-5 -8 -44 -80 -160 -80z" />
    <glyph glyph-name="Uring" unicode="&#x16e;" horiz-adv-x="762" 
d="M383 -12c-132 0 -273 48 -273 247v472h61v-465c0 -167 112 -201 212 -201c109 0 213 45 213 225v441h56v-445c0 -221 -152 -274 -269 -274zM383 705c-60 0 -112 32 -112 101c0 67 53 104 110 104c50 0 111 -27 111 -102c0 -64 -46 -103 -109 -103zM382 742
c40 0 67 25 67 65s-33 66 -68 66c-39 0 -67 -24 -67 -64s29 -67 68 -67z" />
    <glyph glyph-name="uring" unicode="&#x16f;" horiz-adv-x="603" 
d="M254 -12c-149 0 -159 122 -159 207v351h55v-334c0 -89 2 -171 114 -171c74 0 166 63 189 78v427h52v-546h-52v66c-45 -27 -108 -78 -199 -78zM303 611c-60 0 -112 32 -112 101c0 67 53 104 110 104c50 0 111 -27 111 -102c0 -64 -46 -103 -109 -103zM302 648
c40 0 67 25 67 65s-33 66 -68 66c-39 0 -67 -24 -67 -64s29 -67 68 -67z" />
    <glyph glyph-name="Uhungarumlaut" unicode="&#x170;" horiz-adv-x="762" 
d="M383 -12c-132 0 -273 48 -273 247v472h61v-465c0 -167 112 -201 212 -201c109 0 213 45 213 225v441h56v-445c0 -221 -152 -274 -269 -274zM409 853l-173 -113l-27 36l164 124zM629 806l-199 -63l-17 41l194 77z" />
    <glyph glyph-name="uhungarumlaut" unicode="&#x171;" horiz-adv-x="603" 
d="M254 -12c-149 0 -159 122 -159 207v351h55v-334c0 -89 2 -171 114 -171c74 0 166 63 189 78v427h52v-546h-52v66c-45 -27 -108 -78 -199 -78zM172 619l-24 39l181 131l33 -51zM398 624l-28 36l179 136l37 -47z" />
    <glyph glyph-name="Uogonek" unicode="&#x172;" horiz-adv-x="762" 
d="M428 -217c-88 0 -108 49 -108 100c0 41 30 77 65 104h-2c-132 0 -273 48 -273 247v473h61v-466c0 -167 112 -201 212 -201c109 0 213 45 213 225v442h56v-446c0 -164 -81 -234 -172 -261c-35 -21 -104 -70 -104 -114s27 -54 70 -54c21 0 35 5 38 8l15 -44
c-9 -6 -19 -13 -71 -13z" />
    <glyph glyph-name="uogonek" unicode="&#x173;" horiz-adv-x="603" 
d="M509 -160l15 -44c-9 -6 -19 -13 -71 -13c-88 0 -108 49 -108 100c0 56 61 105 108 134v49c-46 -27 -108 -77 -199 -77c-149 0 -159 121 -159 206v351h55v-334c0 -89 2 -170 114 -170c74 0 166 62 189 77v427h52v-546c-35 -21 -104 -70 -104 -114s27 -54 70 -54
c21 0 35 5 38 8z" />
    <glyph glyph-name="Wcircumflex" unicode="&#x174;" horiz-adv-x="998" 
d="M218 0l-208 707h63l195 -672l200 498l-59 174h61l230 -673l230 673h58l-242 -707h-94l-157 457l-184 -457h-93zM343 743l-20 42l178 73l166 -73l-19 -42l-148 61z" />
    <glyph glyph-name="wcircumflex" unicode="&#x175;" horiz-adv-x="870" 
d="M197 0l-177 546h58l160 -510l161 510h76l142 -510l178 510h55l-195 -546h-80l-122 426l-17 71l-19 -70l-140 -427h-80zM591 632l-153 84l-153 -82l-23 37l176 105l174 -107z" />
    <glyph glyph-name="Ycircumflex" unicode="&#x176;" horiz-adv-x="531" 
d="M229 0v279l-223 428h65l190 -374l203 374h61l-237 -430v-277h-59zM108 743l-20 42l178 73l166 -73l-19 -42l-148 61z" />
    <glyph glyph-name="ycircumflex" unicode="&#x177;" horiz-adv-x="491" 
d="M149 -220l75 220h-31l-173 546h61l125 -408l32 -100l34 98l141 410h58l-267 -766h-55zM399 632l-153 84l-153 -82l-23 37l176 105l174 -107z" />
    <glyph glyph-name="Ydieresis" unicode="&#x178;" horiz-adv-x="531" 
d="M229 0v279l-223 428h65l190 -374l203 374h61l-237 -430v-277h-59zM158 750l-46 47l46 46l46 -46zM362 750l-46 47l46 46l47 -46z" />
    <glyph glyph-name="Zacute" unicode="&#x179;" horiz-adv-x="529" 
d="M30 0v60l386 595h-360v52h422v-53l-389 -602h410v-52h-469zM203 748l-17 41l207 83l22 -55z" />
    <glyph glyph-name="zacute" unicode="&#x17a;" horiz-adv-x="487" 
d="M40 0v57l340 437h-311v52h374v-53l-346 -441h350v-52h-407zM203 623l-26 39l175 130l32 -44z" />
    <glyph glyph-name="Zdotaccent" unicode="&#x17b;" horiz-adv-x="529" 
d="M30 0v60l386 595h-360v52h422v-53l-389 -602h410v-52h-469zM327 817l-55 -55l-53 55l53 54z" />
    <glyph glyph-name="zdotaccent" unicode="&#x17c;" horiz-adv-x="487" 
d="M40 0v57l340 437h-311v52h374v-53l-346 -441h350v-52h-407zM255 661l-53 55l53 54l55 -54z" />
    <glyph glyph-name="Zcaron" unicode="&#x17d;" horiz-adv-x="529" 
d="M30 0v60l386 595h-360v52h422v-53l-389 -602h410v-52h-469zM439 820l-175 -72l-168 74l19 42l150 -62l154 60z" />
    <glyph glyph-name="zcaron" unicode="&#x17e;" horiz-adv-x="487" 
d="M40 0v57l340 437h-311v52h374v-53l-346 -441h350v-52h-407zM243 630l-172 106l22 35l149 -81l154 82l22 -35z" />
    <glyph glyph-name="florin" unicode="&#x192;" horiz-adv-x="432" 
d="M-3 -9l-2 47c94 5 182 2 185 144l2 79h-104v50h106l1 45c3 171 119 196 234 196l3 -48c-96 -8 -178 -8 -181 -150l-1 -43h111v-50h-113l-2 -82c-3 -176 -143 -188 -239 -188z" />
    <glyph glyph-name="uni01D4" unicode="&#x1d4;" horiz-adv-x="603" 
d="M254 -12c-149 0 -159 122 -159 207v351h55v-334c0 -89 3 -171 114 -171c74 0 165 63 189 78v427h52v-546h-52v66c-45 -28 -108 -78 -199 -78zM311 630l-172 106l22 35l149 -81l154 82l22 -35z" />
    <glyph glyph-name="AEmacron" unicode="&#x1e2;" horiz-adv-x="897" 
d="M0 0l387 707h436v-49h-319v-277h297v-52h-297v-278h343v-51h-402v329h-202l-177 -329h-66zM271 381h174v277h-25zM444 791v48h291v-48h-291z" />
    <glyph glyph-name="aemacron" unicode="&#x1e3;" horiz-adv-x="849" 
d="M631 -9c-100 0 -171 30 -214 98c-27 -19 -122 -97 -226 -97c-92 0 -146 53 -146 152c0 132 119 161 203 164l138 3v83c0 101 -45 117 -150 117c-49 0 -113 -21 -128 -24l-12 43c13 8 83 29 162 29s148 -17 174 -88c43 63 108 88 185 88c117 0 182 -82 182 -257v-23
l-361 -15c5 -193 92 -222 217 -222c40 0 114 17 128 20l11 -48c-23 -11 -79 -23 -163 -23zM208 40c52 0 159 61 193 87c-11 35 -17 86 -18 137l-137 -4c-101 -3 -149 -50 -149 -109c0 -91 48 -111 111 -111zM440 312l301 15c0 112 -45 189 -136 189
c-80 0 -157 -56 -165 -204zM276 675v48h291v-48h-291z" />
    <glyph glyph-name="AEacute" unicode="&#x1fc;" horiz-adv-x="897" 
d="M0 0l387 707h436v-49h-319v-277h297v-52h-297v-278h343v-51h-402v329h-202l-177 -329h-66zM271 381h174v277h-25zM519 748l-17 41l207 83l22 -55z" />
    <glyph glyph-name="aeacute" unicode="&#x1fd;" horiz-adv-x="849" 
d="M631 -9c-100 0 -171 30 -214 98c-27 -19 -122 -97 -226 -97c-92 0 -146 53 -146 152c0 132 119 161 203 164l138 3v83c0 101 -45 117 -150 117c-49 0 -113 -21 -128 -24l-12 43c13 8 83 29 162 29s148 -17 174 -88c43 63 108 88 185 88c117 0 182 -82 182 -257v-23
l-361 -15c5 -193 92 -222 217 -222c40 0 114 17 128 20l11 -48c-23 -11 -79 -23 -163 -23zM208 40c52 0 159 61 193 87c-11 35 -17 86 -18 137l-137 -4c-101 -3 -149 -50 -149 -109c0 -91 48 -111 111 -111zM440 312l301 15c0 112 -45 189 -136 189
c-80 0 -157 -56 -165 -204zM384 623l-26 39l175 130l32 -44z" />
    <glyph glyph-name="Oslashacute" unicode="&#x1fe;" horiz-adv-x="815" 
d="M66 -26l-30 31l100 103c-51 64 -76 148 -76 247c0 221 147 362 358 362c96 0 172 -31 228 -82l97 100l32 -29c1 -1 -38 -41 -98 -104c52 -65 78 -152 78 -249c0 -213 -136 -365 -356 -365c-97 0 -175 31 -234 87l-71 -72c-11 -11 -20 -20 -28 -29zM402 39
c197 0 294 139 294 315c0 80 -21 149 -61 204l-430 -441c47 -48 113 -78 197 -78zM177 151l428 442c-48 47 -115 73 -196 73c-189 0 -291 -135 -291 -310c0 -77 20 -149 59 -205zM328 748l-17 41l207 83l22 -55z" />
    <glyph glyph-name="oslashacute" unicode="&#x1ff;" horiz-adv-x="593" 
d="M68 -33l-31 30l71 85c-31 45 -48 106 -48 185c0 191 103 291 241 291c66 0 119 -19 158 -57l60 72l32 -29l-64 -77c31 -48 46 -113 46 -194c0 -192 -102 -281 -238 -281c-65 0 -118 19 -159 56zM300 39c142 0 177 121 177 234c0 48 -7 103 -30 147l-276 -330
c29 -31 69 -51 129 -51zM146 128l277 330c-28 32 -68 53 -125 53c-144 0 -181 -132 -181 -239c0 -52 8 -103 29 -144zM235 623l-26 39l175 130l32 -44z" />
    <glyph glyph-name="Scommaaccent" unicode="&#x218;" horiz-adv-x="543" 
d="M246 -12c-101 0 -149 22 -186 41l22 51c49 -23 98 -38 162 -38c77 0 182 27 182 131c0 193 -348 149 -348 378c0 109 88 165 197 165c72 0 120 -14 159 -31l-16 -46c-40 15 -78 27 -142 27c-78 0 -144 -31 -144 -111c0 -177 351 -149 351 -376
c0 -131 -103 -191 -237 -191zM293 -58l-38 -198h-43l21 198h60z" />
    <glyph glyph-name="scommaaccent" unicode="&#x219;" horiz-adv-x="453" 
d="M206 -11c-72 0 -124 15 -149 23l12 49c27 -8 80 -25 133 -25c85 0 148 36 148 97c0 143 -275 99 -275 283c0 93 72 144 175 144c59 0 108 -18 119 -21l-11 -47c-17 5 -58 20 -119 20c-72 0 -111 -41 -111 -92c0 -143 273 -103 273 -279c0 -120 -106 -152 -195 -152z
M256 -58l-38 -198h-43l21 198h60z" />
    <glyph glyph-name="uni021A" unicode="&#x21a;" horiz-adv-x="553" 
d="M247 0v654h-247v53h553v-53h-247v-654h-59zM315 -58l-38 -198h-43l21 198h60z" />
    <glyph glyph-name="uni021B" unicode="&#x21b;" horiz-adv-x="403" 
d="M293 -11c-100 0 -173 5 -173 158v347h-80v52h80v112h53v-112h172v-52h-171v-346c0 -91 24 -108 116 -108c29 0 62 11 77 16l14 -49c-13 -5 -55 -18 -88 -18zM292 -58l-38 -198h-43l21 198h60z" />
    <glyph glyph-name="dotlessj" unicode="&#x237;" horiz-adv-x="257" 
d="M-18 -220c-27 0 -44 5 -55 8l9 47c11 -3 35 -6 48 -6c92 0 115 65 115 151v566h57v-567c0 -152 -75 -199 -174 -199z" />
    <glyph glyph-name="schwa" unicode="&#x259;" horiz-adv-x="529" 
d="M221 560c153 0 248 -68 248 -275c0 -220 -104 -297 -234 -297c-125 0 -185 87 -185 272v20h362c-4 198 -94 229 -215 229c-40 0 -113 -17 -129 -23l-11 48c7 4 69 26 164 26zM412 234h-303c0 -122 43 -203 138 -203c89 0 154 68 165 203z" />
    <glyph glyph-name="circumflex" unicode="&#x2c6;" horiz-adv-x="536" 
d="M380 632l-153 84l-153 -82l-23 37l176 105l174 -107z" />
    <glyph glyph-name="caron" unicode="&#x2c7;" horiz-adv-x="536" 
d="M267 630l-172 106l22 35l149 -81l154 82l22 -35z" />
    <glyph glyph-name="breve" unicode="&#x2d8;" horiz-adv-x="496" 
d="M266 652c-106 0 -147 66 -156 78l32 29c6 -9 49 -59 127 -59c77 0 117 46 126 58l31 -26c-5 -8 -44 -80 -160 -80z" />
    <glyph glyph-name="dotaccent" unicode="&#x2d9;" horiz-adv-x="273" 
d="M136 661l-53 55l53 54l55 -54z" />
    <glyph glyph-name="ring" unicode="&#x2da;" horiz-adv-x="532" 
d="M268 611c-60 0 -112 32 -112 101c0 67 53 104 110 104c50 0 111 -27 111 -102c0 -64 -46 -103 -109 -103zM267 648c40 0 67 25 67 65s-33 66 -68 66c-39 0 -67 -24 -67 -64s29 -67 68 -67z" />
    <glyph glyph-name="ogonek" unicode="&#x2db;" horiz-adv-x="561" 
d="M399 -217c-88 0 -108 49 -108 100c0 79 119 142 151 158l26 -31c-16 -8 -121 -72 -121 -124c0 -44 27 -54 70 -54c19 0 31 3 39 6l14 -42c-9 -7 -31 -13 -71 -13z" />
    <glyph glyph-name="tilde" unicode="&#x2dc;" horiz-adv-x="536" 
d="M328 648c-45 0 -78 37 -123 37c-35 0 -47 -8 -68 -24l-23 38c7 5 35 35 95 35c50 0 82 -36 123 -36c35 0 59 21 66 28l24 -36c-5 -7 -40 -42 -94 -42z" />
    <glyph glyph-name="hungarumlaut" unicode="&#x2dd;" horiz-adv-x="549" 
d="M79 619l-24 39l181 131l33 -51zM305 624l-28 36l179 136l37 -47z" />
    <glyph glyph-name="uni0374" unicode="&#x374;" horiz-adv-x="147" 
d="M76 572h-48c9 24 26 56 26 100v83h56v-24c0 -81 -15 -123 -34 -159z" />
    <glyph glyph-name="uni0375" unicode="&#x375;" horiz-adv-x="188" 
d="M123 -122h-47c7 25 24 57 24 100v84h58v-26c0 -80 -19 -123 -35 -158z" />
    <glyph glyph-name="uni037E" unicode="&#x37e;" horiz-adv-x="300" 
d="M185 475h-70v71h70v-71zM183 62v-26c0 -80 -19 -123 -35 -158h-47c7 25 24 57 24 100v84h58z" />
    <glyph glyph-name="tonos" unicode="&#x384;" horiz-adv-x="467" 
d="M339 633l78 158h60l-86 -158h-52z" />
    <glyph glyph-name="dieresistonos" unicode="&#x385;" horiz-adv-x="424" 
d="M86 629l-46 47l46 46l46 -46zM157 623l78 158h60l-86 -158h-52zM333 629l-46 47l46 46l47 -46z" />
    <glyph glyph-name="Alphatonos" unicode="&#x386;" horiz-adv-x="650" 
d="M14 0l284 707h82l260 -707h-64l-101 279h-290l-112 -279h-59zM205 330h252l-120 331zM28 548l78 158h60l-86 -158h-52z" />
    <glyph glyph-name="anoteleia" unicode="&#x387;" horiz-adv-x="256" 
d="M128 293l-53 55l53 54l55 -54z" />
    <glyph glyph-name="Epsilontonos" unicode="&#x388;" horiz-adv-x="571" 
d="M-91 549l78 158h60l-86 -158h-52zM120 0v707h378v-49h-319v-277h297v-52h-297v-278h342v-51h-401z" />
    <glyph glyph-name="Etatonos" unicode="&#x389;" horiz-adv-x="769" 
d="M-91 549l78 158h60l-86 -158h-52zM120 0v707h59v-326h411v326h59v-707h-59v329h-411v-329h-59z" />
    <glyph glyph-name="Iotatonos" unicode="&#x38a;" horiz-adv-x="299" 
d="M-91 549l78 158h60l-86 -158h-52zM120 0v707h59v-707h-59z" />
    <glyph glyph-name="Omicrontonos" unicode="&#x38c;" horiz-adv-x="815" 
d="M-81 549l78 158h60l-86 -158h-52zM399 -12c-212 0 -339 154 -339 367c0 221 147 362 358 362c220 0 337 -159 337 -364c0 -213 -136 -365 -356 -365zM402 39c197 0 294 139 294 315s-105 312 -287 312c-189 0 -291 -135 -291 -310c0 -168 97 -317 284 -317z" />
    <glyph glyph-name="Upsilontonos" unicode="&#x38e;" horiz-adv-x="531" 
d="M-181 549l78 158h60l-86 -158h-52zM229 0v279l-223 428h65l190 -374l203 374h61l-237 -430v-277h-59z" />
    <glyph glyph-name="Omegatonos" unicode="&#x38f;" horiz-adv-x="815" 
d="M-81 549l78 158h60l-86 -158h-52zM28 0v54h242c-96 40 -196 157 -196 313c0 219 132 351 343 351c220 0 328 -156 328 -355c0 -133 -99 -259 -202 -309h246v-54h-306v54c115 85 200 190 200 310c0 175 -95 298 -275 298c-192 0 -272 -123 -272 -296
c0 -165 99 -227 194 -312v-54h-302z" />
    <glyph glyph-name="iotadieresistonos" unicode="&#x390;" horiz-adv-x="257" 
d="M99 0v546h57v-546h-57zM6 629l-46 47l46 46l46 -46zM77 623l78 158h60l-86 -158h-52zM253 629l-46 47l46 46l47 -46z" />
    <glyph glyph-name="Alpha" unicode="&#x391;" horiz-adv-x="650" 
d="M14 0l284 707h82l260 -707h-64l-101 279h-290l-112 -279h-59zM205 330h252l-120 331z" />
    <glyph glyph-name="Beta" unicode="&#x392;" horiz-adv-x="640" 
d="M120 0v707h180c156 0 219 -74 219 -169c0 -139 -112 -168 -103 -162v-3c-9 4 154 -11 154 -176c0 -114 -66 -197 -240 -197h-210zM180 51h133c101 0 196 20 196 143c0 128 -91 144 -232 144h-97v-287zM180 390h118c119 0 160 46 160 135c0 104 -65 135 -179 135h-99v-270
z" />
    <glyph glyph-name="Gamma" unicode="&#x393;" horiz-adv-x="501" 
d="M120 0v707h381v-49h-322v-658h-59z" />
    <glyph glyph-name="Delta" unicode="&#x394;" horiz-adv-x="660" 
d="M86 52h489l-179 469l-54 141l-63 -149zM5 0l298 707h82l275 -707h-655z" />
    <glyph glyph-name="Epsilon" unicode="&#x395;" horiz-adv-x="571" 
d="M120 0v707h378v-49h-319v-277h297v-52h-297v-278h342v-51h-401z" />
    <glyph glyph-name="Zeta" unicode="&#x396;" horiz-adv-x="529" 
d="M30 0v60l386 595h-360v52h422v-53l-389 -602h410v-52h-469z" />
    <glyph glyph-name="Eta" unicode="&#x397;" horiz-adv-x="769" 
d="M120 0v707h59v-326h411v326h59v-707h-59v329h-411v-329h-59z" />
    <glyph glyph-name="Theta" unicode="&#x398;" horiz-adv-x="815" 
d="M246 317l-16 43c8 5 40 25 109 25c57 0 95 -16 142 -16c35 0 74 10 89 17l15 -42c-11 -7 -45 -25 -109 -25c-53 0 -88 17 -141 17c-39 0 -74 -11 -89 -19zM399 -12c-212 0 -339 154 -339 367c0 221 147 362 358 362c220 0 337 -159 337 -364c0 -213 -136 -365 -356 -365z
M402 39c197 0 294 139 294 315s-105 312 -287 312c-189 0 -291 -135 -291 -310c0 -168 97 -317 284 -317z" />
    <glyph glyph-name="Iota" unicode="&#x399;" horiz-adv-x="299" 
d="M120 0v707h59v-707h-59z" />
    <glyph glyph-name="Kappa" unicode="&#x39a;" horiz-adv-x="598" 
d="M518 0l-301 367v19l285 321h74l-295 -326l316 -381h-79zM120 0v707h59v-707h-59z" />
    <glyph glyph-name="Lambda" unicode="&#x39b;" horiz-adv-x="630" 
d="M18 0l270 707h82l246 -707h-64l-167 489l-58 172l-66 -175l-184 -486h-59z" />
    <glyph glyph-name="Mu" unicode="&#x39c;" horiz-adv-x="944" 
d="M120 0v707h97l243 -685l269 685h95v-707h-59v571l3 94l-260 -665h-100l-234 662l5 -94v-568h-59z" />
    <glyph glyph-name="Nu" unicode="&#x39d;" horiz-adv-x="778" 
d="M120 0v707h97l383 -678l-3 91v587h61v-707h-109l-374 669l4 -67v-602h-59z" />
    <glyph glyph-name="Xi" unicode="&#x39e;" horiz-adv-x="552" 
d="M50 0v55h452v-55h-452zM82 327v56h388v-56h-388zM60 652v55h432v-55h-432z" />
    <glyph glyph-name="Omicron" unicode="&#x39f;" horiz-adv-x="815" 
d="M399 -12c-212 0 -339 154 -339 367c0 221 147 362 358 362c220 0 337 -159 337 -364c0 -213 -136 -365 -356 -365zM402 39c197 0 294 139 294 315s-105 312 -287 312c-189 0 -291 -135 -291 -310c0 -168 97 -317 284 -317z" />
    <glyph glyph-name="Pi" unicode="&#x3a0;" horiz-adv-x="755" 
d="M120 0v707h515v-707h-59v653h-397v-653h-59z" />
    <glyph glyph-name="Rho" unicode="&#x3a1;" horiz-adv-x="576" 
d="M120 0v707h219c137 0 217 -73 217 -213c0 -124 -80 -224 -269 -224h-23v52h29c112 0 200 43 200 167c0 119 -59 169 -176 169h-137v-658h-60z" />
    <glyph glyph-name="Sigma" unicode="&#x3a3;" horiz-adv-x="524" 
d="M35 0v59l219 300l-216 294v54h452v-49h-389l218 -299l-224 -308h399v-51h-459z" />
    <glyph glyph-name="Tau" unicode="&#x3a4;" horiz-adv-x="553" 
d="M247 0v654h-247v53h553v-53h-247v-654h-59z" />
    <glyph glyph-name="Upsilon" unicode="&#x3a5;" horiz-adv-x="531" 
d="M229 0v279l-223 428h65l190 -374l203 374h61l-237 -430v-277h-59z" />
    <glyph glyph-name="Phi" unicode="&#x3a6;" horiz-adv-x="811" 
d="M376 0v85c-187 0 -316 93 -316 288s129 288 316 288v76h59v-76c187 0 316 -93 316 -288s-129 -288 -316 -288v-85h-59zM435 610v-474c161 0 257 84 257 237s-96 237 -257 237zM376 136v474c-161 0 -258 -84 -258 -237s97 -237 258 -237z" />
    <glyph glyph-name="Chi" unicode="&#x3a7;" horiz-adv-x="583" 
d="M6 0l248 377l-202 330h67l170 -280l181 280h63l-213 -328l233 -379h-69l-199 329l-211 -329h-68z" />
    <glyph glyph-name="Psi" unicode="&#x3a8;" horiz-adv-x="702" 
d="M324 0v168c-129 8 -279 62 -279 246v293h61v-286c0 -151 122 -195 218 -203v489h59v-489c104 11 218 63 218 227v262h56v-266c0 -204 -154 -262 -274 -273v-168h-59z" />
    <glyph glyph-name="Omega" unicode="&#x3a9;" horiz-adv-x="813" 
d="M28 0v54h242c-96 40 -196 157 -196 313c0 219 132 351 343 351c220 0 328 -156 328 -355c0 -133 -99 -259 -202 -309h246v-54h-306v54c115 85 200 190 200 310c0 175 -95 298 -275 298c-192 0 -272 -123 -272 -296c0 -165 99 -227 194 -312v-54h-302z" />
    <glyph glyph-name="Iotadieresis" unicode="&#x3aa;" horiz-adv-x="299" 
d="M120 0v707h59v-707h-59zM50 750l-46 47l46 46l46 -46zM254 750l-46 47l46 46l47 -46z" />
    <glyph glyph-name="Upsilondieresis" unicode="&#x3ab;" horiz-adv-x="531" 
d="M229 0v279l-223 428h65l190 -374l203 374h61l-237 -430v-277h-59zM159 750l-46 47l46 46l46 -46zM363 750l-46 47l46 46l47 -46z" />
    <glyph glyph-name="alphatonos" unicode="&#x3ac;" 
d="M247 -8c-77 0 -187 37 -187 258c0 198 114 310 249 310c72 0 133 -15 173 -34v-421c0 -47 17 -66 52 -66l-5 -45c-15 1 -31 2 -43 7c-47 19 -54 55 -54 127c-24 -76 -110 -136 -185 -136zM250 40c74 0 164 69 177 214v235c-27 11 -61 23 -120 23
c-140 0 -190 -130 -190 -262c0 -139 49 -210 133 -210zM281 633l78 158h60l-86 -158h-52z" />
    <glyph glyph-name="epsilontonos" unicode="&#x3ad;" horiz-adv-x="495" 
d="M269 -11c-145 0 -212 56 -212 159c0 67 39 122 111 146c-55 19 -88 55 -88 119c0 75 61 147 202 147c92 0 141 -21 168 -34l-19 -47c-22 8 -81 34 -153 34c-92 0 -141 -37 -141 -98c0 -84 61 -97 99 -97h120v-45h-124c-44 0 -117 -33 -117 -122c0 -61 45 -113 160 -113
c71 0 112 14 163 34l17 -42c-36 -19 -99 -41 -186 -41zM231 633l78 158h60l-86 -158h-52z" />
    <glyph glyph-name="etatonos" unicode="&#x3ae;" horiz-adv-x="621" 
d="M476 -220v559c0 100 -12 170 -124 170c-67 0 -160 -62 -183 -77v-432h-55v454c0 47 -30 57 -52 60l5 45c13 0 26 -2 39 -7c31 -11 56 -31 63 -70c39 28 106 77 194 77c158 0 166 -119 166 -204v-575h-53zM304 633l78 158h60l-86 -158h-52z" />
    <glyph glyph-name="iotatonos" unicode="&#x3af;" horiz-adv-x="257" 
d="M99 0v546h57v-546h-57zM90 633l78 158h60l-86 -158h-52z" />
    <glyph glyph-name="upsilondieresistonos" unicode="&#x3b0;" 
d="M302 -12c-100 0 -207 39 -207 195v363h52v-357c0 -125 79 -154 153 -154c82 0 153 35 153 172v339h52v-342c0 -172 -112 -216 -203 -216zM183 629l-46 47l46 46l46 -46zM254 623l78 158h60l-86 -158h-52zM430 629l-46 47l46 46l47 -46z" />
    <glyph glyph-name="alpha" unicode="&#x3b1;" 
d="M247 -8c-77 0 -187 37 -187 258c0 198 114 310 249 310c72 0 133 -15 173 -34v-421c0 -47 17 -66 52 -66l-5 -45c-15 1 -31 2 -43 7c-47 19 -54 55 -54 127c-24 -76 -110 -136 -185 -136zM250 40c74 0 164 69 177 214v235c-27 11 -61 23 -120 23
c-140 0 -190 -130 -190 -262c0 -139 49 -210 133 -210z" />
    <glyph glyph-name="beta" unicode="&#x3b2;" horiz-adv-x="596" 
d="M100 -220v764c0 127 73 227 206 227c108 0 190 -67 190 -171c0 -76 -56 -159 -133 -180c103 -24 178 -86 178 -200c0 -151 -101 -232 -236 -232c-53 0 -111 9 -150 24v-232h-55zM303 37c109 0 182 57 182 177c0 122 -101 169 -200 174v47c85 8 156 82 156 162
s-60 127 -139 127c-100 0 -147 -79 -147 -171v-489c43 -13 100 -27 148 -27z" />
    <glyph glyph-name="gamma" unicode="&#x3b3;" horiz-adv-x="485" 
d="M206 -220v220l-184 546h62l121 -376l30 -102l34 105l138 373h56l-202 -546v-220h-55z" />
    <glyph glyph-name="delta" unicode="&#x3b4;" horiz-adv-x="593" 
d="M295 -11c-132 0 -235 74 -235 255c0 139 83 224 178 269c-61 29 -109 65 -109 133c0 84 93 126 186 126c68 0 131 -10 178 -25l-10 -48c-47 13 -92 23 -168 23c-72 0 -134 -23 -134 -71c0 -71 103 -92 197 -149c80 -45 155 -116 155 -252c0 -193 -113 -261 -238 -261z
M300 36c133 0 177 101 177 214c0 145 -96 197 -188 239c-125 -37 -172 -155 -172 -240c0 -119 51 -213 183 -213z" />
    <glyph glyph-name="epsilon" unicode="&#x3b5;" horiz-adv-x="495" 
d="M269 -11c-145 0 -212 56 -212 159c0 67 39 122 111 146c-55 19 -88 55 -88 119c0 75 61 147 202 147c92 0 141 -21 168 -34l-19 -47c-22 8 -81 34 -153 34c-92 0 -141 -37 -141 -98c0 -84 61 -97 99 -97h120v-45h-124c-44 0 -117 -33 -117 -122c0 -61 45 -113 160 -113
c71 0 112 14 163 34l17 -42c-36 -19 -99 -41 -186 -41z" />
    <glyph glyph-name="zeta" unicode="&#x3b6;" horiz-adv-x="464" 
d="M390 -201l-35 28c16 22 50 59 50 87c0 49 -73 54 -150 70c-93 19 -195 47 -195 176c0 197 189 439 343 548h-303v46h364v-51c-148 -108 -347 -341 -347 -533c0 -103 78 -125 158 -141c89 -16 180 -21 180 -105c0 -44 -37 -94 -65 -125z" />
    <glyph glyph-name="eta" unicode="&#x3b7;" horiz-adv-x="621" 
d="M476 -220v559c0 100 -12 170 -124 170c-67 0 -160 -62 -183 -77v-432h-55v454c0 47 -30 57 -52 60l5 45c13 0 26 -2 39 -7c31 -11 56 -31 63 -70c39 28 106 77 194 77c158 0 166 -119 166 -204v-575h-53z" />
    <glyph glyph-name="theta" unicode="&#x3b8;" horiz-adv-x="605" 
d="M301 -12c-177 0 -221 160 -221 383c0 238 56 400 227 400c186 0 218 -176 218 -394c0 -227 -52 -389 -224 -389zM137 414h332c-3 181 -33 310 -165 310c-130 0 -162 -126 -167 -310zM306 35c128 0 163 128 163 333h-332c0 -211 37 -333 169 -333z" />
    <glyph glyph-name="iota" unicode="&#x3b9;" horiz-adv-x="257" 
d="M99 0v546h57v-546h-57z" />
    <glyph glyph-name="kappa" unicode="&#x3ba;" horiz-adv-x="539" 
d="M519 34l-16 -41c-25 3 -73 14 -146 100l-162 192l229 261h68l-231 -260l126 -147c56 -64 108 -98 132 -105zM100 0v546h55v-546h-55z" />
    <glyph glyph-name="lambda" unicode="&#x3bb;" horiz-adv-x="500" 
d="M500 36l-9 -45c-71 8 -90 50 -111 111l-102 308l-29 88l-30 -92l-135 -406h-62l189 546h20l-20 63c-21 67 -46 115 -102 115c-31 0 -50 -3 -73 -14l-14 41c27 12 49 18 88 18c86 0 118 -49 147 -133l172 -507c24 -69 43 -84 71 -93z" />
    <glyph glyph-name="mugreek" unicode="&#x3bc;" horiz-adv-x="624" 
d="M100 -220v766h55v-334c0 -89 2 -170 114 -170c74 0 166 62 189 77v427h52v-447c0 -47 30 -57 52 -60l-5 -45c-5 0 -9 0 -16 1c-34 5 -74 26 -82 71c-44 -33 -110 -77 -200 -77c-49 0 -80 13 -104 33v-242h-55z" />
    <glyph glyph-name="nu" unicode="&#x3bd;" horiz-adv-x="475" 
d="M193 0l-173 546h62l120 -396l37 -118l41 121l72 206c24 68 30 107 30 138c0 17 -3 38 -6 49h55c3 -11 7 -32 7 -49c0 -29 -9 -77 -33 -145l-123 -352h-89z" />
    <glyph glyph-name="xi" unicode="&#x3be;" horiz-adv-x="470" 
d="M387 -199l-34 26c16 21 46 65 46 93c0 36 -51 51 -111 64c-101 24 -233 50 -233 196c0 126 141 213 260 232c-84 3 -215 43 -215 161c0 125 95 192 248 192c31 0 65 -4 102 -11l-6 -45c-36 7 -72 9 -101 9c-124 0 -192 -42 -192 -135c0 -106 125 -141 248 -146v-47
c-104 -12 -288 -73 -288 -200c0 -113 93 -136 180 -157c81 -19 159 -32 159 -108c0 -44 -34 -93 -63 -124z" />
    <glyph glyph-name="omicron" unicode="&#x3bf;" horiz-adv-x="593" 
d="M295 -12c-144 0 -235 98 -235 279c0 191 103 293 241 293c155 0 232 -102 232 -287c0 -193 -102 -285 -238 -285zM300 35c142 0 177 126 177 238c0 104 -33 240 -179 240c-144 0 -181 -134 -181 -241c0 -119 43 -237 183 -237z" />
    <glyph glyph-name="pi" unicode="&#x3c0;" horiz-adv-x="590" 
d="M100 0v546h390v-546h-55v494h-280v-494h-55z" />
    <glyph glyph-name="rho" unicode="&#x3c1;" horiz-adv-x="559" 
d="M70 -220v497c0 192 78 281 217 281c154 0 212 -107 212 -291c0 -195 -92 -275 -234 -275c-27 0 -50 4 -70 9l11 46c20 -5 41 -8 62 -8c142 0 174 105 174 228c0 104 -18 244 -158 244c-135 0 -159 -121 -159 -229v-502h-55z" />
    <glyph glyph-name="sigma1" unicode="&#x3c2;" horiz-adv-x="487" 
d="M365 -199l-35 28c17 23 44 61 44 90c0 47 -41 56 -94 69c-92 21 -220 50 -220 286c0 155 76 286 244 286c47 0 101 -6 142 -29l-19 -47c-43 19 -80 28 -127 28c-133 0 -183 -112 -183 -233c0 -190 90 -222 173 -243c73 -19 140 -25 140 -113c0 -44 -38 -90 -65 -122z" />
    <glyph glyph-name="sigma" unicode="&#x3c3;" horiz-adv-x="605" 
d="M295 -8c-144 0 -235 90 -235 271c0 170 89 287 277 287c21 0 47 -1 228 -6v-50l-110 2c45 -51 78 -131 78 -223c0 -192 -102 -281 -238 -281zM300 39c142 0 177 121 177 234c0 64 -18 164 -90 225l-49 2c-141 1 -222 -71 -221 -228c0 -120 43 -233 183 -233z" />
    <glyph glyph-name="tau" unicode="&#x3c4;" horiz-adv-x="474" 
d="M210 0v494h-170v52h394v-52h-170v-494h-54z" />
    <glyph glyph-name="upsilon" unicode="&#x3c5;" 
d="M302 -12c-100 0 -207 39 -207 195v363h52v-357c0 -125 79 -154 153 -154c82 0 153 35 153 172v339h52v-342c0 -172 -112 -216 -203 -216z" />
    <glyph glyph-name="phi" unicode="&#x3c6;" horiz-adv-x="715" 
d="M330 -220v213c-173 8 -270 101 -270 274c0 178 107 279 270 290v101h55v-100c187 -7 270 -108 270 -285c0 -180 -108 -272 -270 -280v-213h-55zM330 38v474c-164 -11 -213 -125 -213 -240c0 -118 54 -221 213 -234zM385 512v-474c167 8 214 112 214 235
c0 113 -45 228 -214 239z" />
    <glyph glyph-name="chi" unicode="&#x3c7;" horiz-adv-x="472" 
d="M480 -178l-4 -47c-56 3 -85 31 -118 103l-113 248l-163 -346h-59l196 404l-125 252c-23 45 -43 68 -74 77l11 48c60 -12 85 -47 114 -107l104 -216l146 308h60l-181 -362l133 -279c29 -58 41 -78 73 -83z" />
    <glyph glyph-name="psi" unicode="&#x3c8;" horiz-adv-x="715" 
d="M330 -220v219c-141 5 -240 63 -240 233v314h52v-308c0 -140 72 -187 188 -192v612h55v-612c123 5 188 59 188 210v290h52v-293c0 -187 -106 -249 -240 -254v-219h-55z" />
    <glyph glyph-name="omega" unicode="&#x3c9;" horiz-adv-x="743" 
d="M235 -8c-116 0 -175 105 -175 245c0 116 25 202 129 309h67c-93 -82 -140 -184 -140 -305c0 -69 21 -198 129 -198c63 0 99 58 99 159v158h55v-154c0 -108 36 -163 99 -163c108 0 129 129 129 198c0 115 -50 225 -143 305h74c93 -96 125 -189 125 -304
c0 -130 -62 -250 -185 -250c-52 0 -115 38 -128 110c-24 -77 -82 -110 -135 -110z" />
    <glyph glyph-name="iotadieresis" unicode="&#x3ca;" horiz-adv-x="257" 
d="M99 0v546h57v-546h-57zM24 669l-46 47l46 46l46 -46zM228 669l-46 47l46 46l47 -46z" />
    <glyph glyph-name="upsilondieresis" unicode="&#x3cb;" 
d="M302 -12c-100 0 -207 39 -207 195v363h52v-357c0 -125 79 -154 153 -154c82 0 153 35 153 172v339h52v-342c0 -172 -112 -216 -203 -216zM198 669l-46 47l46 46l46 -46zM402 669l-46 47l46 46l47 -46z" />
    <glyph glyph-name="omicrontonos" unicode="&#x3cc;" horiz-adv-x="593" 
d="M295 -12c-144 0 -235 98 -235 279c0 191 103 293 241 293c155 0 232 -102 232 -287c0 -193 -102 -285 -238 -285zM300 35c142 0 177 126 177 238c0 104 -33 240 -179 240c-144 0 -181 -134 -181 -241c0 -119 43 -237 183 -237zM259 633l78 158h60l-86 -158h-52z" />
    <glyph glyph-name="upsilontonos" unicode="&#x3cd;" 
d="M302 -12c-100 0 -207 39 -207 195v363h52v-357c0 -125 79 -154 153 -154c82 0 153 35 153 172v339h52v-342c0 -172 -112 -216 -203 -216zM275 633l78 158h60l-86 -158h-52z" />
    <glyph glyph-name="omegatonos" unicode="&#x3ce;" horiz-adv-x="743" 
d="M235 -8c-116 0 -175 105 -175 245c0 116 25 202 129 309h67c-93 -82 -140 -184 -140 -305c0 -69 21 -198 129 -198c63 0 99 58 99 159v158h55v-154c0 -108 36 -163 99 -163c108 0 129 129 129 198c0 115 -50 225 -143 305h74c93 -96 125 -189 125 -304
c0 -130 -62 -250 -185 -250c-52 0 -115 38 -128 110c-24 -77 -82 -110 -135 -110zM332 633l78 158h60l-86 -158h-52z" />
    <glyph glyph-name="beta1" unicode="&#x3d0;" horiz-adv-x="597" 
d="M303 -7c-133 0 -212 100 -212 335v81c0 200 62 366 242 366c132 0 177 -75 177 -137c0 -63 -50 -115 -141 -158c99 -11 178 -77 178 -227c0 -128 -76 -260 -244 -260zM311 38c116 0 176 84 176 221c0 110 -61 180 -144 180c-79 0 -142 -34 -193 -67v-73
c0 -167 49 -261 161 -261zM150 442v-24c43 27 80 40 119 57c116 51 180 94 180 158c0 60 -54 96 -121 96c-108 0 -178 -98 -178 -287z" />
    <glyph glyph-name="uni03D8" unicode="&#x3d8;" horiz-adv-x="800" 
d="M365 -166v156c-136 11 -283 99 -283 365c0 267 146 368 318 368c179 0 318 -118 318 -368c0 -270 -143 -354 -284 -365v-156h-69zM401 38c124 0 259 61 259 318c0 195 -86 316 -260 316s-260 -121 -260 -316c0 -257 142 -318 261 -318z" />
    <glyph glyph-name="uni03D9" unicode="&#x3d9;" horiz-adv-x="628" 
d="M284 -182v204c-132 11 -224 107 -224 265c0 180 115 273 255 273c149 0 253 -98 253 -266c0 -164 -97 -258 -223 -271v-205h-61zM315 67c127 0 198 102 198 222c0 112 -56 222 -200 222c-148 0 -199 -118 -199 -218c0 -114 53 -226 201 -226z" />
    <glyph glyph-name="uni03DA" unicode="&#x3da;" horiz-adv-x="557" 
d="M537 668l-20 -48c-66 29 -123 43 -204 43c-146 0 -189 -98 -189 -236c0 -327 353 -161 353 -372c0 -123 -188 -175 -267 -196l-14 46c94 32 226 62 226 150c0 138 -362 22 -362 361c0 181 78 301 253 301c83 0 156 -10 224 -49z" />
    <glyph glyph-name="uni03DB" unicode="&#x3db;" horiz-adv-x="500" 
d="M444 509l-19 -46c-56 23 -101 34 -164 34c-115 0 -151 -111 -151 -220c0 -107 40 -185 145 -201c84 -9 139 -36 139 -111c0 -83 -80 -114 -209 -117v43c117 0 160 31 160 74c0 41 -34 56 -113 67c-99 13 -175 75 -175 250c0 147 63 263 204 263c52 0 114 -5 183 -36z" />
    <glyph glyph-name="uni03DC" unicode="&#x3dc;" horiz-adv-x="545" 
d="M515 658h-336v-297h314v-53h-314v-308h-59v707h395v-49z" />
    <glyph glyph-name="uni03DD" unicode="&#x3dd;" horiz-adv-x="500" 
d="M446 760l-10 -48c-15 3 -59 13 -102 13c-93 0 -145 -26 -145 -125v-226h117v-51h-117v-543h-55v543h-80v51h80v225c0 145 101 176 200 176c39 0 93 -10 112 -15z" />
    <glyph glyph-name="uni03DE" unicode="&#x3de;" horiz-adv-x="800" 
d="M450 -110l-57 -14l140 385h-341l139 427l56 8l-121 -379h342z" />
    <glyph glyph-name="uni03DF" unicode="&#x3df;" horiz-adv-x="500" 
d="M287 -30l-60 -12l146 337h-325l161 363l59 6l-142 -315h326z" />
    <glyph glyph-name="uni03E0" unicode="&#x3e0;" horiz-adv-x="800" 
d="M551 -60l-32 41c96 76 131 173 131 261c0 15 -1 38 -4 53l-404 -262l-24 39l414 269c-16 43 -34 74 -67 106l-446 -290l-24 39l430 278c-44 37 -116 55 -179 55c-64 0 -122 -18 -173 -49l-27 45c56 40 127 56 200 56c217 0 358 -158 358 -331c0 -135 -71 -252 -153 -310z
" />
    <glyph glyph-name="uni03E1" unicode="&#x3e1;" horiz-adv-x="700" 
d="M496 -73c-11 12 -20 24 -31 36c97 75 131 169 131 252c0 13 0 39 -1 51l-393 -255l-27 41l402 263c-15 36 -38 77 -63 102l-278 -183l-156 -101l-27 42l416 269c-43 27 -110 48 -166 48c-63 0 -117 -18 -169 -47l-26 39c57 39 123 59 195 59c213 0 345 -148 345 -319
c0 -150 -90 -254 -152 -297z" />
    <glyph glyph-name="uni0400" unicode="&#x400;" horiz-adv-x="571" 
d="M120 0v707h378v-49h-319v-277h297v-52h-297v-278h342v-51h-401zM380 748l-211 69l21 55l208 -83z" />
    <glyph glyph-name="afii10023" unicode="&#x401;" horiz-adv-x="571" 
d="M120 0v707h378v-49h-319v-277h297v-52h-297v-278h342v-51h-401zM211 750l-46 47l46 46l46 -46zM415 750l-46 47l46 46l47 -46z" />
    <glyph glyph-name="afii10051" unicode="&#x402;" horiz-adv-x="747" 
d="M476 -220l-41 44c29 24 183 160 183 390c0 101 -53 162 -149 162c-56 0 -135 -18 -195 -50v-326h-59v654h-215v53h533v-53h-259v-271c64 24 132 45 209 45c144 0 194 -104 194 -213c0 -172 -80 -314 -201 -435z" />
    <glyph glyph-name="afii10052" unicode="&#x403;" horiz-adv-x="545" 
d="M120 0v707h395v-49h-336v-658h-59zM224 748l-17 41l207 83l22 -55z" />
    <glyph glyph-name="afii10053" unicode="&#x404;" horiz-adv-x="639" 
d="M419 -10c-228 0 -359 155 -359 359c0 217 131 366 355 366c134 0 194 -29 200 -32l-17 -51c-19 7 -77 29 -181 29c-149 0 -284 -76 -295 -279h387v-53h-386c13 -205 152 -287 314 -287c65 0 131 14 166 25l16 -49c-16 -8 -75 -28 -200 -28z" />
    <glyph glyph-name="afii10054" unicode="&#x405;" horiz-adv-x="543" 
d="M246 -12c-101 0 -149 22 -186 41l22 51c49 -23 98 -38 162 -38c77 0 182 27 182 131c0 193 -348 149 -348 378c0 109 88 165 197 165c72 0 120 -14 159 -31l-16 -46c-40 15 -78 27 -142 27c-78 0 -144 -31 -144 -111c0 -177 351 -149 351 -376
c0 -131 -103 -191 -237 -191z" />
    <glyph glyph-name="afii10055" unicode="&#x406;" horiz-adv-x="299" 
d="M120 0v707h59v-707h-59z" />
    <glyph glyph-name="afii10056" unicode="&#x407;" horiz-adv-x="299" 
d="M120 0v707h59v-707h-59zM48 750l-46 47l46 46l46 -46zM252 750l-46 47l46 46l47 -46z" />
    <glyph glyph-name="afii10057" unicode="&#x408;" horiz-adv-x="299" 
d="M3 -184l-28 44c121 67 145 158 145 291v556h59v-554c0 -153 -28 -265 -176 -337z" />
    <glyph glyph-name="afii10058" unicode="&#x409;" horiz-adv-x="989" 
d="M38 -22l-27 56c53 25 99 69 118 108c32 67 59 256 78 565h356v-658h144c111 0 169 59 169 159c0 122 -88 157 -200 157h-69v52h70c171 0 262 -67 262 -214c0 -116 -77 -203 -210 -203h-225v655h-240c-24 -245 -35 -436 -83 -541c-26 -57 -74 -103 -143 -136z" />
    <glyph glyph-name="afii10059" unicode="&#x40a;" horiz-adv-x="1025" 
d="M120 0v707h59v-306h361v306h59v-658h144c111 0 169 55 169 151c0 118 -88 149 -200 149h-69v52h70c171 0 262 -65 262 -206c0 -113 -77 -195 -210 -195h-225v349h-361v-349h-59z" />
    <glyph glyph-name="afii10060" unicode="&#x40b;" horiz-adv-x="757" 
d="M215 0v654h-215v53h533v-53h-259v-271c64 27 141 45 209 45c170 0 194 -97 194 -182v-246h-59v257c0 115 -110 119 -163 119c-43 0 -117 -16 -181 -50v-326h-59z" />
    <glyph glyph-name="afii10061" unicode="&#x40c;" horiz-adv-x="598" 
d="M518 0l-301 367v19l285 321h74l-295 -326l316 -381h-79zM120 0v707h59v-707h-59zM259 763l-17 41l207 83l22 -55z" />
    <glyph glyph-name="uni040D" unicode="&#x40d;" horiz-adv-x="789" 
d="M120 0v707h59v-528l-3 -110l62 107l372 531h59v-707h-59v528l3 110l-36 -62l-398 -576h-59zM468 748l-211 69l21 55l208 -83z" />
    <glyph glyph-name="afii10062" unicode="&#x40e;" horiz-adv-x="553" 
d="M151 -9l-25 55c58 21 105 46 143 138l15 34h-34l-241 489h65l225 -451l183 451h62l-226 -537c-51 -120 -90 -147 -167 -179zM282 762c-68 0 -119 29 -158 77l34 31c43 -48 94 -56 124 -56s81 8 124 56l34 -31c-39 -48 -90 -77 -158 -77z" />
    <glyph glyph-name="afii10145" unicode="&#x40f;" horiz-adv-x="759" 
d="M350 -153v153h-230v707h59v-655h401v655h59v-707h-230v-153h-59z" />
    <glyph glyph-name="afii10017" unicode="&#x410;" horiz-adv-x="650" 
d="M14 0l284 707h82l260 -707h-64l-101 279h-290l-112 -279h-59zM205 330h252l-120 331z" />
    <glyph glyph-name="afii10018" unicode="&#x411;" horiz-adv-x="635" 
d="M120 0v707h405v-49h-346v-609h154c111 0 169 59 169 159c0 122 -88 157 -200 157h-79v52h80c171 0 262 -67 262 -214c0 -116 -77 -203 -210 -203h-235z" />
    <glyph glyph-name="afii10019" unicode="&#x412;" horiz-adv-x="640" 
d="M120 0v707h180c156 0 219 -74 219 -169c0 -139 -112 -168 -103 -162v-3c-9 4 154 -11 154 -176c0 -114 -66 -197 -240 -197h-210zM180 51h133c101 0 196 20 196 143c0 128 -91 144 -232 144h-97v-287zM180 390h118c119 0 160 46 160 135c0 104 -65 135 -179 135h-99v-270
z" />
    <glyph glyph-name="afii10020" unicode="&#x413;" horiz-adv-x="545" 
d="M120 0v707h395v-49h-336v-658h-59z" />
    <glyph glyph-name="afii10021" unicode="&#x414;" horiz-adv-x="706" 
d="M13 -153v205h59c40 69 72 153 88 196c16 39 53 217 64 459h346v-655h90v-205h-59v153h-529v-153h-59zM140 52h371v603h-233c-19 -230 -48 -375 -59 -407c-19 -62 -39 -110 -79 -196z" />
    <glyph glyph-name="afii10022" unicode="&#x415;" horiz-adv-x="571" 
d="M120 0v707h378v-49h-319v-277h297v-52h-297v-278h342v-51h-401z" />
    <glyph glyph-name="afii10024" unicode="&#x416;" horiz-adv-x="857" 
d="M1 0l291 376l-265 331h74l260 -326v-19l-281 -362h-79zM777 0l-281 362v19l260 326h74l-265 -331l291 -376h-79zM399 0v707h59v-707h-59z" />
    <glyph glyph-name="afii10025" unicode="&#x417;" horiz-adv-x="525" 
d="M214 -8c-100 0 -158 24 -194 39l22 51c49 -23 106 -36 170 -36c99 0 182 37 182 146c0 103 -85 137 -195 137h-67v52h67c100 0 164 52 164 144c0 89 -56 136 -148 136c-65 0 -112 -19 -148 -32l-18 44c43 19 93 38 172 38c129 0 203 -73 203 -173
c0 -120 -86 -167 -113 -178v-2c28 -8 144 -33 144 -161c0 -96 -60 -205 -241 -205z" />
    <glyph glyph-name="afii10026" unicode="&#x418;" horiz-adv-x="789" 
d="M120 0v707h59v-528l-3 -110l62 107l372 531h59v-707h-59v528l3 110l-36 -62l-398 -576h-59z" />
    <glyph glyph-name="afii10027" unicode="&#x419;" horiz-adv-x="789" 
d="M394 762c-68 0 -119 29 -158 77l34 31c43 -48 94 -56 124 -56s81 8 124 56l34 -31c-39 -48 -90 -77 -158 -77zM120 0v707h59v-528l-3 -110l62 107l372 531h59v-707h-59v528l3 110l-36 -62l-398 -576h-59z" />
    <glyph glyph-name="afii10028" unicode="&#x41a;" horiz-adv-x="598" 
d="M518 0l-301 367v19l285 321h74l-295 -326l316 -381h-79zM120 0v707h59v-707h-59z" />
    <glyph glyph-name="afii10029" unicode="&#x41b;" horiz-adv-x="683" 
d="M38 -22l-27 56c53 25 99 69 118 108c32 67 59 256 78 565h356v-707h-59v655h-240c-24 -245 -35 -436 -83 -541c-26 -57 -74 -103 -143 -136z" />
    <glyph glyph-name="afii10030" unicode="&#x41c;" horiz-adv-x="944" 
d="M120 0v707h97l243 -685l269 685h95v-707h-59v571l3 94l-260 -665h-100l-234 662l5 -94v-568h-59z" />
    <glyph glyph-name="afii10031" unicode="&#x41d;" horiz-adv-x="769" 
d="M120 0v707h59v-326h411v326h59v-707h-59v329h-411v-329h-59z" />
    <glyph glyph-name="afii10032" unicode="&#x41e;" horiz-adv-x="815" 
d="M399 -12c-212 0 -339 154 -339 367c0 221 147 362 358 362c220 0 337 -159 337 -364c0 -213 -136 -365 -356 -365zM402 39c197 0 294 139 294 315s-105 312 -287 312c-189 0 -291 -135 -291 -310c0 -168 97 -317 284 -317z" />
    <glyph glyph-name="afii10033" unicode="&#x41f;" horiz-adv-x="759" 
d="M120 0v707h519v-707h-59v655h-401v-655h-59z" />
    <glyph glyph-name="afii10034" unicode="&#x420;" horiz-adv-x="576" 
d="M120 0v707h219c137 0 217 -73 217 -213c0 -124 -80 -224 -269 -224h-23v52h29c112 0 200 43 200 167c0 119 -59 169 -176 169h-137v-658h-60z" />
    <glyph glyph-name="afii10035" unicode="&#x421;" horiz-adv-x="639" 
d="M419 -10c-228 0 -359 155 -359 359c0 217 131 366 355 366c134 0 194 -29 200 -32l-17 -51c-19 7 -77 29 -181 29c-153 0 -295 -81 -295 -302c0 -228 147 -317 315 -317c65 0 131 14 166 25l16 -49c-16 -8 -75 -28 -200 -28z" />
    <glyph glyph-name="afii10036" unicode="&#x422;" horiz-adv-x="553" 
d="M247 0v654h-247v53h553v-53h-247v-654h-59z" />
    <glyph glyph-name="afii10037" unicode="&#x423;" horiz-adv-x="553" 
d="M151 -9l-25 55c58 21 105 46 143 138l15 34h-34l-241 489h65l225 -451l183 451h62l-226 -537c-51 -120 -90 -147 -167 -179z" />
    <glyph glyph-name="afii10038" unicode="&#x424;" horiz-adv-x="811" 
d="M376 0v85c-187 0 -316 93 -316 288s129 288 316 288v76h59v-76c187 0 316 -93 316 -288s-129 -288 -316 -288v-85h-59zM435 610v-474c161 0 257 84 257 237s-96 237 -257 237zM376 136v474c-161 0 -258 -84 -258 -237s97 -237 258 -237z" />
    <glyph glyph-name="afii10039" unicode="&#x425;" horiz-adv-x="583" 
d="M6 0l248 377l-202 330h67l170 -280l181 280h63l-213 -328l233 -379h-69l-199 329l-211 -329h-68z" />
    <glyph glyph-name="afii10040" unicode="&#x426;" horiz-adv-x="765" 
d="M660 -153v153h-540v707h59v-655h391v655h59v-655h90v-205h-59z" />
    <glyph glyph-name="afii10041" unicode="&#x427;" horiz-adv-x="672" 
d="M493 0v334c-64 -27 -146 -45 -214 -45c-171 0 -199 97 -199 182v236h59v-247c0 -115 114 -119 168 -119c44 0 122 15 186 50v316h59v-707h-59z" />
    <glyph glyph-name="afii10042" unicode="&#x428;" horiz-adv-x="1015" 
d="M120 0v707h59v-655h299v655h59v-655h299v655h59v-707h-775z" />
    <glyph glyph-name="afii10043" unicode="&#x429;" horiz-adv-x="1031" 
d="M926 -153v153h-806v707h59v-655h299v655h59v-655h299v655h59v-655h90v-205h-59z" />
    <glyph glyph-name="afii10044" unicode="&#x42a;" horiz-adv-x="682" 
d="M197 0v654h-194v53h253v-658h144c111 0 169 59 169 159c0 122 -88 157 -200 157h-69v52h70c171 0 262 -67 262 -214c0 -116 -77 -203 -210 -203h-225z" />
    <glyph glyph-name="afii10045" unicode="&#x42b;" horiz-adv-x="856" 
d="M120 0v707h59v-658h144c111 0 169 59 169 159c0 122 -88 157 -200 157h-69v52h70c171 0 262 -67 262 -214c0 -116 -77 -203 -210 -203h-225zM677 0v707h59v-707h-59z" />
    <glyph glyph-name="afii10046" unicode="&#x42c;" horiz-adv-x="605" 
d="M120 0v707h59v-658h144c111 0 169 59 169 159c0 122 -88 157 -200 157h-69v52h70c171 0 262 -67 262 -214c0 -116 -77 -203 -210 -203h-225z" />
    <glyph glyph-name="afii10047" unicode="&#x42d;" horiz-adv-x="639" 
d="M220 -10c-125 0 -184 20 -200 28l16 49c35 -11 101 -25 166 -25c163 0 303 83 314 288h-386v52h386c-11 204 -148 279 -294 279c-104 0 -162 -22 -181 -29l-17 51c6 3 66 32 200 32c224 0 355 -139 355 -356c0 -204 -131 -369 -359 -369z" />
    <glyph glyph-name="afii10048" unicode="&#x42e;" horiz-adv-x="1086" 
d="M670 -12c-205 0 -328 141 -339 341h-152v-329h-59v707h59v-326h153c11 206 154 336 357 336c220 0 337 -159 337 -364c0 -213 -136 -365 -356 -365zM673 39c197 0 294 139 294 315s-105 312 -287 312c-189 0 -291 -135 -291 -310c0 -168 97 -317 284 -317z" />
    <glyph glyph-name="afii10049" unicode="&#x42f;" horiz-adv-x="666" 
d="M52 -10l-12 50c69 21 88 39 144 138l74 129c-92 19 -148 89 -148 189c0 134 93 211 217 211h219v-707h-60v291h-107c-23 0 -45 1 -64 3l-95 -167c-51 -89 -97 -128 -168 -137zM373 343h113v315h-137c-108 0 -176 -54 -176 -163c0 -116 88 -152 200 -152z" />
    <glyph glyph-name="afii10065" unicode="&#x430;" horiz-adv-x="555" 
d="M190 -8c-92 0 -146 53 -146 152c0 133 119 161 203 164l139 3v83c0 96 -47 115 -151 115c-48 0 -112 -20 -128 -25l-12 46c13 8 83 29 162 29c108 0 183 -37 183 -140v-320c0 -47 30 -57 52 -60l-5 -45h-8c-40 0 -85 21 -90 72c-22 -14 -78 -74 -199 -74zM207 39
c77 0 172 64 179 71v157l-144 -6c-96 -4 -144 -50 -144 -110c0 -84 41 -112 109 -112z" />
    <glyph glyph-name="afii10066" unicode="&#x431;" horiz-adv-x="596" 
d="M295 -8c-144 0 -225 94 -225 322c0 103 19 282 70 338s182 81 354 119l11 -53c-151 -29 -293 -58 -324 -97c-30 -36 -40 -116 -48 -168c47 27 115 57 191 57c124 0 212 -63 212 -237c0 -192 -105 -281 -241 -281zM300 39c142 0 180 121 180 234c0 104 -43 190 -159 190
c-80 0 -130 -28 -192 -60c-1 -23 -2 -43 -2 -66c0 -203 52 -298 173 -298z" />
    <glyph glyph-name="afii10067" unicode="&#x432;" horiz-adv-x="550" 
d="M100 0v546h178c124 0 183 -53 183 -134c0 -60 -34 -107 -82 -124c60 -9 111 -57 111 -133c0 -91 -63 -155 -199 -155h-191zM155 52h123c78 0 155 14 155 100c0 83 -63 107 -174 107h-104v-207zM155 305h130c87 0 119 40 119 99c0 72 -55 90 -142 90h-107v-189z" />
    <glyph glyph-name="afii10068" unicode="&#x433;" horiz-adv-x="461" 
d="M100 0v546h321v-52h-266v-494h-55z" />
    <glyph glyph-name="afii10069" unicode="&#x434;" horiz-adv-x="598" 
d="M15 -147v198h51c37 55 52 105 74 172c13 39 34 195 37 323h307v-495h74v-198h-53v147h-437v-147h-53zM131 51h298v444h-201c-15 -145 -24 -239 -41 -302c-12 -44 -27 -82 -56 -142z" />
    <glyph glyph-name="afii10070" unicode="&#x435;" horiz-adv-x="529" 
d="M308 -12c-153 0 -248 68 -248 275c0 220 104 297 234 297c125 0 185 -85 185 -272v-20h-362c5 -197 93 -229 215 -229c41 0 112 17 129 23l11 -48c-9 -3 -68 -26 -164 -26zM117 314h303c0 123 -43 203 -138 203c-89 0 -154 -67 -165 -203z" />
    <glyph glyph-name="afii10072" unicode="&#x436;" horiz-adv-x="753" 
d="M733 34l-16 -41c-25 3 -66 11 -136 100l-147 192l214 261h68l-214 -260l109 -147c51 -68 98 -98 122 -105zM36 -7l-16 41c24 7 71 37 122 105l109 147l-214 260h68l214 -261l-147 -192c-67 -89 -112 -97 -136 -100zM349 0v546h55v-546h-55z" />
    <glyph glyph-name="afii10073" unicode="&#x437;" horiz-adv-x="447" 
d="M196 -8c-57 0 -112 9 -168 37l21 47c51 -27 96 -35 148 -35c74 0 133 35 133 113c0 83 -70 104 -151 104h-52v46h52c93 0 126 58 126 108c0 56 -35 97 -112 97c-51 0 -90 -13 -123 -28l-16 45c43 21 102 32 145 32c120 0 163 -70 163 -137s-40 -114 -89 -133
c52 -11 114 -50 114 -134c0 -76 -50 -162 -191 -162z" />
    <glyph glyph-name="afii10074" unicode="&#x438;" horiz-adv-x="637" 
d="M100 0v546h55v-409l-2 -64l39 66l290 407h55v-546h-55v409l2 64l-39 -66l-290 -407h-55z" />
    <glyph glyph-name="afii10075" unicode="&#x439;" horiz-adv-x="637" 
d="M319 661c-65 0 -118 34 -153 82l31 32c41 -49 83 -62 122 -62s81 13 122 62l31 -32c-35 -48 -88 -82 -153 -82zM100 0v546h55v-409l-2 -64l39 66l290 407h55v-546h-55v409l2 64l-39 -66l-290 -407h-55z" />
    <glyph glyph-name="afii10076" unicode="&#x43a;" horiz-adv-x="539" 
d="M519 34l-16 -41c-25 3 -73 14 -146 100l-162 192l229 261h68l-231 -260l126 -147c56 -64 108 -98 132 -105zM100 0v546h55v-546h-55z" />
    <glyph glyph-name="afii10077" unicode="&#x43b;" horiz-adv-x="576" 
d="M31 -17l-22 51c37 16 74 37 99 86c37 72 58 238 63 426h305v-546h-55v495h-195c-13 -199 -30 -321 -67 -399c-28 -57 -67 -90 -128 -113z" />
    <glyph glyph-name="afii10078" unicode="&#x43c;" horiz-adv-x="754" 
d="M100 0v546h84l184 -518l204 518h82v-546h-55v419l3 73l-191 -492h-88l-172 492l4 -73v-419h-55z" />
    <glyph glyph-name="afii10079" unicode="&#x43d;" horiz-adv-x="617" 
d="M100 0v546h55v-246h307v246h55v-546h-55v248h-307v-248h-55z" />
    <glyph glyph-name="afii10080" unicode="&#x43e;" horiz-adv-x="593" 
d="M295 -12c-144 0 -235 98 -235 279c0 191 103 293 241 293c155 0 232 -102 232 -287c0 -193 -102 -285 -238 -285zM300 35c142 0 177 126 177 238c0 104 -33 240 -179 240c-144 0 -181 -134 -181 -241c0 -119 43 -237 183 -237z" />
    <glyph glyph-name="afii10081" unicode="&#x43f;" horiz-adv-x="607" 
d="M100 0v546h407v-546h-55v495h-297v-495h-55z" />
    <glyph glyph-name="afii10082" unicode="&#x440;" horiz-adv-x="589" 
d="M100 -220v766h55v-46c40 27 96 58 157 58c139 0 217 -107 217 -271c0 -228 -120 -298 -251 -298c-53 0 -94 5 -123 10v-219h-55zM281 38c128 0 191 98 191 225c0 120 -24 246 -168 246c-59 0 -134 -50 -149 -62v-396c27 -3 52 -13 126 -13z" />
    <glyph glyph-name="afii10083" unicode="&#x441;" horiz-adv-x="487" 
d="M327 -9c-184 0 -267 84 -267 281c0 179 96 288 244 288c73 0 118 -16 142 -29l-19 -47c-25 11 -64 28 -127 28c-113 0 -183 -91 -183 -236c0 -160 54 -234 218 -234c43 0 87 11 102 14l10 -47c-11 -3 -65 -18 -120 -18z" />
    <glyph glyph-name="afii10084" unicode="&#x442;" horiz-adv-x="501" 
d="M223 0v494h-190v52h435v-52h-190v-494h-55z" />
    <glyph glyph-name="afii10085" unicode="&#x443;" horiz-adv-x="491" 
d="M149 -220l75 220h-31l-173 546h61l125 -408l32 -100l34 98l141 410h58l-267 -766h-55z" />
    <glyph glyph-name="afii10086" unicode="&#x444;" horiz-adv-x="753" 
d="M349 -220v213c-160 0 -289 71 -289 282c0 209 129 282 289 282v197h55v-197c159 0 289 -73 289 -282c0 -211 -130 -282 -289 -282v-213h-55zM404 510v-471c159 0 233 91 233 236s-74 235 -233 235zM349 39v471c-160 0 -232 -90 -232 -235s72 -236 232 -236z" />
    <glyph glyph-name="afii10087" unicode="&#x445;" horiz-adv-x="479" 
d="M21 0l187 279l-177 267h65l144 -223l143 223h62l-174 -264l187 -282h-68l-151 236l-153 -236h-65z" />
    <glyph glyph-name="afii10088" unicode="&#x446;" horiz-adv-x="621" 
d="M528 -147v147h-428v546h55v-495h297v495h55v-495h74v-198h-53z" />
    <glyph glyph-name="afii10089" unicode="&#x447;" horiz-adv-x="548" 
d="M393 0v247c-53 -13 -99 -28 -170 -28c-132 0 -159 65 -159 149v178h55v-170c0 -58 10 -105 127 -105c60 0 106 14 147 27v248h55v-546h-55z" />
    <glyph glyph-name="afii10090" unicode="&#x448;" horiz-adv-x="851" 
d="M100 0v546h55v-495h243v495h55v-495h243v495h55v-546h-651z" />
    <glyph glyph-name="afii10091" unicode="&#x449;" horiz-adv-x="865" 
d="M772 -147v147h-672v546h55v-495h243v495h55v-495h243v495h55v-495h74v-198h-53z" />
    <glyph glyph-name="afii10092" unicode="&#x44a;" horiz-adv-x="577" 
d="M162 0v494h-157v52h212v-494h135c80 0 128 39 128 114c0 84 -65 115 -151 115h-68v52h74c131 0 202 -56 202 -168c0 -95 -61 -165 -162 -165h-213z" />
    <glyph glyph-name="afii10093" unicode="&#x44b;" horiz-adv-x="726" 
d="M100 0v546h55v-494h135c80 0 128 39 128 114c0 84 -65 115 -151 115h-68v52h74c131 0 202 -56 202 -168c0 -95 -61 -165 -162 -165h-213zM569 0v546h57v-546h-57z" />
    <glyph glyph-name="afii10094" unicode="&#x44c;" horiz-adv-x="515" 
d="M100 0v546h55v-494h135c80 0 128 39 128 114c0 84 -65 115 -151 115h-68v52h74c131 0 202 -56 202 -168c0 -95 -61 -165 -162 -165h-213z" />
    <glyph glyph-name="afii10095" unicode="&#x44d;" horiz-adv-x="493" 
d="M185 -11c-67 0 -118 19 -145 34l20 44c23 -11 57 -31 120 -31c133 0 190 100 195 215h-238v52h238c-5 98 -45 209 -177 209c-64 0 -111 -21 -131 -30l-19 47c35 16 86 30 153 30c155 0 232 -101 232 -286c0 -184 -112 -284 -248 -284z" />
    <glyph glyph-name="afii10096" unicode="&#x44e;" horiz-adv-x="807" 
d="M509 -8c-140 0 -228 85 -235 256h-119v-248h-55v546h55v-246h120c11 169 110 258 240 258c155 0 232 -100 232 -285c0 -192 -102 -281 -238 -281zM514 39c142 0 177 121 177 234c0 104 -33 238 -179 238c-144 0 -181 -132 -181 -239c0 -120 43 -233 183 -233z" />
    <glyph glyph-name="afii10097" unicode="&#x44f;" horiz-adv-x="567" 
d="M56 -5l-11 46c55 13 80 38 118 95l51 85c-68 19 -111 73 -111 148c0 108 80 177 188 177h176v-546h-55v207h-97c-13 0 -31 1 -42 2l-77 -120c-53 -79 -106 -91 -140 -94zM310 253h102v241h-120c-88 0 -132 -43 -132 -126c0 -84 66 -115 150 -115z" />
    <glyph glyph-name="uni0450" unicode="&#x450;" horiz-adv-x="529" 
d="M308 -12c-153 0 -248 68 -248 275c0 220 104 297 234 297c125 0 185 -85 185 -272v-20h-362c5 -197 93 -229 215 -229c41 0 112 17 129 23l11 -48c-9 -3 -68 -26 -164 -26zM117 314h303c0 123 -43 203 -138 203c-89 0 -154 -67 -165 -203zM321 623l-180 125l31 45
l176 -132z" />
    <glyph glyph-name="afii10071" unicode="&#x451;" horiz-adv-x="529" 
d="M308 -12c-153 0 -248 68 -248 275c0 220 104 297 234 297c125 0 185 -85 185 -272v-20h-362c5 -197 93 -229 215 -229c41 0 112 17 129 23l11 -48c-9 -3 -68 -26 -164 -26zM117 314h303c0 123 -43 203 -138 203c-89 0 -154 -67 -165 -203zM168 669l-46 47l46 46l46 -46z
M372 669l-46 47l46 46l47 -46z" />
    <glyph glyph-name="afii10099" unicode="&#x452;" horiz-adv-x="606" 
d="M342 -220l-33 37c90 80 169 217 169 411c0 115 -34 195 -130 195c-88 0 -170 -60 -193 -76v-347h-55v580h-109v52h109v122h55v-122h194v-52h-194v-183c40 26 109 76 193 76c140 0 187 -112 187 -237c0 -246 -126 -405 -193 -456z" />
    <glyph glyph-name="afii10100" unicode="&#x453;" horiz-adv-x="461" 
d="M100 0v546h321v-52h-266v-494h-55zM188 623l-26 39l175 130l32 -44z" />
    <glyph glyph-name="afii10101" unicode="&#x454;" horiz-adv-x="487" 
d="M327 -11c-184 0 -267 86 -267 283c0 179 96 288 244 288c73 0 118 -16 142 -29l-19 -47c-25 11 -64 28 -127 28c-104 0 -171 -78 -182 -202h242v-52h-243c5 -147 57 -218 218 -218c43 0 87 11 102 14l10 -47c-12 -3 -64 -18 -120 -18z" />
    <glyph glyph-name="afii10102" unicode="&#x455;" horiz-adv-x="453" 
d="M206 -11c-72 0 -124 15 -149 23l12 49c27 -8 80 -25 133 -25c85 0 148 36 148 97c0 143 -275 99 -275 283c0 93 72 144 175 144c59 0 108 -18 119 -21l-11 -47c-17 5 -58 20 -119 20c-72 0 -111 -41 -111 -92c0 -143 273 -103 273 -279c0 -120 -106 -152 -195 -152z" />
    <glyph glyph-name="afii10103" unicode="&#x456;" horiz-adv-x="257" 
d="M99 0v546h57v-546h-57zM126 661l-53 55l53 54l55 -54z" />
    <glyph glyph-name="afii10104" unicode="&#x457;" horiz-adv-x="257" 
d="M99 0v546h57v-546h-57zM24 669l-46 47l46 46l46 -46zM228 669l-46 47l46 46l47 -46z" />
    <glyph glyph-name="afii10105" unicode="&#x458;" horiz-adv-x="257" 
d="M-18 -220c-27 0 -44 5 -55 8l9 47c11 -3 35 -6 48 -6c92 0 116 65 116 151v566h55v-567c0 -152 -74 -199 -173 -199zM126 661l-53 55l53 54l55 -54z" />
    <glyph glyph-name="afii10106" unicode="&#x459;" horiz-adv-x="836" 
d="M31 -17l-22 51c37 16 74 37 99 86c37 72 58 238 63 426h305v-494h135c80 0 128 39 128 114c0 84 -65 115 -151 115h-68v52h74c131 0 202 -56 202 -168c0 -95 -61 -165 -162 -165h-213v495h-195c-13 -194 -29 -316 -64 -393c-28 -61 -67 -96 -131 -119z" />
    <glyph glyph-name="afii10107" unicode="&#x45a;" horiz-adv-x="867" 
d="M100 0v546h55v-230h297v230h55v-494h135c80 0 128 35 128 106c0 80 -65 106 -151 106h-68v52h74c131 0 202 -52 202 -159c0 -90 -61 -157 -162 -157h-213v264h-297v-264h-55z" />
    <glyph glyph-name="afii10108" unicode="&#x45b;" horiz-adv-x="606" 
d="M100 0v580h-109v52h109v122h55v-122h194v-52h-194v-183c39 29 99 76 194 76c157 0 164 -117 164 -203v-270h-51v267c0 100 -12 156 -124 156c-67 0 -160 -61 -183 -76v-347h-55z" />
    <glyph glyph-name="afii10109" unicode="&#x45c;" horiz-adv-x="539" 
d="M519 34l-16 -41c-25 3 -73 14 -146 100l-162 192l229 261h68l-231 -260l126 -147c56 -64 108 -98 132 -105zM100 0v546h55v-546h-55zM211 623l-26 39l175 130l32 -44z" />
    <glyph glyph-name="uni045D" unicode="&#x45d;" horiz-adv-x="637" 
d="M100 0v546h55v-409l-2 -64l39 66l290 407h55v-546h-55v409l2 64l-39 -66l-290 -407h-55zM359 623l-180 125l31 45l176 -132z" />
    <glyph glyph-name="afii10110" unicode="&#x45e;" horiz-adv-x="491" 
d="M149 -220l75 220h-31l-173 546h61l125 -408l32 -100l34 98l141 410h58l-267 -766h-55zM245 671c-65 0 -118 34 -153 82l31 32c41 -49 83 -62 122 -62s81 13 122 62l31 -32c-35 -48 -88 -82 -153 -82z" />
    <glyph glyph-name="afii10193" unicode="&#x45f;" horiz-adv-x="607" 
d="M277 -147v147h-177v546h55v-495h297v495h55v-546h-177v-147h-53z" />
    <glyph glyph-name="afii10146" unicode="&#x462;" horiz-adv-x="613" 
d="M158 0v542h-198v52h198v113h59v-113h230v-51h-230v-494h144c111 0 169 55 169 151c0 118 -88 149 -200 149h-69v52h70c171 0 262 -65 262 -206c0 -113 -77 -195 -210 -195h-225z" />
    <glyph glyph-name="afii10194" unicode="&#x463;" horiz-adv-x="543" 
d="M128 0v494h-178v52h178v161h55v-161h202v-52h-202v-442h135c80 0 128 39 128 114c0 84 -65 115 -151 115h-68v52h74c131 0 202 -56 202 -168c0 -95 -61 -165 -162 -165h-213z" />
    <glyph glyph-name="afii10147" unicode="&#x472;" horiz-adv-x="815" 
d="M399 -12c-212 0 -339 154 -339 367c0 221 147 362 358 362c220 0 337 -159 337 -364c0 -213 -136 -365 -356 -365zM402 39c188 0 285 127 293 292h-577c8 -159 106 -292 284 -292zM119 382h576c-11 163 -114 284 -286 284c-180 0 -282 -121 -290 -284z" />
    <glyph glyph-name="afii10195" unicode="&#x473;" horiz-adv-x="593" 
d="M295 -12c-144 0 -235 98 -235 279c0 191 103 293 241 293c155 0 232 -102 232 -287c0 -193 -102 -285 -238 -285zM300 35c131 0 173 108 176 215h-359c5 -111 50 -215 183 -215zM117 298h359c-5 100 -44 215 -178 215c-132 0 -176 -114 -181 -215z" />
    <glyph glyph-name="afii10148" unicode="&#x474;" horiz-adv-x="626" 
d="M259 0l-259 707h66l238 -659l189 473c51 127 90 180 129 207l43 -33c-35 -24 -68 -68 -108 -166l-212 -529h-86z" />
    <glyph glyph-name="afii10196" unicode="&#x475;" horiz-adv-x="495" 
d="M193 0l-173 546h62l120 -396l37 -118l41 121l73 210c33 97 79 170 118 198l41 -33c-43 -31 -80 -95 -113 -192l-117 -336h-89z" />
    <glyph glyph-name="afii10050" unicode="&#x490;" horiz-adv-x="545" 
d="M120 0v707h326v161h59v-210h-326v-658h-59z" />
    <glyph glyph-name="afii10098" unicode="&#x491;" horiz-adv-x="461" 
d="M100 0v546h266v114h55v-166h-266v-494h-55z" />
    <glyph glyph-name="afii10798" unicode="&#x4d8;" horiz-adv-x="745" 
d="M359 -12c-204 0 -301 143 -309 343v51h575c-8 163 -93 284 -266 284c-114 0 -218 -50 -258 -69l-16 47c53 27 158 73 283 73c220 0 317 -159 317 -364c0 -213 -106 -365 -326 -365zM362 39c188 0 258 127 263 292h-517c8 -159 75 -292 254 -292z" />
    <glyph glyph-name="afii10846" unicode="&#x4d9;" horiz-adv-x="529" 
d="M221 561c153 0 248 -68 248 -275c0 -220 -104 -297 -234 -297c-125 0 -185 85 -185 272v20h362c-3 197 -95 229 -215 229c-41 0 -112 -17 -129 -23l-11 48c7 5 69 26 164 26zM412 235h-303c0 -123 42 -203 138 -203c89 0 154 67 165 203z" />
    <glyph glyph-name="uni1E47" unicode="&#x1e47;" horiz-adv-x="607" 
d="M100 0v546h55v-64c55 38 112 78 194 78c158 0 166 -119 166 -205v-355h-53v339c0 100 -12 171 -124 171c-67 0 -135 -48 -183 -78v-432h-55zM303 -203l-53 55l53 54l55 -54z" />
    <glyph glyph-name="uni1E63" unicode="&#x1e63;" horiz-adv-x="453" 
d="M206 -11c-71 0 -124 15 -149 23l12 49c26 -8 80 -25 133 -25c85 0 148 36 148 97c0 144 -275 98 -275 283c0 93 72 144 175 144c58 0 109 -18 119 -21l-11 -47c-17 5 -58 20 -119 20c-72 0 -111 -41 -111 -92c0 -143 273 -103 273 -279c0 -120 -106 -152 -195 -152z
M208 -203l-53 55l53 54l55 -54z" />
    <glyph glyph-name="Wgrave" unicode="&#x1e80;" horiz-adv-x="998" 
d="M218 0l-208 707h63l195 -672l200 498l-59 174h61l230 -673l230 673h58l-242 -707h-94l-157 457l-184 -457h-93zM562 748l-211 69l21 55l208 -83z" />
    <glyph glyph-name="wgrave" unicode="&#x1e81;" horiz-adv-x="870" 
d="M197 0l-177 546h58l160 -510l161 510h76l142 -510l178 510h55l-195 -546h-80l-122 426l-17 71l-19 -70l-140 -427h-80zM496 623l-180 125l31 45l176 -132z" />
    <glyph glyph-name="Wacute" unicode="&#x1e82;" horiz-adv-x="998" 
d="M218 0l-208 707h63l195 -672l200 498l-59 174h61l230 -673l230 673h58l-242 -707h-94l-157 457l-184 -457h-93zM420 748l-17 41l207 83l22 -55z" />
    <glyph glyph-name="wacute" unicode="&#x1e83;" horiz-adv-x="870" 
d="M197 0l-177 546h58l160 -510l161 510h76l142 -510l178 510h55l-195 -546h-80l-122 426l-17 71l-19 -70l-140 -427h-80zM384 623l-26 39l175 130l32 -44z" />
    <glyph glyph-name="Wdieresis" unicode="&#x1e84;" horiz-adv-x="998" 
d="M218 0l-208 707h63l195 -672l200 498l-59 174h61l230 -673l230 673h58l-242 -707h-94l-157 457l-184 -457h-93zM394 750l-46 47l46 46l46 -46zM598 750l-46 47l46 46l47 -46z" />
    <glyph glyph-name="wdieresis" unicode="&#x1e85;" horiz-adv-x="870" 
d="M197 0l-177 546h58l160 -510l161 510h76l142 -510l178 510h55l-195 -546h-80l-122 426l-17 71l-19 -70l-140 -427h-80zM332 669l-46 47l46 46l46 -46zM536 669l-46 47l46 46l47 -46z" />
    <glyph glyph-name="uni1EBD" unicode="&#x1ebd;" horiz-adv-x="529" 
d="M308 -12c-153 0 -248 68 -248 275c0 220 104 297 234 297c125 0 185 -87 185 -272v-20h-362c4 -198 94 -229 215 -229c40 0 113 17 129 23l11 -48c-7 -4 -69 -26 -164 -26zM117 314h303c0 122 -43 203 -138 203c-89 0 -154 -68 -165 -203zM346 648c-46 0 -78 37 -123 37
c-34 0 -47 -8 -68 -24l-23 38c7 5 35 35 95 35c50 0 82 -36 123 -36c34 0 59 21 66 28l24 -36c-6 -7 -39 -42 -94 -42z" />
    <glyph glyph-name="Ygrave" unicode="&#x1ef2;" horiz-adv-x="531" 
d="M229 0v279l-223 428h65l190 -374l203 374h61l-237 -430v-277h-59zM327 748l-211 69l21 55l208 -83z" />
    <glyph glyph-name="ygrave" unicode="&#x1ef3;" horiz-adv-x="491" 
d="M149 -220l75 220h-31l-173 546h61l125 -408l32 -100l34 98l141 410h58l-267 -766h-55zM305 623l-180 125l31 45l176 -132z" />
    <glyph glyph-name="uni1F00" unicode="&#x1f00;" 
d="M247 -8c-77 0 -187 37 -187 258c0 198 114 310 249 310c72 0 133 -15 173 -34v-421c0 -47 17 -66 52 -66l-5 -45c-15 1 -31 2 -43 7c-47 19 -54 55 -54 127c-24 -76 -110 -136 -185 -136zM250 40c74 0 164 69 177 214v235c-27 11 -61 23 -120 23
c-140 0 -190 -130 -190 -262c0 -139 49 -210 133 -210zM324 633h-49c5 11 10 22 15 34c8 21 15 51 15 82c0 13 -2 27 -5 42h59c5 -19 8 -36 8 -51c0 -44 -19 -80 -43 -107z" />
    <glyph glyph-name="uni1F01" unicode="&#x1f01;" 
d="M247 -8c-77 0 -187 37 -187 258c0 198 114 310 249 310c72 0 133 -15 173 -34v-421c0 -47 17 -66 52 -66l-5 -45c-15 1 -31 2 -43 7c-47 19 -54 55 -54 127c-24 -76 -110 -136 -185 -136zM250 40c74 0 164 69 177 214v235c-27 11 -61 23 -120 23
c-140 0 -190 -130 -190 -262c0 -139 49 -210 133 -210zM371 633h-49c-24 27 -43 63 -43 107c0 15 3 32 8 51h59c-3 -15 -5 -29 -5 -42c0 -31 7 -61 15 -82c5 -12 10 -23 15 -34z" />
    <glyph glyph-name="uni1F02" unicode="&#x1f02;" 
d="M247 -8c-77 0 -187 37 -187 258c0 198 114 310 249 310c72 0 133 -15 173 -34v-421c0 -47 17 -66 52 -66l-5 -45c-15 1 -31 2 -43 7c-47 19 -54 55 -54 127c-24 -76 -110 -136 -185 -136zM250 40c74 0 164 69 177 214v235c-27 11 -61 23 -120 23
c-140 0 -190 -130 -190 -262c0 -139 49 -210 133 -210zM250 633h-49c5 11 10 22 15 34c8 21 15 51 15 82c0 13 -2 27 -5 42h59c5 -19 8 -36 8 -51c0 -44 -19 -80 -43 -107zM395 633l-86 158h60l78 -158h-52z" />
    <glyph glyph-name="uni1F03" unicode="&#x1f03;" 
d="M247 -8c-77 0 -187 37 -187 258c0 198 114 310 249 310c72 0 133 -15 173 -34v-421c0 -47 17 -66 52 -66l-5 -45c-15 1 -31 2 -43 7c-47 19 -54 55 -54 127c-24 -76 -110 -136 -185 -136zM250 40c74 0 164 69 177 214v235c-27 11 -61 23 -120 23
c-140 0 -190 -130 -190 -262c0 -139 49 -210 133 -210zM287 633h-49c-24 27 -43 63 -43 107c0 15 3 32 8 51h59c-3 -15 -5 -29 -5 -42c0 -31 7 -61 15 -82c5 -12 10 -23 15 -34zM367 633l-86 158h60l78 -158h-52z" />
    <glyph glyph-name="uni1F04" unicode="&#x1f04;" 
d="M247 -8c-77 0 -187 37 -187 258c0 198 114 310 249 310c72 0 133 -15 173 -34v-421c0 -47 17 -66 52 -66l-5 -45c-15 1 -31 2 -43 7c-47 19 -54 55 -54 127c-24 -76 -110 -136 -185 -136zM250 40c74 0 164 69 177 214v235c-27 11 -61 23 -120 23
c-140 0 -190 -130 -190 -262c0 -139 49 -210 133 -210zM279 633h-49c5 11 10 22 15 34c8 21 15 51 15 82c0 13 -2 27 -5 42h59c5 -19 8 -36 8 -51c0 -44 -19 -80 -43 -107zM318 633l78 158h60l-86 -158h-52z" />
    <glyph glyph-name="uni1F05" unicode="&#x1f05;" 
d="M247 -8c-77 0 -187 37 -187 258c0 198 114 310 249 310c72 0 133 -15 173 -34v-421c0 -47 17 -66 52 -66l-5 -45c-15 1 -31 2 -43 7c-47 19 -54 55 -54 127c-24 -76 -110 -136 -185 -136zM250 40c74 0 164 69 177 214v235c-27 11 -61 23 -120 23
c-140 0 -190 -130 -190 -262c0 -139 49 -210 133 -210zM311 633h-49c-24 27 -43 63 -43 107c0 15 3 32 8 51h59c-3 -15 -5 -29 -5 -42c0 -31 7 -61 15 -82c5 -12 10 -23 15 -34zM333 633l78 158h60l-86 -158h-52z" />
    <glyph glyph-name="uni1F06" unicode="&#x1f06;" 
d="M247 -8c-77 0 -187 37 -187 258c0 198 114 310 249 310c72 0 133 -15 173 -34v-421c0 -47 17 -66 52 -66l-5 -45c-15 1 -31 2 -43 7c-47 19 -54 55 -54 127c-24 -76 -110 -136 -185 -136zM250 40c74 0 164 69 177 214v235c-27 11 -61 23 -120 23
c-140 0 -190 -130 -190 -262c0 -139 49 -210 133 -210zM390 794c-45 0 -78 37 -123 37c-35 0 -48 -9 -69 -24l-22 38c7 5 35 35 95 35c50 0 82 -36 123 -36c35 0 59 21 66 28l24 -36c-5 -8 -41 -42 -94 -42zM327 615h-49c5 11 10 22 15 34c8 21 15 51 15 82
c0 13 -2 27 -5 42h59c5 -19 8 -36 8 -51c0 -44 -19 -80 -43 -107z" />
    <glyph glyph-name="uni1F07" unicode="&#x1f07;" 
d="M247 -8c-77 0 -187 37 -187 258c0 198 114 310 249 310c72 0 133 -15 173 -34v-421c0 -47 17 -66 52 -66l-5 -45c-15 1 -31 2 -43 7c-47 19 -54 55 -54 127c-24 -76 -110 -136 -185 -136zM250 40c74 0 164 69 177 214v235c-27 11 -61 23 -120 23
c-140 0 -190 -130 -190 -262c0 -139 49 -210 133 -210zM369 794c-45 0 -78 37 -123 37c-35 0 -48 -9 -69 -24l-22 38c7 5 35 35 95 35c50 0 82 -36 123 -36c35 0 59 21 66 28l24 -36c-5 -8 -41 -42 -94 -42zM355 615h-49c-24 27 -43 63 -43 107c0 15 3 32 8 51h59
c-3 -15 -5 -29 -5 -42c0 -31 7 -61 15 -82c5 -12 10 -23 15 -34z" />
    <glyph glyph-name="uni1F08" unicode="&#x1f08;" horiz-adv-x="650" 
d="M115 549h-49c5 11 10 22 15 34c8 21 15 51 15 82c0 13 -2 27 -5 42h59c5 -19 8 -36 8 -51c0 -44 -19 -80 -43 -107zM14 0l284 707h82l260 -707h-64l-101 279h-290l-112 -279h-59zM205 330h252l-120 331z" />
    <glyph glyph-name="uni1F09" unicode="&#x1f09;" horiz-adv-x="650" 
d="M147 549h-49c-24 27 -43 63 -43 107c0 15 3 32 8 51h59c-3 -15 -5 -29 -5 -42c0 -31 7 -61 15 -82c5 -12 10 -23 15 -34zM14 0l284 707h82l260 -707h-64l-101 279h-290l-112 -279h-59zM205 330h252l-120 331z" />
    <glyph glyph-name="uni1F0A" unicode="&#x1f0a;" horiz-adv-x="650" 
d="M4 549h-49c5 11 10 22 15 34c8 21 15 51 15 82c0 13 -2 27 -5 42h59c5 -19 8 -36 8 -51c0 -44 -19 -80 -43 -107zM149 549l-86 158h60l78 -158h-52zM14 0l284 707h82l260 -707h-64l-101 279h-290l-112 -279h-59zM205 330h252l-120 331z" />
    <glyph glyph-name="uni1F0B" unicode="&#x1f0b;" horiz-adv-x="650" 
d="M28 549h-49c-24 27 -43 63 -43 107c0 15 3 32 8 51h59c-3 -15 -5 -29 -5 -42c0 -31 7 -61 15 -82c5 -12 10 -23 15 -34zM108 549l-86 158h60l78 -158h-52zM14 0l284 707h82l260 -707h-64l-101 279h-290l-112 -279h-59zM205 330h252l-120 331z" />
    <glyph glyph-name="uni1F0C" unicode="&#x1f0c;" horiz-adv-x="650" 
d="M46 549h-49c5 11 10 22 15 34c8 21 15 51 15 82c0 13 -2 27 -5 42h59c5 -19 8 -36 8 -51c0 -44 -19 -80 -43 -107zM85 549l78 158h60l-86 -158h-52zM14 0l284 707h82l260 -707h-64l-101 279h-290l-112 -279h-59zM205 330h252l-120 331z" />
    <glyph glyph-name="uni1F0D" unicode="&#x1f0d;" horiz-adv-x="650" 
d="M60 549h-49c-24 27 -43 63 -43 107c0 15 3 32 8 51h59c-3 -15 -5 -29 -5 -42c0 -31 7 -61 15 -82c5 -12 10 -23 15 -34zM82 549l78 158h60l-86 -158h-52zM14 0l284 707h82l260 -707h-64l-101 279h-290l-112 -279h-59zM205 330h252l-120 331z" />
    <glyph glyph-name="uni1F0E" unicode="&#x1f0e;" horiz-adv-x="650" 
d="M132 620c-45 0 -78 37 -123 37c-35 0 -48 -9 -69 -24l-22 38c7 5 34 35 95 35c50 0 82 -36 123 -36c35 0 59 21 66 28l24 -36c-5 -8 -41 -42 -94 -42zM69 441h-49c5 11 10 22 15 34c8 21 15 51 15 82c0 13 -2 27 -5 42h59c5 -19 8 -36 8 -51c0 -44 -19 -80 -43 -107z
M14 0l284 707h82l260 -707h-64l-101 279h-290l-112 -279h-59zM205 330h252l-120 331z" />
    <glyph glyph-name="uni1F0F" unicode="&#x1f0f;" horiz-adv-x="650" 
d="M116 620c-45 0 -78 37 -123 37c-35 0 -48 -9 -69 -24l-22 38c7 5 34 35 95 35c50 0 82 -36 123 -36c35 0 59 21 66 28l24 -36c-5 -8 -41 -42 -94 -42zM102 441h-49c-24 27 -43 63 -43 107c0 15 3 32 8 51h59c-3 -15 -5 -29 -5 -42c0 -31 7 -61 15 -82
c5 -12 10 -23 15 -34zM14 0l284 707h82l260 -707h-64l-101 279h-290l-112 -279h-59zM205 330h252l-120 331z" />
    <glyph glyph-name="uni1F10" unicode="&#x1f10;" horiz-adv-x="495" 
d="M269 -11c-145 0 -212 56 -212 159c0 67 39 122 111 146c-55 19 -88 55 -88 119c0 75 61 147 202 147c92 0 141 -21 168 -34l-19 -47c-22 8 -81 34 -153 34c-92 0 -141 -37 -141 -98c0 -84 61 -97 99 -97h120v-45h-124c-44 0 -117 -33 -117 -122c0 -61 45 -113 160 -113
c71 0 112 14 163 34l17 -42c-36 -19 -99 -41 -186 -41zM311 633h-49c5 11 10 22 15 34c8 21 15 51 15 82c0 13 -2 27 -5 42h59c5 -19 8 -36 8 -51c0 -44 -19 -80 -43 -107z" />
    <glyph glyph-name="uni1F11" unicode="&#x1f11;" horiz-adv-x="495" 
d="M269 -11c-145 0 -212 56 -212 159c0 67 39 122 111 146c-55 19 -88 55 -88 119c0 75 61 147 202 147c92 0 141 -21 168 -34l-19 -47c-22 8 -81 34 -153 34c-92 0 -141 -37 -141 -98c0 -84 61 -97 99 -97h120v-45h-124c-44 0 -117 -33 -117 -122c0 -61 45 -113 160 -113
c71 0 112 14 163 34l17 -42c-36 -19 -99 -41 -186 -41zM331 633h-49c-24 27 -43 63 -43 107c0 15 3 32 8 51h59c-3 -15 -5 -29 -5 -42c0 -31 7 -61 15 -82c5 -12 10 -23 15 -34z" />
    <glyph glyph-name="uni1F12" unicode="&#x1f12;" horiz-adv-x="495" 
d="M269 -11c-145 0 -212 56 -212 159c0 67 39 122 111 146c-55 19 -88 55 -88 119c0 75 61 147 202 147c92 0 141 -21 168 -34l-19 -47c-22 8 -81 34 -153 34c-92 0 -141 -37 -141 -98c0 -84 61 -97 99 -97h120v-45h-124c-44 0 -117 -33 -117 -122c0 -61 45 -113 160 -113
c71 0 112 14 163 34l17 -42c-36 -19 -99 -41 -186 -41zM216 633h-49c5 11 10 22 15 34c8 21 15 51 15 82c0 13 -2 27 -5 42h59c5 -19 8 -36 8 -51c0 -44 -19 -80 -43 -107zM361 633l-86 158h60l78 -158h-52z" />
    <glyph glyph-name="uni1F13" unicode="&#x1f13;" horiz-adv-x="495" 
d="M269 -11c-145 0 -212 56 -212 159c0 67 39 122 111 146c-55 19 -88 55 -88 119c0 75 61 147 202 147c92 0 141 -21 168 -34l-19 -47c-22 8 -81 34 -153 34c-92 0 -141 -37 -141 -98c0 -84 61 -97 99 -97h120v-45h-124c-44 0 -117 -33 -117 -122c0 -61 45 -113 160 -113
c71 0 112 14 163 34l17 -42c-36 -19 -99 -41 -186 -41zM253 633h-49c-24 27 -43 63 -43 107c0 15 3 32 8 51h59c-3 -15 -5 -29 -5 -42c0 -31 7 -61 15 -82c5 -12 10 -23 15 -34zM333 633l-86 158h60l78 -158h-52z" />
    <glyph glyph-name="uni1F14" unicode="&#x1f14;" horiz-adv-x="495" 
d="M269 -11c-145 0 -212 56 -212 159c0 67 39 122 111 146c-55 19 -88 55 -88 119c0 75 61 147 202 147c92 0 141 -21 168 -34l-19 -47c-22 8 -81 34 -153 34c-92 0 -141 -37 -141 -98c0 -84 61 -97 99 -97h120v-45h-124c-44 0 -117 -33 -117 -122c0 -61 45 -113 160 -113
c71 0 112 14 163 34l17 -42c-36 -19 -99 -41 -186 -41zM254 633h-49c5 11 10 22 15 34c8 21 15 51 15 82c0 13 -2 27 -5 42h59c5 -19 8 -36 8 -51c0 -44 -19 -80 -43 -107zM293 633l78 158h60l-86 -158h-52z" />
    <glyph glyph-name="uni1F15" unicode="&#x1f15;" horiz-adv-x="495" 
d="M269 -11c-145 0 -212 56 -212 159c0 67 39 122 111 146c-55 19 -88 55 -88 119c0 75 61 147 202 147c92 0 141 -21 168 -34l-19 -47c-22 8 -81 34 -153 34c-92 0 -141 -37 -141 -98c0 -84 61 -97 99 -97h120v-45h-124c-44 0 -117 -33 -117 -122c0 -61 45 -113 160 -113
c71 0 112 14 163 34l17 -42c-36 -19 -99 -41 -186 -41zM274 633h-49c-24 27 -43 63 -43 107c0 15 3 32 8 51h59c-3 -15 -5 -29 -5 -42c0 -31 7 -61 15 -82c5 -12 10 -23 15 -34zM296 633l78 158h60l-86 -158h-52z" />
    <glyph glyph-name="uni1F18" unicode="&#x1f18;" horiz-adv-x="571" 
d="M19 549h-49c5 11 10 22 15 34c8 21 15 51 15 82c0 13 -2 27 -5 42h59c5 -19 8 -36 8 -51c0 -44 -19 -80 -43 -107zM120 0v707h378v-49h-319v-277h297v-52h-297v-278h342v-51h-401z" />
    <glyph glyph-name="uni1F19" unicode="&#x1f19;" horiz-adv-x="571" 
d="M86 549h-49c-24 27 -43 63 -43 107c0 15 3 32 8 51h59c-3 -15 -5 -29 -5 -42c0 -31 7 -61 15 -82c5 -12 10 -23 15 -34zM120 0v707h378v-49h-319v-277h297v-52h-297v-278h342v-51h-401z" />
    <glyph glyph-name="uni1F1A" unicode="&#x1f1a;" horiz-adv-x="571" 
d="M-111 549h-49c5 11 10 22 15 34c8 21 15 51 15 82c0 13 -2 27 -5 42h59c5 -19 8 -36 8 -51c0 -44 -19 -80 -43 -107zM34 549l-86 158h60l78 -158h-52zM120 0v707h378v-49h-319v-277h297v-52h-297v-278h342v-51h-401z" />
    <glyph glyph-name="uni1F1B" unicode="&#x1f1b;" horiz-adv-x="571" 
d="M-63 549h-49c-24 27 -43 63 -43 107c0 15 3 32 8 51h59c-3 -15 -5 -29 -5 -42c0 -31 7 -61 15 -82c5 -12 10 -23 15 -34zM17 549l-86 158h60l78 -158h-52zM120 0v707h378v-49h-319v-277h297v-52h-297v-278h342v-51h-401z" />
    <glyph glyph-name="uni1F1C" unicode="&#x1f1c;" horiz-adv-x="571" 
d="M-94 549h-49c5 11 10 22 15 34c8 21 15 51 15 82c0 13 -2 27 -5 42h59c5 -19 8 -36 8 -51c0 -44 -19 -80 -43 -107zM-55 549l78 158h60l-86 -158h-52zM120 0v707h378v-49h-319v-277h297v-52h-297v-278h342v-51h-401z" />
    <glyph glyph-name="uni1F1D" unicode="&#x1f1d;" horiz-adv-x="571" 
d="M-82 549h-49c-24 27 -43 63 -43 107c0 15 3 32 8 51h59c-3 -15 -5 -29 -5 -42c0 -31 7 -61 15 -82c5 -12 10 -23 15 -34zM-60 549l78 158h60l-86 -158h-52zM120 0v707h378v-49h-319v-277h297v-52h-297v-278h342v-51h-401z" />
    <glyph glyph-name="uni1F20" unicode="&#x1f20;" horiz-adv-x="621" 
d="M476 -220v559c0 100 -12 170 -124 170c-67 0 -160 -62 -183 -77v-432h-55v454c0 47 -30 57 -52 60l5 45c13 0 26 -2 39 -7c31 -11 56 -31 63 -70c39 28 106 77 194 77c158 0 166 -119 166 -204v-575h-53zM344 633h-49c5 11 10 22 15 34c8 21 15 51 15 82
c0 13 -2 27 -5 42h59c5 -19 8 -36 8 -51c0 -44 -19 -80 -43 -107z" />
    <glyph glyph-name="uni1F21" unicode="&#x1f21;" horiz-adv-x="621" 
d="M476 -220v559c0 100 -12 170 -124 170c-67 0 -160 -62 -183 -77v-432h-55v454c0 47 -30 57 -52 60l5 45c13 0 26 -2 39 -7c31 -11 56 -31 63 -70c39 28 106 77 194 77c158 0 166 -119 166 -204v-575h-53zM371 633h-49c-24 27 -43 63 -43 107c0 15 3 32 8 51h59
c-3 -15 -5 -29 -5 -42c0 -31 7 -61 15 -82c5 -12 10 -23 15 -34z" />
    <glyph glyph-name="uni1F22" unicode="&#x1f22;" horiz-adv-x="621" 
d="M476 -220v559c0 100 -12 170 -124 170c-67 0 -160 -62 -183 -77v-432h-55v454c0 47 -30 57 -52 60l5 45c13 0 26 -2 39 -7c31 -11 56 -31 63 -70c39 28 106 77 194 77c158 0 166 -119 166 -204v-575h-53zM251 633h-49c5 11 10 22 15 34c8 21 15 51 15 82
c0 13 -2 27 -5 42h59c5 -19 8 -36 8 -51c0 -44 -19 -80 -43 -107zM396 633l-86 158h60l78 -158h-52z" />
    <glyph glyph-name="uni1F23" unicode="&#x1f23;" horiz-adv-x="621" 
d="M476 -220v559c0 100 -12 170 -124 170c-67 0 -160 -62 -183 -77v-432h-55v454c0 47 -30 57 -52 60l5 45c13 0 26 -2 39 -7c31 -11 56 -31 63 -70c39 28 106 77 194 77c158 0 166 -119 166 -204v-575h-53zM299 633h-49c-24 27 -43 63 -43 107c0 15 3 32 8 51h59
c-3 -15 -5 -29 -5 -42c0 -31 7 -61 15 -82c5 -12 10 -23 15 -34zM379 633l-86 158h60l78 -158h-52z" />
    <glyph glyph-name="uni1F24" unicode="&#x1f24;" horiz-adv-x="621" 
d="M476 -220v559c0 100 -12 170 -124 170c-67 0 -160 -62 -183 -77v-432h-55v454c0 47 -30 57 -52 60l5 45c13 0 26 -2 39 -7c31 -11 56 -31 63 -70c39 28 106 77 194 77c158 0 166 -119 166 -204v-575h-53zM289 633h-49c5 11 10 22 15 34c8 21 15 51 15 82
c0 13 -2 27 -5 42h59c5 -19 8 -36 8 -51c0 -44 -19 -80 -43 -107zM328 633l78 158h60l-86 -158h-52z" />
    <glyph glyph-name="uni1F25" unicode="&#x1f25;" horiz-adv-x="621" 
d="M476 -220v559c0 100 -12 170 -124 170c-67 0 -160 -62 -183 -77v-432h-55v454c0 47 -30 57 -52 60l5 45c13 0 26 -2 39 -7c31 -11 56 -31 63 -70c39 28 106 77 194 77c158 0 166 -119 166 -204v-575h-53zM311 633h-49c-24 27 -43 63 -43 107c0 15 3 32 8 51h59
c-3 -15 -5 -29 -5 -42c0 -31 7 -61 15 -82c5 -12 10 -23 15 -34zM333 633l78 158h60l-86 -158h-52z" />
    <glyph glyph-name="uni1F26" unicode="&#x1f26;" horiz-adv-x="621" 
d="M476 -220v559c0 100 -12 170 -124 170c-67 0 -160 -62 -183 -77v-432h-55v454c0 47 -30 57 -52 60l5 45c13 0 26 -2 39 -7c31 -11 56 -31 63 -70c39 28 106 77 194 77c158 0 166 -119 166 -204v-575h-53zM394 794c-45 0 -78 37 -123 37c-35 0 -48 -9 -69 -24l-22 38
c7 5 35 35 95 35c50 0 82 -36 123 -36c35 0 59 21 66 28l24 -36c-5 -8 -41 -42 -94 -42zM331 615h-49c5 11 10 22 15 34c8 21 15 51 15 82c0 13 -2 27 -5 42h59c5 -19 8 -36 8 -51c0 -44 -19 -80 -43 -107z" />
    <glyph glyph-name="uni1F27" unicode="&#x1f27;" horiz-adv-x="621" 
d="M476 -220v559c0 100 -12 170 -124 170c-67 0 -160 -62 -183 -77v-432h-55v454c0 47 -30 57 -52 60l5 45c13 0 26 -2 39 -7c31 -11 56 -31 63 -70c39 28 106 77 194 77c158 0 166 -119 166 -204v-575h-53zM384 794c-45 0 -78 37 -123 37c-35 0 -48 -9 -69 -24l-22 38
c7 5 35 35 95 35c50 0 82 -36 123 -36c35 0 59 21 66 28l24 -36c-5 -8 -41 -42 -94 -42zM370 615h-49c-24 27 -43 63 -43 107c0 15 3 32 8 51h59c-3 -15 -5 -29 -5 -42c0 -31 7 -61 15 -82c5 -12 10 -23 15 -34z" />
    <glyph glyph-name="uni1F28" unicode="&#x1f28;" horiz-adv-x="769" 
d="M38 549h-49c5 11 10 22 15 34c8 21 15 51 15 82c0 13 -2 27 -5 42h59c5 -19 8 -36 8 -51c0 -44 -19 -80 -43 -107zM120 0v707h59v-326h411v326h59v-707h-59v329h-411v-329h-59z" />
    <glyph glyph-name="uni1F29" unicode="&#x1f29;" horiz-adv-x="769" 
d="M71 549h-49c-24 27 -43 63 -43 107c0 15 3 32 8 51h59c-3 -15 -5 -29 -5 -42c0 -31 7 -61 15 -82c5 -12 10 -23 15 -34zM120 0v707h59v-326h411v326h59v-707h-59v329h-411v-329h-59z" />
    <glyph glyph-name="uni1F2A" unicode="&#x1f2a;" horiz-adv-x="769" 
d="M-123 549h-49c5 11 10 22 15 34c8 21 15 51 15 82c0 13 -2 27 -5 42h59c5 -19 8 -36 8 -51c0 -44 -19 -80 -43 -107zM22 549l-86 158h60l78 -158h-52zM120 0v707h59v-326h411v326h59v-707h-59v329h-411v-329h-59z" />
    <glyph glyph-name="uni1F2B" unicode="&#x1f2b;" horiz-adv-x="769" 
d="M-42 549h-49c-24 27 -43 63 -43 107c0 15 3 32 8 51h59c-3 -15 -5 -29 -5 -42c0 -31 7 -61 15 -82c5 -12 10 -23 15 -34zM38 549l-86 158h60l78 -158h-52zM120 0v707h59v-326h411v326h59v-707h-59v329h-411v-329h-59z" />
    <glyph glyph-name="uni1F2C" unicode="&#x1f2c;" horiz-adv-x="769" 
d="M-92 549h-49c5 11 10 22 15 34c8 21 15 51 15 82c0 13 -2 27 -5 42h59c5 -19 8 -36 8 -51c0 -44 -19 -80 -43 -107zM-53 549l78 158h60l-86 -158h-52zM120 0v707h59v-326h411v326h59v-707h-59v329h-411v-329h-59z" />
    <glyph glyph-name="uni1F2D" unicode="&#x1f2d;" horiz-adv-x="769" 
d="M-81 549h-49c-24 27 -43 63 -43 107c0 15 3 32 8 51h59c-3 -15 -5 -29 -5 -42c0 -31 7 -61 15 -82c5 -12 10 -23 15 -34zM-59 549l78 158h60l-86 -158h-52zM120 0v707h59v-326h411v326h59v-707h-59v329h-411v-329h-59z" />
    <glyph glyph-name="uni1F2E" unicode="&#x1f2e;" horiz-adv-x="769" 
d="M-10 620c-45 0 -78 37 -123 37c-35 0 -48 -9 -69 -24l-22 38c7 5 34 35 95 35c50 0 82 -36 123 -36c35 0 59 21 66 28l24 -36c-5 -8 -41 -42 -94 -42zM-73 441h-49c5 11 10 22 15 34c8 21 15 51 15 82c0 13 -2 27 -5 42h59c5 -19 8 -36 8 -51c0 -44 -19 -80 -43 -107z
M120 0v707h59v-326h411v326h59v-707h-59v329h-411v-329h-59z" />
    <glyph glyph-name="uni1F2F" unicode="&#x1f2f;" horiz-adv-x="769" 
d="M-14 621c-45 0 -78 37 -123 37c-35 0 -48 -9 -69 -24l-22 38c7 5 34 35 95 35c50 0 82 -36 123 -36c35 0 59 21 66 28l24 -36c-5 -8 -41 -42 -94 -42zM-28 442h-49c-24 27 -43 63 -43 107c0 15 3 32 8 51h59c-3 -15 -5 -29 -5 -42c0 -31 7 -61 15 -82
c5 -12 10 -23 15 -34zM120 0v707h59v-326h411v326h59v-707h-59v329h-411v-329h-59z" />
    <glyph glyph-name="uni1F30" unicode="&#x1f30;" horiz-adv-x="257" 
d="M99 0v546h57v-546h-57zM144 633h-49c5 11 10 22 15 34c8 21 15 51 15 82c0 13 -2 27 -5 42h59c5 -19 8 -36 8 -51c0 -44 -19 -80 -43 -107z" />
    <glyph glyph-name="uni1F31" unicode="&#x1f31;" horiz-adv-x="257" 
d="M99 0v546h57v-546h-57zM171 633h-49c-24 27 -43 63 -43 107c0 15 3 32 8 51h59c-3 -15 -5 -29 -5 -42c0 -31 7 -61 15 -82c5 -12 10 -23 15 -34z" />
    <glyph glyph-name="uni1F32" unicode="&#x1f32;" horiz-adv-x="257" 
d="M99 0v546h57v-546h-57zM57 633h-49c5 11 10 22 15 34c8 21 15 51 15 82c0 13 -2 27 -5 42h59c5 -19 8 -36 8 -51c0 -44 -19 -80 -43 -107zM202 633l-86 158h60l78 -158h-52z" />
    <glyph glyph-name="uni1F33" unicode="&#x1f33;" horiz-adv-x="257" 
d="M99 0v546h57v-546h-57zM105 633h-49c-24 27 -43 63 -43 107c0 15 3 32 8 51h59c-3 -15 -5 -29 -5 -42c0 -31 7 -61 15 -82c5 -12 10 -23 15 -34zM185 633l-86 158h60l78 -158h-52z" />
    <glyph glyph-name="uni1F34" unicode="&#x1f34;" horiz-adv-x="257" 
d="M99 0v546h57v-546h-57zM97 633h-49c5 11 10 22 15 34c8 21 15 51 15 82c0 13 -2 27 -5 42h59c5 -19 8 -36 8 -51c0 -44 -19 -80 -43 -107zM136 633l78 158h60l-86 -158h-52z" />
    <glyph glyph-name="uni1F35" unicode="&#x1f35;" horiz-adv-x="257" 
d="M99 0v546h57v-546h-57zM118 633h-49c-24 27 -43 63 -43 107c0 15 3 32 8 51h59c-3 -15 -5 -29 -5 -42c0 -31 7 -61 15 -82c5 -12 10 -23 15 -34zM140 633l78 158h60l-86 -158h-52z" />
    <glyph glyph-name="uni1F36" unicode="&#x1f36;" horiz-adv-x="257" 
d="M99 0v546h57v-546h-57zM204 794c-45 0 -78 37 -123 37c-35 0 -48 -9 -69 -24l-22 38c7 5 35 35 95 35c50 0 82 -36 123 -36c35 0 59 21 66 28l24 -36c-5 -8 -41 -42 -94 -42zM141 615h-49c5 11 10 22 15 34c8 21 15 51 15 82c0 13 -2 27 -5 42h59c5 -19 8 -36 8 -51
c0 -44 -19 -80 -43 -107z" />
    <glyph glyph-name="uni1F37" unicode="&#x1f37;" horiz-adv-x="257" 
d="M99 0v546h57v-546h-57zM174 794c-45 0 -78 37 -123 37c-35 0 -48 -9 -69 -24l-22 38c7 5 35 35 95 35c50 0 82 -36 123 -36c35 0 59 21 66 28l24 -36c-5 -8 -41 -42 -94 -42zM160 615h-49c-24 27 -43 63 -43 107c0 15 3 32 8 51h59c-3 -15 -5 -29 -5 -42
c0 -31 7 -61 15 -82c5 -12 10 -23 15 -34z" />
    <glyph glyph-name="uni1F38" unicode="&#x1f38;" horiz-adv-x="299" 
d="M39 549h-49c5 11 10 22 15 34c8 21 15 51 15 82c0 13 -2 27 -5 42h59c5 -19 8 -36 8 -51c0 -44 -19 -80 -43 -107zM120 0v707h59v-707h-59z" />
    <glyph glyph-name="uni1F39" unicode="&#x1f39;" horiz-adv-x="299" 
d="M86 549h-49c-24 27 -43 63 -43 107c0 15 3 32 8 51h59c-3 -15 -5 -29 -5 -42c0 -31 7 -61 15 -82c5 -12 10 -23 15 -34zM120 0v707h59v-707h-59z" />
    <glyph glyph-name="uni1F3A" unicode="&#x1f3a;" horiz-adv-x="299" 
d="M-110 549h-49c5 11 10 22 15 34c8 21 15 51 15 82c0 13 -2 27 -5 42h59c5 -19 8 -36 8 -51c0 -44 -19 -80 -43 -107zM35 549l-86 158h60l78 -158h-52zM120 0v707h59v-707h-59z" />
    <glyph glyph-name="uni1F3B" unicode="&#x1f3b;" horiz-adv-x="299" 
d="M-41 549h-49c-24 27 -43 63 -43 107c0 15 3 32 8 51h59c-3 -15 -5 -29 -5 -42c0 -31 7 -61 15 -82c5 -12 10 -23 15 -34zM39 549l-86 158h60l78 -158h-52zM120 0v707h59v-707h-59z" />
    <glyph glyph-name="uni1F3C" unicode="&#x1f3c;" horiz-adv-x="299" 
d="M-94 549h-49c5 11 10 22 15 34c8 21 15 51 15 82c0 13 -2 27 -5 42h59c5 -19 8 -36 8 -51c0 -44 -19 -80 -43 -107zM-55 549l78 158h60l-86 -158h-52zM120 0v707h59v-707h-59z" />
    <glyph glyph-name="uni1F3D" unicode="&#x1f3d;" horiz-adv-x="299" 
d="M-80 548h-49c-24 27 -43 63 -43 107c0 15 3 32 8 51h59c-3 -15 -5 -29 -5 -42c0 -31 7 -61 15 -82c5 -12 10 -23 15 -34zM-58 548l78 158h60l-86 -158h-52zM120 0v707h59v-707h-59z" />
    <glyph glyph-name="uni1F3E" unicode="&#x1f3e;" horiz-adv-x="299" 
d="M-12 620c-45 0 -78 37 -123 37c-35 0 -48 -9 -69 -24l-22 38c7 5 34 35 95 35c50 0 82 -36 123 -36c35 0 59 21 66 28l24 -36c-5 -8 -41 -42 -94 -42zM-75 441h-49c5 11 10 22 15 34c8 21 15 51 15 82c0 13 -2 27 -5 42h59c5 -19 8 -36 8 -51c0 -44 -19 -80 -43 -107z
M120 0v707h59v-707h-59z" />
    <glyph glyph-name="uni1F3F" unicode="&#x1f3f;" horiz-adv-x="299" 
d="M-12 621c-45 0 -78 37 -123 37c-35 0 -48 -9 -69 -24l-22 38c7 5 34 35 95 35c50 0 82 -36 123 -36c35 0 59 21 66 28l24 -36c-5 -8 -41 -42 -94 -42zM-26 442h-49c-24 27 -43 63 -43 107c0 15 3 32 8 51h59c-3 -15 -5 -29 -5 -42c0 -31 7 -61 15 -82
c5 -12 10 -23 15 -34zM120 0v707h59v-707h-59z" />
    <glyph glyph-name="uni1F40" unicode="&#x1f40;" horiz-adv-x="593" 
d="M305 633h-49c5 11 10 22 15 34c8 21 15 51 15 82c0 13 -2 27 -5 42h59c5 -19 8 -36 8 -51c0 -44 -19 -80 -43 -107zM295 -12c-144 0 -235 98 -235 279c0 191 103 293 241 293c155 0 232 -102 232 -287c0 -193 -102 -285 -238 -285zM300 35c142 0 177 126 177 238
c0 104 -33 240 -179 240c-144 0 -181 -134 -181 -241c0 -119 43 -237 183 -237z" />
    <glyph glyph-name="uni1F41" unicode="&#x1f41;" horiz-adv-x="593" 
d="M344 633h-49c-24 27 -43 63 -43 107c0 15 3 32 8 51h59c-3 -15 -5 -29 -5 -42c0 -31 7 -61 15 -82c5 -12 10 -23 15 -34zM295 -12c-144 0 -235 98 -235 279c0 191 103 293 241 293c155 0 232 -102 232 -287c0 -193 -102 -285 -238 -285zM300 35c142 0 177 126 177 238
c0 104 -33 240 -179 240c-144 0 -181 -134 -181 -241c0 -119 43 -237 183 -237z" />
    <glyph glyph-name="uni1F42" unicode="&#x1f42;" horiz-adv-x="593" 
d="M226 633h-49c5 11 10 22 15 34c8 21 15 51 15 82c0 13 -2 27 -5 42h59c5 -19 8 -36 8 -51c0 -44 -19 -80 -43 -107zM371 633l-86 158h60l78 -158h-52zM295 -12c-144 0 -235 98 -235 279c0 191 103 293 241 293c155 0 232 -102 232 -287c0 -193 -102 -285 -238 -285z
M300 35c142 0 177 126 177 238c0 104 -33 240 -179 240c-144 0 -181 -134 -181 -241c0 -119 43 -237 183 -237z" />
    <glyph glyph-name="uni1F43" unicode="&#x1f43;" horiz-adv-x="593" 
d="M274 633h-49c-24 27 -43 63 -43 107c0 15 3 32 8 51h59c-3 -15 -5 -29 -5 -42c0 -31 7 -61 15 -82c5 -12 10 -23 15 -34zM354 633l-86 158h60l78 -158h-52zM295 -12c-144 0 -235 98 -235 279c0 191 103 293 241 293c155 0 232 -102 232 -287c0 -193 -102 -285 -238 -285z
M300 35c142 0 177 126 177 238c0 104 -33 240 -179 240c-144 0 -181 -134 -181 -241c0 -119 43 -237 183 -237z" />
    <glyph glyph-name="uni1F44" unicode="&#x1f44;" horiz-adv-x="593" 
d="M272 633h-49c5 11 10 22 15 34c8 21 15 51 15 82c0 13 -2 27 -5 42h59c5 -19 8 -36 8 -51c0 -44 -19 -80 -43 -107zM311 633l78 158h60l-86 -158h-52zM295 -12c-144 0 -235 98 -235 279c0 191 103 293 241 293c155 0 232 -102 232 -287c0 -193 -102 -285 -238 -285z
M300 35c142 0 177 126 177 238c0 104 -33 240 -179 240c-144 0 -181 -134 -181 -241c0 -119 43 -237 183 -237z" />
    <glyph glyph-name="uni1F45" unicode="&#x1f45;" horiz-adv-x="593" 
d="M290 633h-49c-24 27 -43 63 -43 107c0 15 3 32 8 51h59c-3 -15 -5 -29 -5 -42c0 -31 7 -61 15 -82c5 -12 10 -23 15 -34zM312 633l78 158h60l-86 -158h-52zM295 -12c-144 0 -235 98 -235 279c0 191 103 293 241 293c155 0 232 -102 232 -287c0 -193 -102 -285 -238 -285z
M300 35c142 0 177 126 177 238c0 104 -33 240 -179 240c-144 0 -181 -134 -181 -241c0 -119 43 -237 183 -237z" />
    <glyph glyph-name="uni1F48" unicode="&#x1f48;" horiz-adv-x="815" 
d="M14 549h-49c5 11 10 22 15 34c8 21 15 51 15 82c0 13 -2 27 -5 42h59c5 -19 8 -36 8 -51c0 -44 -19 -80 -43 -107zM399 -12c-212 0 -339 154 -339 367c0 221 147 362 358 362c220 0 337 -159 337 -364c0 -213 -136 -365 -356 -365zM402 39c197 0 294 139 294 315
s-105 312 -287 312c-189 0 -291 -135 -291 -310c0 -168 97 -317 284 -317z" />
    <glyph glyph-name="uni1F49" unicode="&#x1f49;" horiz-adv-x="815" 
d="M45 549h-49c-24 27 -43 63 -43 107c0 15 3 32 8 51h59c-3 -15 -5 -29 -5 -42c0 -31 7 -61 15 -82c5 -12 10 -23 15 -34zM399 -12c-212 0 -339 154 -339 367c0 221 147 362 358 362c220 0 337 -159 337 -364c0 -213 -136 -365 -356 -365zM402 39c197 0 294 139 294 315
s-105 312 -287 312c-189 0 -291 -135 -291 -310c0 -168 97 -317 284 -317z" />
    <glyph glyph-name="uni1F4A" unicode="&#x1f4a;" horiz-adv-x="815" 
d="M-148 549h-49c5 11 10 22 15 34c8 21 15 51 15 82c0 13 -2 27 -5 42h59c5 -19 8 -36 8 -51c0 -44 -19 -80 -43 -107zM-3 549l-86 158h60l78 -158h-52zM399 -12c-212 0 -339 154 -339 367c0 221 147 362 358 362c220 0 337 -159 337 -364c0 -213 -136 -365 -356 -365z
M402 39c197 0 294 139 294 315s-105 312 -287 312c-189 0 -291 -135 -291 -310c0 -168 97 -317 284 -317z" />
    <glyph glyph-name="uni1F4B" unicode="&#x1f4b;" horiz-adv-x="815" 
d="M-80 549h-49c-24 27 -43 63 -43 107c0 15 3 32 8 51h59c-3 -15 -5 -29 -5 -42c0 -31 7 -61 15 -82c5 -12 10 -23 15 -34zM0 549l-86 158h60l78 -158h-52zM399 -12c-212 0 -339 154 -339 367c0 221 147 362 358 362c220 0 337 -159 337 -364c0 -213 -136 -365 -356 -365z
M402 39c197 0 294 139 294 315s-105 312 -287 312c-189 0 -291 -135 -291 -310c0 -168 97 -317 284 -317z" />
    <glyph glyph-name="uni1F4C" unicode="&#x1f4c;" horiz-adv-x="815" 
d="M-70 549h-49c5 11 10 22 15 34c8 21 15 51 15 82c0 13 -2 27 -5 42h59c5 -19 8 -36 8 -51c0 -44 -19 -80 -43 -107zM-31 549l78 158h60l-86 -158h-52zM399 -12c-212 0 -339 154 -339 367c0 221 147 362 358 362c220 0 337 -159 337 -364c0 -213 -136 -365 -356 -365z
M402 39c197 0 294 139 294 315s-105 312 -287 312c-189 0 -291 -135 -291 -310c0 -168 97 -317 284 -317z" />
    <glyph glyph-name="uni1F4D" unicode="&#x1f4d;" horiz-adv-x="815" 
d="M-60 549h-49c-24 27 -43 63 -43 107c0 15 3 32 8 51h59c-3 -15 -5 -29 -5 -42c0 -31 7 -61 15 -82c5 -12 10 -23 15 -34zM-38 549l78 158h60l-86 -158h-52zM399 -12c-212 0 -339 154 -339 367c0 221 147 362 358 362c220 0 337 -159 337 -364c0 -213 -136 -365 -356 -365
zM402 39c197 0 294 139 294 315s-105 312 -287 312c-189 0 -291 -135 -291 -310c0 -168 97 -317 284 -317z" />
    <glyph glyph-name="uni1F50" unicode="&#x1f50;" 
d="M302 -12c-100 0 -207 39 -207 195v363h52v-357c0 -125 79 -154 153 -154c82 0 153 35 153 172v339h52v-342c0 -172 -112 -216 -203 -216zM311 633h-49c5 11 10 22 15 34c8 21 15 51 15 82c0 13 -2 27 -5 42h59c5 -19 8 -36 8 -51c0 -44 -19 -80 -43 -107z" />
    <glyph glyph-name="uni1F51" unicode="&#x1f51;" 
d="M302 -12c-100 0 -207 39 -207 195v363h52v-357c0 -125 79 -154 153 -154c82 0 153 35 153 172v339h52v-342c0 -172 -112 -216 -203 -216zM331 633h-49c-24 27 -43 63 -43 107c0 15 3 32 8 51h59c-3 -15 -5 -29 -5 -42c0 -31 7 -61 15 -82c5 -12 10 -23 15 -34z" />
    <glyph glyph-name="uni1F52" unicode="&#x1f52;" 
d="M302 -12c-100 0 -207 39 -207 195v363h52v-357c0 -125 79 -154 153 -154c82 0 153 35 153 172v339h52v-342c0 -172 -112 -216 -203 -216zM230 633h-49c5 11 10 22 15 34c8 21 15 51 15 82c0 13 -2 27 -5 42h59c5 -19 8 -36 8 -51c0 -44 -19 -80 -43 -107zM375 633
l-86 158h60l78 -158h-52z" />
    <glyph glyph-name="uni1F53" unicode="&#x1f53;" 
d="M302 -12c-100 0 -207 39 -207 195v363h52v-357c0 -125 79 -154 153 -154c82 0 153 35 153 172v339h52v-342c0 -172 -112 -216 -203 -216zM263 633h-49c-24 27 -43 63 -43 107c0 15 3 32 8 51h59c-3 -15 -5 -29 -5 -42c0 -31 7 -61 15 -82c5 -12 10 -23 15 -34zM343 633
l-86 158h60l78 -158h-52z" />
    <glyph glyph-name="uni1F54" unicode="&#x1f54;" 
d="M302 -12c-100 0 -207 39 -207 195v363h52v-357c0 -125 79 -154 153 -154c82 0 153 35 153 172v339h52v-342c0 -172 -112 -216 -203 -216zM264 633h-49c5 11 10 22 15 34c8 21 15 51 15 82c0 13 -2 27 -5 42h59c5 -19 8 -36 8 -51c0 -44 -19 -80 -43 -107zM303 633l78 158
h60l-86 -158h-52z" />
    <glyph glyph-name="uni1F55" unicode="&#x1f55;" 
d="M302 -12c-100 0 -207 39 -207 195v363h52v-357c0 -125 79 -154 153 -154c82 0 153 35 153 172v339h52v-342c0 -172 -112 -216 -203 -216zM281 633h-49c-24 27 -43 63 -43 107c0 15 3 32 8 51h59c-3 -15 -5 -29 -5 -42c0 -31 7 -61 15 -82c5 -12 10 -23 15 -34zM303 633
l78 158h60l-86 -158h-52z" />
    <glyph glyph-name="uni1F56" unicode="&#x1f56;" 
d="M302 -12c-100 0 -207 39 -207 195v363h52v-357c0 -125 79 -154 153 -154c82 0 153 35 153 172v339h52v-342c0 -172 -112 -216 -203 -216zM378 794c-45 0 -78 37 -123 37c-35 0 -48 -9 -69 -24l-22 38c7 5 35 35 95 35c50 0 82 -36 123 -36c35 0 59 21 66 28l24 -36
c-5 -8 -41 -42 -94 -42zM315 615h-49c5 11 10 22 15 34c8 21 15 51 15 82c0 13 -2 27 -5 42h59c5 -19 8 -36 8 -51c0 -44 -19 -80 -43 -107z" />
    <glyph glyph-name="uni1F57" unicode="&#x1f57;" 
d="M302 -12c-100 0 -207 39 -207 195v363h52v-357c0 -125 79 -154 153 -154c82 0 153 35 153 172v339h52v-342c0 -172 -112 -216 -203 -216zM354 794c-45 0 -78 37 -123 37c-35 0 -48 -9 -69 -24l-22 38c7 5 35 35 95 35c50 0 82 -36 123 -36c35 0 59 21 66 28l24 -36
c-5 -8 -41 -42 -94 -42zM340 615h-49c-24 27 -43 63 -43 107c0 15 3 32 8 51h59c-3 -15 -5 -29 -5 -42c0 -31 7 -61 15 -82c5 -12 10 -23 15 -34z" />
    <glyph glyph-name="uni1F59" unicode="&#x1f59;" horiz-adv-x="531" 
d="M-13 549h-49c-24 27 -43 63 -43 107c0 15 3 32 8 51h59c-3 -15 -5 -29 -5 -42c0 -31 7 -61 15 -82c5 -12 10 -23 15 -34zM229 0v279l-223 428h65l190 -374l203 374h61l-237 -430v-277h-59z" />
    <glyph glyph-name="uni1F5B" unicode="&#x1f5b;" horiz-adv-x="531" 
d="M-104 549h-49c-24 27 -43 63 -43 107c0 15 3 32 8 51h59c-3 -15 -5 -29 -5 -42c0 -31 7 -61 15 -82c5 -12 10 -23 15 -34zM-24 549l-86 158h60l78 -158h-52zM229 0v279l-223 428h65l190 -374l203 374h61l-237 -430v-277h-59z" />
    <glyph glyph-name="uni1F5D" unicode="&#x1f5d;" horiz-adv-x="531" 
d="M-194 549h-49c-24 27 -43 63 -43 107c0 15 3 32 8 51h59c-3 -15 -5 -29 -5 -42c0 -31 7 -61 15 -82c5 -12 10 -23 15 -34zM-172 549l78 158h60l-86 -158h-52zM229 0v279l-223 428h65l190 -374l203 374h61l-237 -430v-277h-59z" />
    <glyph glyph-name="uni1F5F" unicode="&#x1f5f;" horiz-adv-x="531" 
d="M-102 620c-45 0 -78 37 -123 37c-35 0 -48 -9 -69 -24l-22 38c7 5 34 35 95 35c50 0 82 -36 123 -36c35 0 59 21 66 28l24 -36c-5 -8 -41 -42 -94 -42zM-116 441h-49c-24 27 -43 63 -43 107c0 15 3 32 8 51h59c-3 -15 -5 -29 -5 -42c0 -31 7 -61 15 -82
c5 -12 10 -23 15 -34zM229 0v279l-223 428h65l190 -374l203 374h61l-237 -430v-277h-59z" />
    <glyph glyph-name="uni1F60" unicode="&#x1f60;" horiz-adv-x="743" 
d="M235 -8c-116 0 -175 105 -175 245c0 116 25 202 129 309h67c-93 -82 -140 -184 -140 -305c0 -69 21 -198 129 -198c63 0 99 58 99 159v158h55v-154c0 -108 36 -163 99 -163c108 0 129 129 129 198c0 115 -50 225 -143 305h74c93 -96 125 -189 125 -304
c0 -130 -62 -250 -185 -250c-52 0 -115 38 -128 110c-24 -77 -82 -110 -135 -110zM394 633h-49c5 11 10 22 15 34c8 21 15 51 15 82c0 13 -2 27 -5 42h59c5 -19 8 -36 8 -51c0 -44 -19 -80 -43 -107z" />
    <glyph glyph-name="uni1F61" unicode="&#x1f61;" horiz-adv-x="743" 
d="M235 -8c-116 0 -175 105 -175 245c0 116 25 202 129 309h67c-93 -82 -140 -184 -140 -305c0 -69 21 -198 129 -198c63 0 99 58 99 159v158h55v-154c0 -108 36 -163 99 -163c108 0 129 129 129 198c0 115 -50 225 -143 305h74c93 -96 125 -189 125 -304
c0 -130 -62 -250 -185 -250c-52 0 -115 38 -128 110c-24 -77 -82 -110 -135 -110zM401 633h-49c-24 27 -43 63 -43 107c0 15 3 32 8 51h59c-3 -15 -5 -29 -5 -42c0 -31 7 -61 15 -82c5 -12 10 -23 15 -34z" />
    <glyph glyph-name="uni1F62" unicode="&#x1f62;" horiz-adv-x="743" 
d="M235 -8c-116 0 -175 105 -175 245c0 116 25 202 129 309h67c-93 -82 -140 -184 -140 -305c0 -69 21 -198 129 -198c63 0 99 58 99 159v158h55v-154c0 -108 36 -163 99 -163c108 0 129 129 129 198c0 115 -50 225 -143 305h74c93 -96 125 -189 125 -304
c0 -130 -62 -250 -185 -250c-52 0 -115 38 -128 110c-24 -77 -82 -110 -135 -110zM294 633h-49c5 11 10 22 15 34c8 21 15 51 15 82c0 13 -2 27 -5 42h59c5 -19 8 -36 8 -51c0 -44 -19 -80 -43 -107zM439 633l-86 158h60l78 -158h-52z" />
    <glyph glyph-name="uni1F63" unicode="&#x1f63;" horiz-adv-x="743" 
d="M235 -8c-116 0 -175 105 -175 245c0 116 25 202 129 309h67c-93 -82 -140 -184 -140 -305c0 -69 21 -198 129 -198c63 0 99 58 99 159v158h55v-154c0 -108 36 -163 99 -163c108 0 129 129 129 198c0 115 -50 225 -143 305h74c93 -96 125 -189 125 -304
c0 -130 -62 -250 -185 -250c-52 0 -115 38 -128 110c-24 -77 -82 -110 -135 -110zM339 633h-49c-24 27 -43 63 -43 107c0 15 3 32 8 51h59c-3 -15 -5 -29 -5 -42c0 -31 7 -61 15 -82c5 -12 10 -23 15 -34zM419 633l-86 158h60l78 -158h-52z" />
    <glyph glyph-name="uni1F64" unicode="&#x1f64;" horiz-adv-x="743" 
d="M235 -8c-116 0 -175 105 -175 245c0 116 25 202 129 309h67c-93 -82 -140 -184 -140 -305c0 -69 21 -198 129 -198c63 0 99 58 99 159v158h55v-154c0 -108 36 -163 99 -163c108 0 129 129 129 198c0 115 -50 225 -143 305h74c93 -96 125 -189 125 -304
c0 -130 -62 -250 -185 -250c-52 0 -115 38 -128 110c-24 -77 -82 -110 -135 -110zM344 633h-49c5 11 10 22 15 34c8 21 15 51 15 82c0 13 -2 27 -5 42h59c5 -19 8 -36 8 -51c0 -44 -19 -80 -43 -107zM383 633l78 158h60l-86 -158h-52z" />
    <glyph glyph-name="uni1F65" unicode="&#x1f65;" horiz-adv-x="743" 
d="M235 -8c-116 0 -175 105 -175 245c0 116 25 202 129 309h67c-93 -82 -140 -184 -140 -305c0 -69 21 -198 129 -198c63 0 99 58 99 159v158h55v-154c0 -108 36 -163 99 -163c108 0 129 129 129 198c0 115 -50 225 -143 305h74c93 -96 125 -189 125 -304
c0 -130 -62 -250 -185 -250c-52 0 -115 38 -128 110c-24 -77 -82 -110 -135 -110zM361 633h-49c-24 27 -43 63 -43 107c0 15 3 32 8 51h59c-3 -15 -5 -29 -5 -42c0 -31 7 -61 15 -82c5 -12 10 -23 15 -34zM383 633l78 158h60l-86 -158h-52z" />
    <glyph glyph-name="uni1F66" unicode="&#x1f66;" horiz-adv-x="743" 
d="M235 -8c-116 0 -175 105 -175 245c0 116 25 202 129 309h67c-93 -82 -140 -184 -140 -305c0 -69 21 -198 129 -198c63 0 99 58 99 159v158h55v-154c0 -108 36 -163 99 -163c108 0 129 129 129 198c0 115 -50 225 -143 305h74c93 -96 125 -189 125 -304
c0 -130 -62 -250 -185 -250c-52 0 -115 38 -128 110c-24 -77 -82 -110 -135 -110zM455 794c-45 0 -78 37 -123 37c-35 0 -48 -9 -69 -24l-22 38c7 5 35 35 95 35c50 0 82 -36 123 -36c35 0 59 21 66 28l24 -36c-5 -8 -41 -42 -94 -42zM392 615h-49c5 11 10 22 15 34
c8 21 15 51 15 82c0 13 -2 27 -5 42h59c5 -19 8 -36 8 -51c0 -44 -19 -80 -43 -107z" />
    <glyph glyph-name="uni1F67" unicode="&#x1f67;" horiz-adv-x="743" 
d="M235 -8c-116 0 -175 105 -175 245c0 116 25 202 129 309h67c-93 -82 -140 -184 -140 -305c0 -69 21 -198 129 -198c63 0 99 58 99 159v158h55v-154c0 -108 36 -163 99 -163c108 0 129 129 129 198c0 115 -50 225 -143 305h74c93 -96 125 -189 125 -304
c0 -130 -62 -250 -185 -250c-52 0 -115 38 -128 110c-24 -77 -82 -110 -135 -110zM414 794c-45 0 -78 37 -123 37c-35 0 -48 -9 -69 -24l-22 38c7 5 35 35 95 35c50 0 82 -36 123 -36c35 0 59 21 66 28l24 -36c-5 -8 -41 -42 -94 -42zM400 615h-49c-24 27 -43 63 -43 107
c0 15 3 32 8 51h59c-3 -15 -5 -29 -5 -42c0 -31 7 -61 15 -82c5 -12 10 -23 15 -34z" />
    <glyph glyph-name="uni1F68" unicode="&#x1f68;" horiz-adv-x="815" 
d="M28 0v54h242c-96 40 -196 157 -196 313c0 219 132 351 343 351c220 0 328 -156 328 -355c0 -133 -99 -259 -202 -309h246v-54h-306v54c115 85 200 190 200 310c0 175 -95 298 -275 298c-192 0 -272 -123 -272 -296c0 -165 99 -227 194 -312v-54h-302zM33 549h-49
c5 11 10 22 15 34c8 21 15 51 15 82c0 13 -2 27 -5 42h59c5 -19 8 -36 8 -51c0 -44 -19 -80 -43 -107z" />
    <glyph glyph-name="uni1F69" unicode="&#x1f69;" horiz-adv-x="815" 
d="M28 0v54h242c-96 40 -196 157 -196 313c0 219 132 351 343 351c220 0 328 -156 328 -355c0 -133 -99 -259 -202 -309h246v-54h-306v54c115 85 200 190 200 310c0 175 -95 298 -275 298c-192 0 -272 -123 -272 -296c0 -165 99 -227 194 -312v-54h-302zM41 549h-49
c-24 27 -43 63 -43 107c0 15 3 32 8 51h59c-3 -15 -5 -29 -5 -42c0 -31 7 -61 15 -82c5 -12 10 -23 15 -34z" />
    <glyph glyph-name="uni1F6A" unicode="&#x1f6a;" horiz-adv-x="815" 
d="M28 0v54h242c-96 40 -196 157 -196 313c0 219 132 351 343 351c220 0 328 -156 328 -355c0 -133 -99 -259 -202 -309h246v-54h-306v54c115 85 200 190 200 310c0 175 -95 298 -275 298c-192 0 -272 -123 -272 -296c0 -165 99 -227 194 -312v-54h-302zM-147 549h-49
c5 11 10 22 15 34c8 21 15 51 15 82c0 13 -2 27 -5 42h59c5 -19 8 -36 8 -51c0 -44 -19 -80 -43 -107zM-2 549l-86 158h60l78 -158h-52z" />
    <glyph glyph-name="uni1F6B" unicode="&#x1f6b;" horiz-adv-x="815" 
d="M28 0v54h242c-96 40 -196 157 -196 313c0 219 132 351 343 351c220 0 328 -156 328 -355c0 -133 -99 -259 -202 -309h246v-54h-306v54c115 85 200 190 200 310c0 175 -95 298 -275 298c-192 0 -272 -123 -272 -296c0 -165 99 -227 194 -312v-54h-302zM-78 549h-49
c-24 27 -43 63 -43 107c0 15 3 32 8 51h59c-3 -15 -5 -29 -5 -42c0 -31 7 -61 15 -82c5 -12 10 -23 15 -34zM2 549l-86 158h60l78 -158h-52z" />
    <glyph glyph-name="uni1F6C" unicode="&#x1f6c;" horiz-adv-x="815" 
d="M28 0v54h242c-96 40 -196 157 -196 313c0 219 132 351 343 351c220 0 328 -156 328 -355c0 -133 -99 -259 -202 -309h246v-54h-306v54c115 85 200 190 200 310c0 175 -95 298 -275 298c-192 0 -272 -123 -272 -296c0 -165 99 -227 194 -312v-54h-302zM-77 549h-49
c5 11 10 22 15 34c8 21 15 51 15 82c0 13 -2 27 -5 42h59c5 -19 8 -36 8 -51c0 -44 -19 -80 -43 -107zM-38 549l78 158h60l-86 -158h-52z" />
    <glyph glyph-name="uni1F6D" unicode="&#x1f6d;" horiz-adv-x="815" 
d="M28 0v54h242c-96 40 -196 157 -196 313c0 219 132 351 343 351c220 0 328 -156 328 -355c0 -133 -99 -259 -202 -309h246v-54h-306v54c115 85 200 190 200 310c0 175 -95 298 -275 298c-192 0 -272 -123 -272 -296c0 -165 99 -227 194 -312v-54h-302zM-48 549h-49
c-24 27 -43 63 -43 107c0 15 3 32 8 51h59c-3 -15 -5 -29 -5 -42c0 -31 7 -61 15 -82c5 -12 10 -23 15 -34zM-26 549l78 158h60l-86 -158h-52z" />
    <glyph glyph-name="uni1F6E" unicode="&#x1f6e;" horiz-adv-x="815" 
d="M28 0v54h242c-96 40 -196 157 -196 313c0 219 132 351 343 351c220 0 328 -156 328 -355c0 -133 -99 -259 -202 -309h246v-54h-306v54c115 85 200 190 200 310c0 175 -95 298 -275 298c-192 0 -272 -123 -272 -296c0 -165 99 -227 194 -312v-54h-302zM22 622
c-45 0 -78 37 -123 37c-35 0 -48 -9 -69 -24l-22 38c7 5 34 35 95 35c50 0 82 -36 123 -36c35 0 59 21 66 28l24 -36c-5 -8 -41 -42 -94 -42zM-41 443h-49c5 11 10 22 15 34c8 21 15 51 15 82c0 13 -2 27 -5 42h59c5 -19 8 -36 8 -51c0 -44 -19 -80 -43 -107z" />
    <glyph glyph-name="uni1F6F" unicode="&#x1f6f;" horiz-adv-x="815" 
d="M28 0v54h242c-96 40 -196 157 -196 313c0 219 132 351 343 351c220 0 328 -156 328 -355c0 -133 -99 -259 -202 -309h246v-54h-306v54c115 85 200 190 200 310c0 175 -95 298 -275 298c-192 0 -272 -123 -272 -296c0 -165 99 -227 194 -312v-54h-302zM14 620
c-45 0 -78 37 -123 37c-35 0 -48 -9 -69 -24l-22 38c7 5 34 35 95 35c50 0 82 -36 123 -36c35 0 59 21 66 28l24 -36c-5 -8 -41 -42 -94 -42zM0 441h-49c-24 27 -43 63 -43 107c0 15 3 32 8 51h59c-3 -15 -5 -29 -5 -42c0 -31 7 -61 15 -82c5 -12 10 -23 15 -34z" />
    <glyph glyph-name="uni1F70" unicode="&#x1f70;" 
d="M247 -8c-77 0 -187 37 -187 258c0 198 114 310 249 310c72 0 133 -15 173 -34v-421c0 -47 17 -66 52 -66l-5 -45c-15 1 -31 2 -43 7c-47 19 -54 55 -54 127c-24 -76 -110 -136 -185 -136zM250 40c74 0 164 69 177 214v235c-27 11 -61 23 -120 23
c-140 0 -190 -130 -190 -262c0 -139 49 -210 133 -210zM315 633l-86 158h60l78 -158h-52z" />
    <glyph glyph-name="uni1F71" unicode="&#x1f71;" 
d="M247 -8c-77 0 -187 37 -187 258c0 198 114 310 249 310c72 0 133 -15 173 -34v-421c0 -47 17 -66 52 -66l-5 -45c-15 1 -31 2 -43 7c-47 19 -54 55 -54 127c-24 -76 -110 -136 -185 -136zM250 40c74 0 164 69 177 214v235c-27 11 -61 23 -120 23
c-140 0 -190 -130 -190 -262c0 -139 49 -210 133 -210zM301 633l78 158h60l-86 -158h-52z" />
    <glyph glyph-name="uni1F72" unicode="&#x1f72;" horiz-adv-x="495" 
d="M269 -11c-145 0 -212 56 -212 159c0 67 39 122 111 146c-55 19 -88 55 -88 119c0 75 61 147 202 147c92 0 141 -21 168 -34l-19 -47c-22 8 -81 34 -153 34c-92 0 -141 -37 -141 -98c0 -84 61 -97 99 -97h120v-45h-124c-44 0 -117 -33 -117 -122c0 -61 45 -113 160 -113
c71 0 112 14 163 34l17 -42c-36 -19 -99 -41 -186 -41zM265 633l-86 158h60l78 -158h-52z" />
    <glyph glyph-name="uni1F73" unicode="&#x1f73;" horiz-adv-x="495" 
d="M269 -11c-145 0 -212 56 -212 159c0 67 39 122 111 146c-55 19 -88 55 -88 119c0 75 61 147 202 147c92 0 141 -21 168 -34l-19 -47c-22 8 -81 34 -153 34c-92 0 -141 -37 -141 -98c0 -84 61 -97 99 -97h120v-45h-124c-44 0 -117 -33 -117 -122c0 -61 45 -113 160 -113
c71 0 112 14 163 34l17 -42c-36 -19 -99 -41 -186 -41zM236 633l78 158h60l-86 -158h-52z" />
    <glyph glyph-name="uni1F74" unicode="&#x1f74;" horiz-adv-x="621" 
d="M476 -220v559c0 100 -12 170 -124 170c-67 0 -160 -62 -183 -77v-432h-55v454c0 47 -30 57 -52 60l5 45c13 0 26 -2 39 -7c31 -11 56 -31 63 -70c39 28 106 77 194 77c158 0 166 -119 166 -204v-575h-53zM315 633l-86 158h60l78 -158h-52z" />
    <glyph glyph-name="uni1F75" unicode="&#x1f75;" horiz-adv-x="621" 
d="M476 -220v559c0 100 -12 170 -124 170c-67 0 -160 -62 -183 -77v-432h-55v454c0 47 -30 57 -52 60l5 45c13 0 26 -2 39 -7c31 -11 56 -31 63 -70c39 28 106 77 194 77c158 0 166 -119 166 -204v-575h-53zM299 633l78 158h60l-86 -158h-52z" />
    <glyph glyph-name="uni1F76" unicode="&#x1f76;" horiz-adv-x="257" 
d="M99 0v546h57v-546h-57zM97 633l-86 158h60l78 -158h-52z" />
    <glyph glyph-name="uni1F77" unicode="&#x1f77;" horiz-adv-x="257" 
d="M99 0v546h57v-546h-57zM99 633l78 158h60l-86 -158h-52z" />
    <glyph glyph-name="uni1F78" unicode="&#x1f78;" horiz-adv-x="593" 
d="M275 633l-86 158h60l78 -158h-52zM295 -12c-144 0 -235 98 -235 279c0 191 103 293 241 293c155 0 232 -102 232 -287c0 -193 -102 -285 -238 -285zM300 35c142 0 177 126 177 238c0 104 -33 240 -179 240c-144 0 -181 -134 -181 -241c0 -119 43 -237 183 -237z" />
    <glyph glyph-name="uni1F79" unicode="&#x1f79;" horiz-adv-x="593" 
d="M259 633l78 158h60l-86 -158h-52zM295 -12c-144 0 -235 98 -235 279c0 191 103 293 241 293c155 0 232 -102 232 -287c0 -193 -102 -285 -238 -285zM300 35c142 0 177 126 177 238c0 104 -33 240 -179 240c-144 0 -181 -134 -181 -241c0 -119 43 -237 183 -237z" />
    <glyph glyph-name="uni1F7A" unicode="&#x1f7a;" 
d="M302 -12c-100 0 -207 39 -207 195v363h52v-357c0 -125 79 -154 153 -154c82 0 153 35 153 172v339h52v-342c0 -172 -112 -216 -203 -216zM285 633l-86 158h60l78 -158h-52z" />
    <glyph glyph-name="uni1F7B" unicode="&#x1f7b;" 
d="M302 -12c-100 0 -207 39 -207 195v363h52v-357c0 -125 79 -154 153 -154c82 0 153 35 153 172v339h52v-342c0 -172 -112 -216 -203 -216zM269 633l78 158h60l-86 -158h-52z" />
    <glyph glyph-name="uni1F7C" unicode="&#x1f7c;" horiz-adv-x="743" 
d="M235 -8c-116 0 -175 105 -175 245c0 116 25 202 129 309h67c-93 -82 -140 -184 -140 -305c0 -69 21 -198 129 -198c63 0 99 58 99 159v158h55v-154c0 -108 36 -163 99 -163c108 0 129 129 129 198c0 115 -50 225 -143 305h74c93 -96 125 -189 125 -304
c0 -130 -62 -250 -185 -250c-52 0 -115 38 -128 110c-24 -77 -82 -110 -135 -110zM365 633l-86 158h60l78 -158h-52z" />
    <glyph glyph-name="uni1F7D" unicode="&#x1f7d;" horiz-adv-x="743" 
d="M235 -8c-116 0 -175 105 -175 245c0 116 25 202 129 309h67c-93 -82 -140 -184 -140 -305c0 -69 21 -198 129 -198c63 0 99 58 99 159v158h55v-154c0 -108 36 -163 99 -163c108 0 129 129 129 198c0 115 -50 225 -143 305h74c93 -96 125 -189 125 -304
c0 -130 -62 -250 -185 -250c-52 0 -115 38 -128 110c-24 -77 -82 -110 -135 -110zM331 633l78 158h60l-86 -158h-52z" />
    <glyph glyph-name="uni1F80" unicode="&#x1f80;" 
d="M247 -8c-77 0 -187 37 -187 258c0 198 114 310 249 310c72 0 133 -15 173 -34v-421c0 -47 17 -66 52 -66l-5 -45c-15 1 -31 2 -43 7c-47 19 -54 55 -54 127c-24 -76 -110 -136 -185 -136zM250 40c74 0 164 69 177 214v235c-27 11 -61 23 -120 23
c-140 0 -190 -130 -190 -262c0 -139 49 -210 133 -210zM324 633h-49c5 11 10 22 15 34c8 21 15 51 15 82c0 13 -2 27 -5 42h59c5 -19 8 -36 8 -51c0 -44 -19 -80 -43 -107zM363 -194l-8 -35c-63 5 -76 34 -76 103v50h45v-48c0 -47 7 -62 39 -70z" />
    <glyph glyph-name="uni1F81" unicode="&#x1f81;" 
d="M247 -8c-77 0 -187 37 -187 258c0 198 114 310 249 310c72 0 133 -15 173 -34v-421c0 -47 17 -66 52 -66l-5 -45c-15 1 -31 2 -43 7c-47 19 -54 55 -54 127c-24 -76 -110 -136 -185 -136zM250 40c74 0 164 69 177 214v235c-27 11 -61 23 -120 23
c-140 0 -190 -130 -190 -262c0 -139 49 -210 133 -210zM353 -194l-8 -35c-63 5 -76 34 -76 103v50h45v-48c0 -47 7 -62 39 -70zM351 633h-49c-24 27 -43 63 -43 107c0 15 3 32 8 51h59c-3 -15 -5 -29 -5 -42c0 -31 7 -61 15 -82c5 -12 10 -23 15 -34z" />
    <glyph glyph-name="uni1F82" unicode="&#x1f82;" 
d="M247 -8c-77 0 -187 37 -187 258c0 198 114 310 249 310c72 0 133 -15 173 -34v-421c0 -47 17 -66 52 -66l-5 -45c-15 1 -31 2 -43 7c-47 19 -54 55 -54 127c-24 -76 -110 -136 -185 -136zM250 40c74 0 164 69 177 214v235c-27 11 -61 23 -120 23
c-140 0 -190 -130 -190 -262c0 -139 49 -210 133 -210zM234 633h-49c5 11 10 22 15 34c8 21 15 51 15 82c0 13 -2 27 -5 42h59c5 -19 8 -36 8 -51c0 -44 -19 -80 -43 -107zM379 633l-86 158h60l78 -158h-52zM353 -194l-8 -35c-63 5 -76 34 -76 103v50h45v-48
c0 -47 7 -62 39 -70z" />
    <glyph glyph-name="uni1F83" unicode="&#x1f83;" 
d="M247 -8c-77 0 -187 37 -187 258c0 198 114 310 249 310c72 0 133 -15 173 -34v-421c0 -47 17 -66 52 -66l-5 -45c-15 1 -31 2 -43 7c-47 19 -54 55 -54 127c-24 -76 -110 -136 -185 -136zM250 40c74 0 164 69 177 214v235c-27 11 -61 23 -120 23
c-140 0 -190 -130 -190 -262c0 -139 49 -210 133 -210zM279 633h-49c-24 27 -43 63 -43 107c0 15 3 32 8 51h59c-3 -15 -5 -29 -5 -42c0 -31 7 -61 15 -82c5 -12 10 -23 15 -34zM359 633l-86 158h60l78 -158h-52zM363 -194l-8 -35c-63 5 -76 34 -76 103v50h45v-48
c0 -47 7 -62 39 -70z" />
    <glyph glyph-name="uni1F84" unicode="&#x1f84;" 
d="M247 -8c-77 0 -187 37 -187 258c0 198 114 310 249 310c72 0 133 -15 173 -34v-421c0 -47 17 -66 52 -66l-5 -45c-15 1 -31 2 -43 7c-47 19 -54 55 -54 127c-24 -76 -110 -136 -185 -136zM250 40c74 0 164 69 177 214v235c-27 11 -61 23 -120 23
c-140 0 -190 -130 -190 -262c0 -139 49 -210 133 -210zM264 633h-49c5 11 10 22 15 34c8 21 15 51 15 82c0 13 -2 27 -5 42h59c5 -19 8 -36 8 -51c0 -44 -19 -80 -43 -107zM303 633l78 158h60l-86 -158h-52zM357 -194l-8 -35c-63 5 -76 34 -76 103v50h45v-48
c0 -47 7 -62 39 -70z" />
    <glyph glyph-name="uni1F85" unicode="&#x1f85;" 
d="M247 -8c-77 0 -187 37 -187 258c0 198 114 310 249 310c72 0 133 -15 173 -34v-421c0 -47 17 -66 52 -66l-5 -45c-15 1 -31 2 -43 7c-47 19 -54 55 -54 127c-24 -76 -110 -136 -185 -136zM250 40c74 0 164 69 177 214v235c-27 11 -61 23 -120 23
c-140 0 -190 -130 -190 -262c0 -139 49 -210 133 -210zM301 633h-49c-24 27 -43 63 -43 107c0 15 3 32 8 51h59c-3 -15 -5 -29 -5 -42c0 -31 7 -61 15 -82c5 -12 10 -23 15 -34zM323 633l78 158h60l-86 -158h-52zM373 -194l-8 -35c-63 5 -76 34 -76 103v50h45v-48
c0 -47 7 -62 39 -70z" />
    <glyph glyph-name="uni1F86" unicode="&#x1f86;" 
d="M247 -8c-77 0 -187 37 -187 258c0 198 114 310 249 310c72 0 133 -15 173 -34v-421c0 -47 17 -66 52 -66l-5 -45c-15 1 -31 2 -43 7c-47 19 -54 55 -54 127c-24 -76 -110 -136 -185 -136zM250 40c74 0 164 69 177 214v235c-27 11 -61 23 -120 23
c-140 0 -190 -130 -190 -262c0 -139 49 -210 133 -210zM374 794c-45 0 -78 37 -123 37c-35 0 -48 -9 -69 -24l-22 38c7 5 35 35 95 35c50 0 82 -36 123 -36c35 0 59 21 66 28l24 -36c-5 -8 -41 -42 -94 -42zM311 615h-49c5 11 10 22 15 34c8 21 15 51 15 82
c0 13 -2 27 -5 42h59c5 -19 8 -36 8 -51c0 -44 -19 -80 -43 -107zM363 -194l-8 -35c-63 5 -76 34 -76 103v50h45v-48c0 -47 7 -62 39 -70z" />
    <glyph glyph-name="uni1F87" unicode="&#x1f87;" 
d="M247 -8c-77 0 -187 37 -187 258c0 198 114 310 249 310c72 0 133 -15 173 -34v-421c0 -47 17 -66 52 -66l-5 -45c-15 1 -31 2 -43 7c-47 19 -54 55 -54 127c-24 -76 -110 -136 -185 -136zM250 40c74 0 164 69 177 214v235c-27 11 -61 23 -120 23
c-140 0 -190 -130 -190 -262c0 -139 49 -210 133 -210zM359 794c-45 0 -78 37 -123 37c-35 0 -48 -9 -69 -24l-22 38c7 5 35 35 95 35c50 0 82 -36 123 -36c35 0 59 21 66 28l24 -36c-5 -8 -41 -42 -94 -42zM345 615h-49c-24 27 -43 63 -43 107c0 15 3 32 8 51h59
c-3 -15 -5 -29 -5 -42c0 -31 7 -61 15 -82c5 -12 10 -23 15 -34zM373 -194l-8 -35c-63 5 -76 34 -76 103v50h45v-48c0 -47 7 -62 39 -70z" />
    <glyph glyph-name="uni1F88" unicode="&#x1f88;" horiz-adv-x="650" 
d="M115 549h-49c5 11 10 22 15 34c8 21 15 51 15 82c0 13 -2 27 -5 42h59c5 -19 8 -36 8 -51c0 -44 -19 -80 -43 -107zM393 -194l-8 -35c-63 5 -76 34 -76 103v50h45v-48c0 -47 7 -62 39 -70zM14 0l284 707h82l260 -707h-64l-101 279h-290l-112 -279h-59zM205 330h252
l-120 331z" />
    <glyph glyph-name="uni1F89" unicode="&#x1f89;" horiz-adv-x="650" 
d="M393 -194l-8 -35c-63 5 -76 34 -76 103v50h45v-48c0 -47 7 -62 39 -70zM173 549h-49c-24 27 -43 63 -43 107c0 15 3 32 8 51h59c-3 -15 -5 -29 -5 -42c0 -31 7 -61 15 -82c5 -12 10 -23 15 -34zM14 0l284 707h82l260 -707h-64l-101 279h-290l-112 -279h-59zM205 330h252
l-120 331z" />
    <glyph glyph-name="uni1F8A" unicode="&#x1f8a;" horiz-adv-x="650" 
d="M-1 549h-49c5 11 10 22 15 34c8 21 15 51 15 82c0 13 -2 27 -5 42h59c5 -19 8 -36 8 -51c0 -44 -19 -80 -43 -107zM144 549l-86 158h60l78 -158h-52zM393 -194l-8 -35c-63 5 -76 34 -76 103v50h45v-48c0 -47 7 -62 39 -70zM14 0l284 707h82l260 -707h-64l-101 279h-290
l-112 -279h-59zM205 330h252l-120 331z" />
    <glyph glyph-name="uni1F8B" unicode="&#x1f8b;" horiz-adv-x="650" 
d="M18 549h-49c-24 27 -43 63 -43 107c0 15 3 32 8 51h59c-3 -15 -5 -29 -5 -42c0 -31 7 -61 15 -82c5 -12 10 -23 15 -34zM98 549l-86 158h60l78 -158h-52zM393 -194l-8 -35c-63 5 -76 34 -76 103v50h45v-48c0 -47 7 -62 39 -70zM14 0l284 707h82l260 -707h-64l-101 279
h-290l-112 -279h-59zM205 330h252l-120 331z" />
    <glyph glyph-name="uni1F8C" unicode="&#x1f8c;" horiz-adv-x="650" 
d="M31 549h-49c5 11 10 22 15 34c8 21 15 51 15 82c0 13 -2 27 -5 42h59c5 -19 8 -36 8 -51c0 -44 -19 -80 -43 -107zM70 549l78 158h60l-86 -158h-52zM393 -194l-8 -35c-63 5 -76 34 -76 103v50h45v-48c0 -47 7 -62 39 -70zM14 0l284 707h82l260 -707h-64l-101 279h-290
l-112 -279h-59zM205 330h252l-120 331z" />
    <glyph glyph-name="uni1F8D" unicode="&#x1f8d;" horiz-adv-x="650" 
d="M51 549h-49c-24 27 -43 63 -43 107c0 15 3 32 8 51h59c-3 -15 -5 -29 -5 -42c0 -31 7 -61 15 -82c5 -12 10 -23 15 -34zM73 549l78 158h60l-86 -158h-52zM393 -194l-8 -35c-63 5 -76 34 -76 103v50h45v-48c0 -47 7 -62 39 -70zM14 0l284 707h82l260 -707h-64l-101 279
h-290l-112 -279h-59zM205 330h252l-120 331z" />
    <glyph glyph-name="uni1F8E" unicode="&#x1f8e;" horiz-adv-x="650" 
d="M134 621c-45 0 -78 37 -123 37c-35 0 -48 -9 -69 -24l-22 38c7 5 34 35 95 35c50 0 82 -36 123 -36c35 0 59 21 66 28l24 -36c-5 -8 -41 -42 -94 -42zM71 442h-49c5 11 10 22 15 34c8 21 15 51 15 82c0 13 -2 27 -5 42h59c5 -19 8 -36 8 -51c0 -44 -19 -80 -43 -107z
M393 -194l-8 -35c-63 5 -76 34 -76 103v50h45v-48c0 -47 7 -62 39 -70zM14 0l284 707h82l260 -707h-64l-101 279h-290l-112 -279h-59zM205 330h252l-120 331z" />
    <glyph glyph-name="uni1F8F" unicode="&#x1f8f;" horiz-adv-x="650" 
d="M111 621c-45 0 -78 37 -123 37c-35 0 -48 -9 -69 -24l-22 38c7 5 34 35 95 35c50 0 82 -36 123 -36c35 0 59 21 66 28l24 -36c-5 -8 -41 -42 -94 -42zM97 442h-49c-24 27 -43 63 -43 107c0 15 3 32 8 51h59c-3 -15 -5 -29 -5 -42c0 -31 7 -61 15 -82c5 -12 10 -23 15 -34
zM393 -194l-8 -35c-63 5 -76 34 -76 103v50h45v-48c0 -47 7 -62 39 -70zM14 0l284 707h82l260 -707h-64l-101 279h-290l-112 -279h-59zM205 330h252l-120 331z" />
    <glyph glyph-name="uni1F90" unicode="&#x1f90;" horiz-adv-x="621" 
d="M476 -220v559c0 100 -12 170 -124 170c-67 0 -160 -62 -183 -77v-432h-55v454c0 47 -30 57 -52 60l5 45c13 0 26 -2 39 -7c31 -11 56 -31 63 -70c39 28 106 77 194 77c158 0 166 -119 166 -204v-575h-53zM355 633h-49c5 11 10 22 15 34c8 21 15 51 15 82
c0 13 -2 27 -5 42h59c5 -19 8 -36 8 -51c0 -44 -19 -80 -43 -107zM204 -194l-8 -35c-63 5 -76 34 -76 103v50h45v-48c0 -47 7 -62 39 -70z" />
    <glyph glyph-name="uni1F91" unicode="&#x1f91;" horiz-adv-x="621" 
d="M476 -220v559c0 100 -12 170 -124 170c-67 0 -160 -62 -183 -77v-432h-55v454c0 47 -30 57 -52 60l5 45c13 0 26 -2 39 -7c31 -11 56 -31 63 -70c39 28 106 77 194 77c158 0 166 -119 166 -204v-575h-53zM204 -194l-8 -35c-63 5 -76 34 -76 103v50h45v-48
c0 -47 7 -62 39 -70zM371 633h-49c-24 27 -43 63 -43 107c0 15 3 32 8 51h59c-3 -15 -5 -29 -5 -42c0 -31 7 -61 15 -82c5 -12 10 -23 15 -34z" />
    <glyph glyph-name="uni1F92" unicode="&#x1f92;" horiz-adv-x="621" 
d="M476 -220v559c0 100 -12 170 -124 170c-67 0 -160 -62 -183 -77v-432h-55v454c0 47 -30 57 -52 60l5 45c13 0 26 -2 39 -7c31 -11 56 -31 63 -70c39 28 106 77 194 77c158 0 166 -119 166 -204v-575h-53zM274 633h-49c5 11 10 22 15 34c8 21 15 51 15 82
c0 13 -2 27 -5 42h59c5 -19 8 -36 8 -51c0 -44 -19 -80 -43 -107zM419 633l-86 158h60l78 -158h-52zM204 -194l-8 -35c-63 5 -76 34 -76 103v50h45v-48c0 -47 7 -62 39 -70z" />
    <glyph glyph-name="uni1F93" unicode="&#x1f93;" horiz-adv-x="621" 
d="M476 -220v559c0 100 -12 170 -124 170c-67 0 -160 -62 -183 -77v-432h-55v454c0 47 -30 57 -52 60l5 45c13 0 26 -2 39 -7c31 -11 56 -31 63 -70c39 28 106 77 194 77c158 0 166 -119 166 -204v-575h-53zM299 633h-49c-24 27 -43 63 -43 107c0 15 3 32 8 51h59
c-3 -15 -5 -29 -5 -42c0 -31 7 -61 15 -82c5 -12 10 -23 15 -34zM379 633l-86 158h60l78 -158h-52zM203 -194l-8 -35c-63 5 -76 34 -76 103v50h45v-48c0 -47 7 -62 39 -70z" />
    <glyph glyph-name="uni1F94" unicode="&#x1f94;" horiz-adv-x="621" 
d="M476 -220v559c0 100 -12 170 -124 170c-67 0 -160 -62 -183 -77v-432h-55v454c0 47 -30 57 -52 60l5 45c13 0 26 -2 39 -7c31 -11 56 -31 63 -70c39 28 106 77 194 77c158 0 166 -119 166 -204v-575h-53zM304 633h-49c5 11 10 22 15 34c8 21 15 51 15 82
c0 13 -2 27 -5 42h59c5 -19 8 -36 8 -51c0 -44 -19 -80 -43 -107zM343 633l78 158h60l-86 -158h-52zM204 -194l-8 -35c-63 5 -76 34 -76 103v50h45v-48c0 -47 7 -62 39 -70z" />
    <glyph glyph-name="uni1F95" unicode="&#x1f95;" horiz-adv-x="621" 
d="M476 -220v559c0 100 -12 170 -124 170c-67 0 -160 -62 -183 -77v-432h-55v454c0 47 -30 57 -52 60l5 45c13 0 26 -2 39 -7c31 -11 56 -31 63 -70c39 28 106 77 194 77c158 0 166 -119 166 -204v-575h-53zM321 633h-49c-24 27 -43 63 -43 107c0 15 3 32 8 51h59
c-3 -15 -5 -29 -5 -42c0 -31 7 -61 15 -82c5 -12 10 -23 15 -34zM343 633l78 158h60l-86 -158h-52zM203 -194l-8 -35c-63 5 -76 34 -76 103v50h45v-48c0 -47 7 -62 39 -70z" />
    <glyph glyph-name="uni1F96" unicode="&#x1f96;" horiz-adv-x="621" 
d="M476 -220v559c0 100 -12 170 -124 170c-67 0 -160 -62 -183 -77v-432h-55v454c0 47 -30 57 -52 60l5 45c13 0 26 -2 39 -7c31 -11 56 -31 63 -70c39 28 106 77 194 77c158 0 166 -119 166 -204v-575h-53zM404 794c-45 0 -78 37 -123 37c-35 0 -48 -9 -69 -24l-22 38
c7 5 35 35 95 35c50 0 82 -36 123 -36c35 0 59 21 66 28l24 -36c-5 -8 -41 -42 -94 -42zM341 615h-49c5 11 10 22 15 34c8 21 15 51 15 82c0 13 -2 27 -5 42h59c5 -19 8 -36 8 -51c0 -44 -19 -80 -43 -107zM204 -194l-8 -35c-63 5 -76 34 -76 103v50h45v-48
c0 -47 7 -62 39 -70z" />
    <glyph glyph-name="uni1F97" unicode="&#x1f97;" horiz-adv-x="621" 
d="M476 -220v559c0 100 -12 170 -124 170c-67 0 -160 -62 -183 -77v-432h-55v454c0 47 -30 57 -52 60l5 45c13 0 26 -2 39 -7c31 -11 56 -31 63 -70c39 28 106 77 194 77c158 0 166 -119 166 -204v-575h-53zM394 794c-45 0 -78 37 -123 37c-35 0 -48 -9 -69 -24l-22 38
c7 5 35 35 95 35c50 0 82 -36 123 -36c35 0 59 21 66 28l24 -36c-5 -8 -41 -42 -94 -42zM380 615h-49c-24 27 -43 63 -43 107c0 15 3 32 8 51h59c-3 -15 -5 -29 -5 -42c0 -31 7 -61 15 -82c5 -12 10 -23 15 -34zM203 -194l-8 -35c-63 5 -76 34 -76 103v50h45v-48
c0 -47 7 -62 39 -70z" />
    <glyph glyph-name="uni1F98" unicode="&#x1f98;" horiz-adv-x="769" 
d="M29 549h-49c5 11 10 22 15 34c8 21 15 51 15 82c0 13 -2 27 -5 42h59c5 -19 8 -36 8 -51c0 -44 -19 -80 -43 -107zM433 -194l-8 -35c-63 5 -76 34 -76 103v50h45v-48c0 -47 7 -62 39 -70zM120 0v707h59v-326h411v326h59v-707h-59v329h-411v-329h-59z" />
    <glyph glyph-name="uni1F99" unicode="&#x1f99;" horiz-adv-x="769" 
d="M433 -194l-8 -35c-63 5 -76 34 -76 103v50h45v-48c0 -47 7 -62 39 -70zM44 549h-49c-24 27 -43 63 -43 107c0 15 3 32 8 51h59c-3 -15 -5 -29 -5 -42c0 -31 7 -61 15 -82c5 -12 10 -23 15 -34zM120 0v707h59v-326h411v326h59v-707h-59v329h-411v-329h-59z" />
    <glyph glyph-name="uni1F9A" unicode="&#x1f9a;" horiz-adv-x="769" 
d="M-121 549h-49c5 11 10 22 15 34c8 21 15 51 15 82c0 13 -2 27 -5 42h59c5 -19 8 -36 8 -51c0 -44 -19 -80 -43 -107zM24 549l-86 158h60l78 -158h-52zM433 -194l-8 -35c-63 5 -76 34 -76 103v50h45v-48c0 -47 7 -62 39 -70zM120 0v707h59v-326h411v326h59v-707h-59v329
h-411v-329h-59z" />
    <glyph glyph-name="uni1F9B" unicode="&#x1f9b;" horiz-adv-x="769" 
d="M-53 549h-49c-24 27 -43 63 -43 107c0 15 3 32 8 51h59c-3 -15 -5 -29 -5 -42c0 -31 7 -61 15 -82c5 -12 10 -23 15 -34zM27 549l-86 158h60l78 -158h-52zM433 -194l-8 -35c-63 5 -76 34 -76 103v50h45v-48c0 -47 7 -62 39 -70zM120 0v707h59v-326h411v326h59v-707h-59
v329h-411v-329h-59z" />
    <glyph glyph-name="uni1F9C" unicode="&#x1f9c;" horiz-adv-x="769" 
d="M-93 549h-49c5 11 10 22 15 34c8 21 15 51 15 82c0 13 -2 27 -5 42h59c5 -19 8 -36 8 -51c0 -44 -19 -80 -43 -107zM-54 549l78 158h60l-86 -158h-52zM433 -194l-8 -35c-63 5 -76 34 -76 103v50h45v-48c0 -47 7 -62 39 -70zM120 0v707h59v-326h411v326h59v-707h-59v329
h-411v-329h-59z" />
    <glyph glyph-name="uni1F9D" unicode="&#x1f9d;" horiz-adv-x="769" 
d="M-81 549h-49c-24 27 -43 63 -43 107c0 15 3 32 8 51h59c-3 -15 -5 -29 -5 -42c0 -31 7 -61 15 -82c5 -12 10 -23 15 -34zM-59 549l78 158h60l-86 -158h-52zM433 -194l-8 -35c-63 5 -76 34 -76 103v50h45v-48c0 -47 7 -62 39 -70zM120 0v707h59v-326h411v326h59v-707h-59
v329h-411v-329h-59z" />
    <glyph glyph-name="uni1F9E" unicode="&#x1f9e;" horiz-adv-x="769" 
d="M-12 620c-45 0 -78 37 -123 37c-35 0 -48 -9 -69 -24l-22 38c7 5 34 35 95 35c50 0 82 -36 123 -36c35 0 59 21 66 28l24 -36c-5 -8 -41 -42 -94 -42zM-75 441h-49c5 11 10 22 15 34c8 21 15 51 15 82c0 13 -2 27 -5 42h59c5 -19 8 -36 8 -51c0 -44 -19 -80 -43 -107z
M433 -194l-8 -35c-63 5 -76 34 -76 103v50h45v-48c0 -47 7 -62 39 -70zM120 0v707h59v-326h411v326h59v-707h-59v329h-411v-329h-59z" />
    <glyph glyph-name="uni1F9F" unicode="&#x1f9f;" horiz-adv-x="769" 
d="M-21 620c-45 0 -78 37 -123 37c-35 0 -48 -9 -69 -24l-22 38c7 5 34 35 95 35c50 0 82 -36 123 -36c35 0 59 21 66 28l24 -36c-5 -8 -41 -42 -94 -42zM-35 441h-49c-24 27 -43 63 -43 107c0 15 3 32 8 51h59c-3 -15 -5 -29 -5 -42c0 -31 7 -61 15 -82
c5 -12 10 -23 15 -34zM433 -194l-8 -35c-63 5 -76 34 -76 103v50h45v-48c0 -47 7 -62 39 -70zM120 0v707h59v-326h411v326h59v-707h-59v329h-411v-329h-59z" />
    <glyph glyph-name="uni1FA0" unicode="&#x1fa0;" horiz-adv-x="743" 
d="M235 -8c-116 0 -175 105 -175 245c0 116 25 202 129 309h67c-93 -82 -140 -184 -140 -305c0 -69 21 -198 129 -198c63 0 99 58 99 159v158h55v-154c0 -108 36 -163 99 -163c108 0 129 129 129 198c0 115 -50 225 -143 305h74c93 -96 125 -189 125 -304
c0 -130 -62 -250 -185 -250c-52 0 -115 38 -128 110c-24 -77 -82 -110 -135 -110zM384 633h-49c5 11 10 22 15 34c8 21 15 51 15 82c0 13 -2 27 -5 42h59c5 -19 8 -36 8 -51c0 -44 -19 -80 -43 -107zM443 -194l-8 -35c-63 5 -76 34 -76 103v50h45v-48c0 -47 7 -62 39 -70z
" />
    <glyph glyph-name="uni1FA1" unicode="&#x1fa1;" horiz-adv-x="743" 
d="M235 -8c-116 0 -175 105 -175 245c0 116 25 202 129 309h67c-93 -82 -140 -184 -140 -305c0 -69 21 -198 129 -198c63 0 99 58 99 159v158h55v-154c0 -108 36 -163 99 -163c108 0 129 129 129 198c0 115 -50 225 -143 305h74c93 -96 125 -189 125 -304
c0 -130 -62 -250 -185 -250c-52 0 -115 38 -128 110c-24 -77 -82 -110 -135 -110zM443 -194l-8 -35c-63 5 -76 34 -76 103v50h45v-48c0 -47 7 -62 39 -70zM411 633h-49c-24 27 -43 63 -43 107c0 15 3 32 8 51h59c-3 -15 -5 -29 -5 -42c0 -31 7 -61 15 -82
c5 -12 10 -23 15 -34z" />
    <glyph glyph-name="uni1FA2" unicode="&#x1fa2;" horiz-adv-x="743" 
d="M235 -8c-116 0 -175 105 -175 245c0 116 25 202 129 309h67c-93 -82 -140 -184 -140 -305c0 -69 21 -198 129 -198c63 0 99 58 99 159v158h55v-154c0 -108 36 -163 99 -163c108 0 129 129 129 198c0 115 -50 225 -143 305h74c93 -96 125 -189 125 -304
c0 -130 -62 -250 -185 -250c-52 0 -115 38 -128 110c-24 -77 -82 -110 -135 -110zM302 633h-49c5 11 10 22 15 34c8 21 15 51 15 82c0 13 -2 27 -5 42h59c5 -19 8 -36 8 -51c0 -44 -19 -80 -43 -107zM447 633l-86 158h60l78 -158h-52zM443 -194l-8 -35c-63 5 -76 34 -76 103
v50h45v-48c0 -47 7 -62 39 -70z" />
    <glyph glyph-name="uni1FA3" unicode="&#x1fa3;" horiz-adv-x="743" 
d="M235 -8c-116 0 -175 105 -175 245c0 116 25 202 129 309h67c-93 -82 -140 -184 -140 -305c0 -69 21 -198 129 -198c63 0 99 58 99 159v158h55v-154c0 -108 36 -163 99 -163c108 0 129 129 129 198c0 115 -50 225 -143 305h74c93 -96 125 -189 125 -304
c0 -130 -62 -250 -185 -250c-52 0 -115 38 -128 110c-24 -77 -82 -110 -135 -110zM339 633h-49c-24 27 -43 63 -43 107c0 15 3 32 8 51h59c-3 -15 -5 -29 -5 -42c0 -31 7 -61 15 -82c5 -12 10 -23 15 -34zM419 633l-86 158h60l78 -158h-52zM443 -194l-8 -35
c-63 5 -76 34 -76 103v50h45v-48c0 -47 7 -62 39 -70z" />
    <glyph glyph-name="uni1FA4" unicode="&#x1fa4;" horiz-adv-x="743" 
d="M235 -8c-116 0 -175 105 -175 245c0 116 25 202 129 309h67c-93 -82 -140 -184 -140 -305c0 -69 21 -198 129 -198c63 0 99 58 99 159v158h55v-154c0 -108 36 -163 99 -163c108 0 129 129 129 198c0 115 -50 225 -143 305h74c93 -96 125 -189 125 -304
c0 -130 -62 -250 -185 -250c-52 0 -115 38 -128 110c-24 -77 -82 -110 -135 -110zM334 633h-49c5 11 10 22 15 34c8 21 15 51 15 82c0 13 -2 27 -5 42h59c5 -19 8 -36 8 -51c0 -44 -19 -80 -43 -107zM373 633l78 158h60l-86 -158h-52zM443 -194l-8 -35c-63 5 -76 34 -76 103
v50h45v-48c0 -47 7 -62 39 -70z" />
    <glyph glyph-name="uni1FA5" unicode="&#x1fa5;" horiz-adv-x="743" 
d="M235 -8c-116 0 -175 105 -175 245c0 116 25 202 129 309h67c-93 -82 -140 -184 -140 -305c0 -69 21 -198 129 -198c63 0 99 58 99 159v158h55v-154c0 -108 36 -163 99 -163c108 0 129 129 129 198c0 115 -50 225 -143 305h74c93 -96 125 -189 125 -304
c0 -130 -62 -250 -185 -250c-52 0 -115 38 -128 110c-24 -77 -82 -110 -135 -110zM365 632h-49c-24 27 -43 63 -43 107c0 15 3 32 8 51h59c-3 -15 -5 -29 -5 -42c0 -31 7 -61 15 -82c5 -12 10 -23 15 -34zM387 632l78 158h60l-86 -158h-52zM443 -194l-8 -35
c-63 5 -76 34 -76 103v50h45v-48c0 -47 7 -62 39 -70z" />
    <glyph glyph-name="uni1FA6" unicode="&#x1fa6;" horiz-adv-x="743" 
d="M235 -8c-116 0 -175 105 -175 245c0 116 25 202 129 309h67c-93 -82 -140 -184 -140 -305c0 -69 21 -198 129 -198c63 0 99 58 99 159v158h55v-154c0 -108 36 -163 99 -163c108 0 129 129 129 198c0 115 -50 225 -143 305h74c93 -96 125 -189 125 -304
c0 -130 -62 -250 -185 -250c-52 0 -115 38 -128 110c-24 -77 -82 -110 -135 -110zM451 794c-45 0 -78 37 -123 37c-35 0 -48 -9 -69 -24l-22 38c7 5 35 35 95 35c50 0 82 -36 123 -36c35 0 59 21 66 28l24 -36c-5 -8 -41 -42 -94 -42zM388 615h-49c5 11 10 22 15 34
c8 21 15 51 15 82c0 13 -2 27 -5 42h59c5 -19 8 -36 8 -51c0 -44 -19 -80 -43 -107zM443 -194l-8 -35c-63 5 -76 34 -76 103v50h45v-48c0 -47 7 -62 39 -70z" />
    </font>
</defs>
</svg>
